<svg  viewBox="0 0 1920 530" fill="none" xmlns="http://www.w3.org/2000/svg">
<g clip-path="url(#clip0_869_757)">
<g clip-path="url(#clip1_869_757)">
<path d="M153.6 75.9759L295.968 179.694L306.125 173.915L349.133 203.387L385.018 248.545L401.03 252.885L447.091 212.449L482.592 203.387L597.12 20.6607L616.992 39.5343L655.642 179.694H660.48L684.806 279.323L696.864 281.742L750.624 258.414L764.256 261.294L824.486 235.221L1094.21 216.193L1116.61 212.449L1209.25 171.016L1249.92 166.504L1251.84 176.469L1232.64 241.537L1242.93 240.481L1261.98 151.009L1274.69 146.401L1321.98 163.163L1388.16 212.449L1397.91 209.589L1578.24 337.019L1602.24 339.342L1621.44 323.368H1629.12L1672.32 251.176L1695.36 233.953L1706.88 262.024L1718.4 271.816L1735.05 304.821L1743.99 305.454L1750.89 188.603L1759.35 182.709L1800.33 103.585L1816.32 92.6415L1849.09 203.445L1855.68 203.387L1877.76 253.864L1898.88 294.702L1920 318.395V406.715L0 476.392V147.093L16.0512 162.395L36.48 233.953L43.2 239.694L74.4 331.125H78.24L76.8 287.041L88.8 73.0959L109.44 4.32149L115.2 2.80469L139.2 47.0415L149.76 71.9823L153.6 75.9759Z" fill="url(#paint0_linear_869_757)"/>
<path style="mix-blend-mode:multiply" opacity="0.5" d="M80.6976 381.562L0 476.391V307.604L11.04 368.986H21.6L43.2 352.09L13.44 244.148L4.32 239.693L0 279.399V153.6L16.0512 162.394L36.48 233.952L18.24 236.16L48.96 343.124L78.24 331.124L76.8 287.04L88.8 73.0947L109.44 4.32031L113.28 25.8435L117.12 175.258L129.6 217.632L268.627 294.874L231.36 257.703L153.6 213.524V123.322L170.726 195.706L283.565 212.448L279.59 195.898L295.968 179.693L306.125 173.914L292.57 193.402L335.328 225.255L369.274 241.536L349.133 203.386L385.018 248.544L401.03 252.884L453.12 313.805L509.011 279.322L493.44 217.997L447.091 212.448L482.592 203.386L509.011 212.448L565.44 94.4067L561.811 85.9587L595.834 41.0499L572.16 85.9587L517.958 209.588L536.314 240.48L576.077 270.663L597.12 245.895L605.434 189.351L608.006 41.0499L597.12 20.6595L616.992 39.5331L655.642 179.693V313.805L668.794 309.677L676.474 286.656L660.48 179.693L684.806 279.322L696.864 281.741L750.624 258.413L719.52 281.741L748.09 275.04L765.504 265.652L764.256 261.293L824.486 235.22L750.624 276L764.256 279.322L837.082 253.863L872.237 231.84L1116.61 212.448L1159.07 193.46L1144.32 207.744L1170.24 207.764L1189.44 192.615L1209.25 177.773L1218.57 176.813L1190.4 193.479L1170.24 222.893L1224.63 215.213L1240.47 186.72L1249.92 166.503L1251.32 173.76L1232.64 241.536L1242.93 240.48L1252.47 215.213L1257.93 242.4L1277.43 238.253L1287.99 210.72L1278.28 184.551L1285.29 181.844L1274.69 146.4L1323.76 164.487L1453.42 309.677L1392.63 226.407L1388.16 212.448L1393.59 210.855V219.053L1488.58 333.293L1587.36 361.21H1592.64L1588.32 341.28L1578.24 337.018L1602.24 339.341L1609.44 361.21L1616.16 357.12L1627.2 331.68L1629.12 323.367L1631.29 331.68L1653.75 359.156L1658.88 328.8L1659.36 300.672L1660.8 343.527L1674.57 334.56L1683.36 326.88L1696.32 240.365L1700.79 267.188V331.124L1703.04 355.68L1708.17 267.188L1718.4 271.815L1728 336.173L1724.16 352.8L1708.47 407.213L1715.56 414.125L1737.95 413.319L1749.45 302.247L1750.89 188.602L1759.35 182.708L1762.23 202.733V279.84L1818.87 205.556L1821.37 189.6L1809.24 97.4979L1800.33 103.584L1778.15 146.4L1800.33 103.584L1816.32 92.6403L1848.44 201.178L1785.6 379.373L1782.09 404.333L1792.95 405.6L1848.44 201.178L1849.09 203.444L1817.61 348.519L1822.08 392.333L1859.19 389.357L1855.68 203.386L1898.88 294.701L1920 318.394V406.714L80.6976 381.562Z" fill="url(#paint1_linear_869_757)"/>
<g style="mix-blend-mode:soft-light">
<path d="M608.006 41.0506L605.433 189.351L593.28 120.692V95.137L589.44 76.0138L583.353 71.9818L572.16 102.452L550.195 138.971L555.245 184.321L579.072 205.556L603.993 199.201L579.072 209.588L572.486 203.387L550.137 189.351V147.86L546.432 144.654L595.833 41.0506L561.811 85.9594L565.44 94.4074L536.025 155.943L542.4 117.678L538.905 113.55L597.12 20.6602L608.006 41.0506Z" fill="#DBD1FF"/>
</g>
<g style="mix-blend-mode:soft-light">
<path d="M660.48 179.695L667.757 228.271L655.642 245.897L669.389 239.215L655.642 263.868V179.695H660.48Z" fill="#DBD1FF"/>
</g>
<g style="mix-blend-mode:soft-light">
<path d="M153.6 75.9766L266.88 158.517L224.006 140.969L227.193 132.962L215.673 123.055L175.353 104.239L204.806 140.085L210.24 151.01L172.8 141.333L161.913 129.065V115.951L159.686 115.125L166.944 179.695L153.6 123.324V75.9766Z" fill="#A490C9"/>
</g>
<g style="mix-blend-mode:soft-light">
<path d="M1274.69 146.402L1285.29 181.846L1278.28 184.553L1287.99 210.722L1277.43 238.255L1257.93 242.402L1252.47 215.215L1261.98 151.01L1274.69 146.402Z" fill="#DBD1FF"/>
</g>
<g style="mix-blend-mode:soft-light">
<path d="M1249.92 166.504L1224.63 215.214L1232.16 186.933L1226.8 184.552L1176.5 213.774L1189.44 192.616L1218.57 176.814L1209.25 177.774L1185.52 195.707H1154.38L1159.07 193.461L1209.25 171.016L1249.92 166.504Z" fill="#DBD1FF"/>
</g>
<g style="mix-blend-mode:soft-light">
<path d="M1289.66 222.586L1280.85 271.584L1285.29 267.188L1303.68 324.519L1351.2 359.155L1320.48 324.519L1351.2 335.77L1289.66 222.586Z" fill="#DBD1FF"/>
</g>
<g style="mix-blend-mode:soft-light">
<path d="M1397.91 209.59L1412.52 226.159L1434.72 261.295L1416.33 241.097L1434.72 267.19L1393.59 219.055V210.857L1397.91 209.59Z" fill="#DBD1FF"/>
</g>
<g style="mix-blend-mode:soft-light">
<path d="M1672.32 251.175L1629.12 323.367L1660.47 279.936L1665.27 267.187H1669.44L1648.32 305.453L1643.52 340.647L1659.48 304.186L1660.8 343.527L1683.36 326.88L1689.6 245.895L1672.32 251.175Z" fill="#DBD1FF"/>
</g>
<g style="mix-blend-mode:soft-light">
<path d="M872.237 231.84L833.011 255.283L764.256 279.321L750.624 276L804 246.528L787.2 259.853L824.486 239.577L814.925 240.48L824.486 235.219L872.237 231.84Z" fill="#DBD1FF"/>
</g>
<g style="mix-blend-mode:soft-light">
<path d="M1809.23 97.4805L1821.37 189.64L1818.87 205.576L1793.91 238.408C1793.91 238.408 1785.66 233.128 1785.18 234.28C1784.7 235.432 1800.54 136.36 1800.54 136.36L1789.9 156.002L1775.52 179.042L1780.32 156.002L1759.35 182.69L1800.33 103.586L1809.23 97.4805Z" fill="#DBD1FF"/>
</g>
<g style="mix-blend-mode:soft-light">
<path d="M1855.68 203.387L1858.02 326.862L1853.91 266.881L1849.29 279.534L1828.22 299.579L1849.09 203.444L1855.68 203.387Z" fill="#DBD1FF"/>
</g>
<path d="M385.018 248.546L349.133 203.387L306.125 173.915L295.968 179.694L153.6 75.976L149.76 71.9824L139.2 47.0416L115.2 2.8048L109.44 4.3216L117.197 1L149.76 71.9824L155.194 73.096L294.01 177.006L297.005 177.486L306.125 172.206L351.13 203.656L385.018 248.546Z" fill="#9CA9FF"/>
<path d="M401.03 252.884L447.091 212.449L482.592 203.386L597.12 20.6599L616.992 39.5335L655.642 179.694H660.48L684.806 279.322L696.864 281.742L687.034 275.713L662.515 177.447L656.122 173.914L619.488 36.9607L598.752 16.5703L480.326 201.121L447.187 209.588L401.03 252.884Z" fill="#9CA9FF"/>
<path d="M707.481 277.134L750.624 258.414L764.256 261.294L824.486 235.221L1094.21 216.194L1116.61 212.45L1209.25 171.016L1249.92 166.504L1207.45 169.442L1116.61 209.589L1094.28 215.214L822.681 233.339L765.504 258.971L750.624 256.36L707.481 277.134Z" fill="#9CA9FF"/>
<path d="M1816.32 92.6406L1800.33 103.585L1759.35 182.708L1750.89 188.602L1743.99 305.453L1748.08 187.201L1759.35 179.693L1800.73 100.801L1816.32 92.6406Z" fill="#9CA9FF"/>
<path d="M1695.36 233.953L1672.32 251.176L1629.12 323.367H1621.44L1629.12 320.641L1672.32 248.488L1695.36 233.953Z" fill="#9CA9FF"/>
<path d="M1248.36 290.035L1376.64 345.427L1647.99 382.963L1920 381.562V530.4H0V381.562L576.077 339.763L863.77 291.84L1248.36 290.035Z" fill="url(#paint2_linear_869_757)"/>
<path style="mix-blend-mode:multiply" opacity="0.71" d="M1248.36 290.035L1337.05 364.896V390.432L1248.36 465.466L1117.06 484.57L1185.81 530.4H1689.6L1551.36 497.05L1521.6 473.338L1920 484.57V475.93L1611.76 476.39L1468.09 402.163L1488.58 402.336L1471.05 397.133L1399.03 348.518L1376.64 345.427L1248.36 290.035Z" fill="url(#paint3_linear_869_757)"/>
<path style="mix-blend-mode:multiply" opacity="0.5" d="M584.717 338.325L750.624 315.342L734.496 324.52L624.845 375.496L502.214 404.066L652.512 377.915L674.995 378.414L549.12 448.034L233.28 479.963L173.76 462.856L470.054 411.592L229.44 446.978L0 440.699V530.402H608.006L789.792 304.168L584.717 338.325Z" fill="url(#paint4_linear_869_757)"/>
<path style="mix-blend-mode:multiply" opacity="0.5" d="M1611.76 476.393L1551.65 475.145L1920 484.572V475.932L1611.76 476.393Z" fill="url(#paint5_linear_869_757)"/>
<path style="mix-blend-mode:multiply" opacity="0.5" d="M674.996 378.416L685.325 389.36L712.474 372.713L780.154 309.68L750.624 315.344L624.845 375.497L502.215 404.067L652.512 377.916L674.996 378.416Z" fill="url(#paint6_linear_869_757)"/>
<path style="mix-blend-mode:multiply" opacity="0.5" d="M1551.36 497.051L1620.63 530.401H1689.6L1551.36 497.051Z" fill="url(#paint7_linear_869_757)"/>
<g style="mix-blend-mode:soft-light">
<path d="M750.624 315.344L624.845 375.497L499.2 404.067L332.852 431.6L614.612 372.713L636.48 360.406L549.12 368.989L459.053 377.341L509.012 345.43L576.077 339.766L750.624 315.344Z" fill="#A963A1"/>
</g>
<g style="mix-blend-mode:soft-light">
<path d="M674.995 378.413L549.12 448.032L273.619 475.872L369.696 450.413L482.592 437.664L498.643 430.541L354.451 448.032L277.901 446.976L572.006 411.591L597.12 398.516L474.317 415.776L460.397 413.261L652.512 377.914L674.995 378.413Z" fill="#A963A1"/>
</g>
<g style="mix-blend-mode:soft-light">
<path d="M349.133 415.431L223.68 429.044L0 432.826V419.866L447.091 381.562L431.52 388.033L319.68 412.321L349.133 415.431Z" fill="#A963A1"/>
</g>
<path style="mix-blend-mode:multiply" opacity="0.5" d="M1468.09 402.166L1466.15 465.104L1434.72 441.603V392.336L1471.05 397.136L1488.58 402.339L1468.09 402.166Z" fill="url(#paint8_linear_869_757)"/>
<g style="mix-blend-mode:soft-light">
<path d="M1647.99 382.964L1689.6 398.516L1488.58 365.876H1471.2L1654.08 397.134L1659.36 402.164L1572 400.033L1575.84 402.164L1561.44 410.209H1483.68L1468.09 402.164L1488.58 402.337L1471.05 397.134L1399.03 348.52L1647.99 382.964Z" fill="#A963A1"/>
</g>
<path style="mix-blend-mode:multiply" opacity="0.71" d="M1871.04 449.033L1858.02 424.687L1836.86 409.73L1750.89 430.543L1590.72 449.82L1871.04 449.033Z" fill="url(#paint9_linear_869_757)"/>
<path style="mix-blend-mode:multiply" opacity="0.71" d="M1759.35 409.71V402.164L1730.88 405.946L1640.64 419.598L1759.35 409.71Z" fill="url(#paint10_linear_869_757)"/>
<g style="mix-blend-mode:soft-light">
<path d="M1836.86 409.73L1759.35 409.711L1654.08 428.719L1574.88 445.769L1590.72 449.82L1750.89 430.543L1836.86 409.73Z" fill="#BDA5D6"/>
</g>
<g style="mix-blend-mode:soft-light">
<path d="M1759.35 402.166L1730.88 400.035L1612.32 417.526L1640.64 419.6L1759.35 402.166Z" fill="#A963A1"/>
</g>
<path d="M1226.8 271.816L1337.05 364.898V390.434L1397.45 373.384L1413.64 392.008H1422.26L1506.74 498.952L624.845 502.831L661.766 415.778L703.488 368.988L722.246 359.157L774.355 314.652L824.486 271.816H1226.8Z" fill="url(#paint11_linear_869_757)"/>
<path d="M1148.72 271.817L1165.92 252.886L1148.72 230.96H1153.8L1099.49 184.553L1117.06 155.945L960.96 192.733L907.296 207.958L868.8 279.325L987.552 277.232L1148.72 271.817Z" fill="#00000B"/>
<path d="M896.832 211.258L888.038 248.544L870.317 267.187L851.481 265.651L860.102 251.175L865.881 241.095L896.832 211.258Z" fill="#00000B"/>
<path d="M1148.72 271.815L1165.92 252.884L1148.72 230.957H1153.81L1099.49 184.551L1149.89 222.24L1226.8 271.815H1148.72Z" fill="url(#paint12_linear_869_757)"/>
<path d="M1165.92 252.883L1188.65 257.703L1211.62 263.386L1173.54 251.175L1148.72 230.957L1165.92 252.883Z" fill="#00000B"/>
<path d="M1153.81 230.96H1161.64L1159.1 228.195L1147.14 225.258L1153.81 230.96Z" fill="#00000B"/>
<path d="M1226.8 271.816L1337.05 364.898V390.434L1316.87 414.895L1337.05 390.434L1341.79 411.592L1326.28 442.255L1357.11 440.277L1381.65 428.623L1399.03 421.077L1385.2 444.866L1461.25 468.309L1456.45 449.263L1488.58 501.832L1310.52 499.816L1165.92 419.906L1017.49 411.592L837.082 356.546L923.943 342.799L944.448 339.765L1005.24 330.261H1078.18L1005.24 313.807L897.197 299.618L863.77 291.842L1008 283.932L1129.11 279.957L1116.52 271.816H1226.8Z" fill="url(#paint13_linear_869_757)"/>
<path d="M960.96 502.831L1104.98 441.603L960.96 494.268L940.186 488.739L883.277 480.406L981.12 426.78L900.288 455.734L833.338 462.857H683.463L655.642 430.198L661.767 415.779L703.488 368.988L576.077 502.831H960.96Z" fill="url(#paint14_linear_869_757)"/>
<path d="M1018.43 271.394L987.552 277.231L926.534 283.932L863.769 291.842L897.197 299.618L1005.24 313.807L1078.18 330.261H1005.24L863.769 352.092L837.081 356.546L1017.48 411.593L1165.92 419.906L1121.66 500.642L960.96 502.831L1104.98 441.602L1096.17 435.458L981.12 426.78L765.504 352.668L821.971 345.737L968.045 330.741L1016.43 324.521H1037.93L928.224 309.199L874.157 300.367L839.923 287.657L931.641 278.556L996.979 271.145L1018.43 271.394Z" fill="url(#paint15_linear_869_757)"/>
<path d="M1226.8 453.562L1259.5 476.353L1253.28 480.634L1238.5 482.938L1241.74 487.681L1191.36 493.498L1121.66 500.641L1310.52 499.815L1226.8 453.562Z" fill="url(#paint16_linear_869_757)"/>
<path d="M824.486 271.817L994.829 271.395L956.621 275.734L839.923 287.657L785.26 316.726L791.481 328.15H821.971L878.246 301.039L806.88 341.974L817.997 346.371L765.504 352.668L722.246 359.158L824.486 271.817Z" fill="url(#paint17_linear_869_757)"/>
<path style="mix-blend-mode:multiply" opacity="0.8" d="M924 342.954L1005.25 330.243H1078.21L1005.25 313.808L897.197 299.619L863.77 291.843L947.251 300.138L1129.13 279.939L1116.52 271.818H1148.72L1270.68 318.435L1229.41 279.306L1165.92 252.867L1209.25 262.102L1226.78 271.818L1337.05 364.899V390.435L1311.82 415.203L1266.39 462.186L1285.06 473.418L1331.81 477.258L1385.2 445.04L1399.03 421.251L1397.43 373.558L1413.66 392.182L1427.6 426.723L1453.69 446.979L1422.26 392.048L1506.74 498.973H1486.81L1488.58 501.853L1310.52 499.933L1165.92 420.022L1017.48 411.709L938.573 387.632L837.12 356.547L924 342.954ZM1183.2 359.158L1279.2 382.947L1328.39 372.714L1266.57 322.026L1157.63 317.475L1183.2 359.158ZM957.389 346.218L994.08 333.277L924.557 344.509L914.093 346.218L851.558 356.797L926.131 349.347L957.389 346.218Z" fill="url(#paint18_linear_869_757)"/>
<path style="mix-blend-mode:multiply" opacity="0.8" d="M947.251 300.136L1061.49 287.445L1064.45 300.635L1069.36 291.842L1078.21 285.602L1129.13 279.938L1183.14 359.157L1328.31 395.137L1337.05 364.897V390.434L1266.39 462.107L1248.36 465.467L1165.92 419.906L1123.2 417.525L1117 402.933L1078.1 330.242L1005.14 313.806L945.178 305.934L947.251 300.136ZM1163.14 387.515L1216.09 415.777L1296.73 402.146L1254.3 381.909L1226.88 372.712L1129.23 359.157L1163.14 387.515ZM1147.12 355.432H1174.25L1165.92 346.6L1148.64 337L1123.2 339.074L1147.12 355.432ZM998.688 303.842L1070.11 317.493L1043.9 291.842L974.439 299.253L998.688 303.842Z" fill="url(#paint19_linear_869_757)"/>
<path style="mix-blend-mode:multiply" opacity="0.5" d="M1285.06 473.341L1331.81 477.104L1385.2 444.867L1461.25 468.31L1488.58 501.834L1310.52 499.818L1248.37 465.469L1285.06 473.341Z" fill="url(#paint20_linear_869_757)"/>
<path style="mix-blend-mode:multiply" opacity="0.2" d="M999.686 331.125L1017.48 411.592L1011.36 409.73L996.96 331.547L999.686 331.125Z" fill="url(#paint21_linear_869_757)"/>
<path style="mix-blend-mode:multiply" opacity="0.2" d="M837.082 356.544L938.573 387.514L926.074 349.344L851.501 356.813L914.036 346.214L924.5 344.525L924 342.95L923.943 342.797L837.082 356.544Z" fill="url(#paint22_linear_869_757)"/>
<path d="M883.277 398.516L817.844 372.711L801.754 371.367L820.704 387.514L839.924 398.516H883.277Z" fill="url(#paint23_linear_869_757)"/>
<path d="M797.875 368.987H809.03L799.546 365.166L782.035 363.227L791.635 367.239L796.704 368.987H797.875Z" fill="url(#paint24_linear_869_757)"/>
<path style="mix-blend-mode:multiply" opacity="0.5" d="M1096.17 435.458L1033.56 467.714L912.096 473.34L905.3 468.328L981.12 426.722L961.92 420.117L959.578 430.754L901.978 450.396L878.266 430.159L883.277 398.479L894.106 396.828L817.92 372.712L880.704 397.48L839.981 398.517L825.082 444.847L809.031 453.602L750.72 462.856H833.28L868.762 459.016L887.77 465.41C887.77 465.41 866.266 483.612 863.712 483.093C861.159 482.575 802.272 468.482 802.272 468.482L652.397 477.026L683.52 462.856L772.436 453.602L801.754 371.407L814.925 369.717L809.031 369.026H797.876L779.309 425.186L765.504 439.989L758.708 440.373L782.036 363.285L758.708 430.255L709.997 447.765L628.224 457.73L676.685 397.192L576.077 502.792H960.96L1104.96 441.583L1096.17 435.458Z" fill="url(#paint25_linear_869_757)"/>
<path style="mix-blend-mode:multiply" opacity="0.5" d="M772.435 453.562L765.504 439.93L758.707 440.314L761.51 431.04L758.707 430.195L709.997 447.706L683.577 450.931L662.112 453.562L652.512 477.101L683.462 462.855L772.435 453.562Z" fill="url(#paint26_linear_869_757)"/>
<path style="mix-blend-mode:multiply" opacity="0.5" d="M960.96 502.83L1104.98 441.601L1096.17 435.457L1033.56 467.732L912.115 473.339L902.343 485.876L880.935 502.83H960.96Z" fill="url(#paint27_linear_869_757)"/>
<path style="mix-blend-mode:multiply" opacity="0.5" d="M960.269 419.598L959.539 430.791L901.958 450.433L900.288 455.732L981.12 426.778L960.269 419.598Z" fill="url(#paint28_linear_869_757)"/>
<path style="mix-blend-mode:multiply" opacity="0.5" d="M825.024 444.867L846.278 455.734H865.882L896.832 456.099L833.338 462.858H750.624L809.03 453.565L825.024 444.867Z" fill="url(#paint29_linear_869_757)"/>
<path style="mix-blend-mode:multiply" opacity="0.5" d="M1216.09 415.778L1226.8 453.564L1248.37 465.468L1266.39 462.127L1328.1 399.496L1328.31 395.157L1231.76 371.215L1228.76 372.712L1254.34 381.909L1296.77 402.165L1216.09 415.778Z" fill="url(#paint30_linear_869_757)"/>
<path style="mix-blend-mode:multiply" opacity="0.5" d="M1174.25 355.434L1177.57 365.878L1147.3 361.674L1147.12 355.434H1174.25Z" fill="url(#paint31_linear_869_757)"/>
<path style="mix-blend-mode:multiply" opacity="0.5" d="M987.552 317.473L974.438 326.228L817.996 346.369L806.88 341.972L821.971 328.148L803.443 337.018L761.779 350.381L730.982 351.687L722.246 359.156L765.504 352.666L1012.3 325.037L1037.93 324.519L987.552 317.473Z" fill="url(#paint32_linear_869_757)"/>
<g style="mix-blend-mode:soft-light" opacity="0.5">
<path d="M1165.92 419.926L1123.26 433.02L1104.98 441.602L1096.17 435.458L981.12 426.78L765.504 352.668L837.081 356.546L1017.48 411.593L1165.92 419.926Z" fill="#D6DBFF"/>
</g>
<g style="mix-blend-mode:soft-light" opacity="0.5">
<path d="M1144.53 458.922L1061.34 460.151L1050.01 464.97L1134.51 477.219L1144.53 458.922Z" fill="#D6A7C2"/>
</g>
<g style="mix-blend-mode:soft-light" opacity="0.5">
<path d="M1129.13 487.028L1020.88 477.352L1015.93 479.464L1127.75 489.544L1129.13 487.028Z" fill="#D6A7C2"/>
</g>
<g style="mix-blend-mode:soft-light" opacity="0.5">
<path d="M951.302 338.323L938.572 333.293L839.923 344.333L863.769 352.09L951.302 338.323Z" fill="#D6DBFF"/>
</g>
<g style="mix-blend-mode:soft-light" opacity="0.5">
<path d="M1033.94 330.259L1022.15 324.518H1037.93L977.626 316.089L1005.25 313.805L1078.16 330.259H1033.94Z" fill="#D6DBFF"/>
</g>
<g style="mix-blend-mode:soft-light" opacity="0.5">
<path d="M963.84 308.374L936.73 310.39L874.157 300.368L895.604 299.254L963.84 308.374Z" fill="#EDEFF3"/>
</g>
<g style="mix-blend-mode:soft-light" opacity="0.5">
<path d="M863.769 291.84L839.923 287.655L902.611 281.453L931.641 283.354L863.769 291.84Z" fill="#EDEFF3"/>
</g>
<path d="M703.488 368.988L712.474 372.713L750.624 360.655L765.504 352.668L722.247 359.158L703.488 368.988Z" fill="url(#paint33_linear_869_757)"/>
<g style="mix-blend-mode:soft-light" opacity="0.5">
<path d="M1063.76 452.163L971.731 431.926L961.267 437.667L1021.36 449.148L1017.48 450.703L953.28 442.044L949.709 443.695L1050.01 458.921L1063.76 452.163Z" fill="#D6A7C2"/>
</g>
<g style="mix-blend-mode:soft-light" opacity="0.5">
<path d="M1021.88 468.058L942.182 448.129L938.572 450.107L1015.93 468.538L1021.88 468.058Z" fill="#D6A7C2"/>
</g>
<g style="mix-blend-mode:soft-light" opacity="0.5">
<path d="M1397.91 387.514L1368.46 381.562L1337.05 390.433L1397.91 397.134V387.514Z" fill="#D6A7C2"/>
</g>
<g style="mix-blend-mode:soft-light" opacity="0.5">
<path d="M1398.78 413.664L1338.55 397.133L1339.18 399.974L1399.03 421.075L1398.78 413.664Z" fill="#D6A7C2"/>
</g>
<path style="mix-blend-mode:multiply" opacity="0.5" d="M1399.03 421.076L1427.6 426.682L1413.64 392.007L1397.45 373.383L1399.03 421.076Z" fill="url(#paint34_linear_869_757)"/>
<path style="mix-blend-mode:multiply" opacity="0.2" d="M931.642 310.39L878.246 338.614L872.602 339.344L930.182 309.68L931.642 310.39Z" fill="url(#paint35_linear_869_757)"/>
<path style="mix-blend-mode:multiply" opacity="0.2" d="M909.542 306.029L862.406 340.647L857.549 341.28L905.299 305.453L909.542 306.029Z" fill="url(#paint36_linear_869_757)"/>
<path style="mix-blend-mode:multiply" opacity="0.2" d="M993.408 404.259L922.771 406.717L907.296 401.398H984.058L993.408 404.259Z" fill="url(#paint37_linear_869_757)"/>
<path style="mix-blend-mode:multiply" opacity="0.2" d="M880.934 392.336H928.224V387.517L837.081 362.691H794.649L880.934 392.336Z" fill="url(#paint38_linear_869_757)"/>
<path d="M1117.06 155.945L1130.52 207.766L1099.49 184.553L1117.06 155.945Z" fill="#00000B"/>
<path d="M1117.06 155.945L1093.32 189.008L1037.93 232.841L1097.15 190.083L1085.22 225.257L1017.37 271.587L973.19 271.107L911.366 271.395L936.019 199.203L960.96 192.733L1117.06 155.945Z" fill="url(#paint39_linear_869_757)"/>
<path d="M994.042 333.293L957.332 346.215L992.948 338.323L970.484 368.986L938.573 387.514L837.082 356.544L994.042 333.293Z" fill="url(#paint40_linear_869_757)"/>
<path style="mix-blend-mode:multiply" opacity="0.5" d="M992.947 338.324L1011.36 409.729L993.408 404.257L970.483 368.987L992.947 338.324Z" fill="url(#paint41_linear_869_757)"/>
<path d="M900.288 455.734L887.827 465.469H892.608L863.27 489.546L809.03 473.341L628.224 497.053L652.512 477.104L683.462 462.858H837.081L900.288 455.734Z" fill="url(#paint42_linear_869_757)"/>
<path style="mix-blend-mode:multiply" opacity="0.5" d="M809.03 473.34L820.57 502.831H722.246L718.81 485.186L809.03 473.34Z" fill="url(#paint43_linear_869_757)"/>
<path d="M1165.92 430.195L1147.12 462.855L1121.66 500.64L1148.76 500.026L1172.95 450.048L1165.92 430.195Z" fill="url(#paint44_linear_869_757)"/>
<path style="mix-blend-mode:multiply" opacity="0.5" d="M1172.95 450.048L1261.98 500.026L1165.92 430.195L1172.95 450.048Z" fill="url(#paint45_linear_869_757)"/>
<path style="mix-blend-mode:multiply" opacity="0.5" d="M655.642 430.197L701.299 381.121L707.059 377.512L750.336 375.477L769.536 377.397L754.176 415.797L727.699 435.611L688.55 440.833L693.178 430.35L693.696 411.745L705.216 404.2L720.922 394.139L744.71 392.488L727.258 398.67H720.538L703.507 406.792L698.246 411.841L694.925 425.857L696.48 436.955L705.542 437.051L726.95 433.845L753.427 414.376L759.936 386.977L747.302 379.528L708.365 380.008C708.077 380.008 701.741 384.097 701.741 384.097L677.99 410.19L666.701 418.485L655.642 430.197Z" fill="url(#paint46_linear_869_757)"/>
<path style="mix-blend-mode:multiply" opacity="0.5" d="M1468.09 500.641L1446.8 477.351L1416.69 468.059L1363.22 477.102L1353.87 485.204L1374.45 496.916H1418.65L1432.86 490.734L1427.6 482.555L1419.23 475.547L1399.03 477.102L1382.63 481.979L1385.15 485.204L1392.56 481.595L1415.14 478.35L1419.28 478.599L1426.04 483.15L1428.77 489.505L1415.65 495.342L1375.55 494.823L1370.23 492.366L1358.55 484.359L1360.24 481.729L1377.62 476.142L1416.17 469.383L1444.59 478.35L1452.77 487.566L1456.8 501.063L1468.09 500.641Z" fill="url(#paint47_linear_869_757)"/>
<g style="mix-blend-mode:soft-light">
<path d="M1123.26 417.524L1093.32 359.444L1108.11 401.396L1097.15 404.065L1086.12 398.478L1082.69 409.729L1050.01 378.183L1007.23 358.523L1018.43 392.334L1014.2 400.033L992.947 338.324L1011.36 409.729L1017.48 411.591L1123.26 417.524Z" fill="#A963A1"/>
</g>
<g style="mix-blend-mode:soft-light" opacity="0.5">
<path d="M1226.8 453.561L1216.09 415.776L1204.74 409.728V435.897H1200.98L1197.1 435.456L1192.42 403.142L1189.13 401.395L1192.42 430.195H1189.13L1181.78 427.469L1165.92 417.523L1141.17 369.197L1137.18 365.875L1157.55 406.713V419.597L1165.92 419.923L1226.8 453.561Z" fill="#A963A1"/>
</g>
<g style="mix-blend-mode:soft-light" opacity="0.8">
<path d="M1157.55 419.598L1129.13 359.157H1133.61L1123.26 339.093L1130.52 337.633L1112.89 281.742L1109.65 282.107L1123.26 326.881L1119.23 330.261L1109.65 345.045L1114.54 377.915H1108.11L1081.71 285.217L1078.21 285.601L1097.26 346.216L1097.15 352.091L1090.87 350.209L1078.16 330.261L1123.26 417.525L1157.55 419.598Z" fill="#A963A1"/>
</g>
<g style="mix-blend-mode:soft-light" opacity="0.8">
<path d="M1307.56 420.346L1296.77 402.164L1293.87 402.644L1300.72 422.67V424.474L1283.73 404.372L1276.57 405.562L1284.58 424.474L1282.5 426.682L1283.4 444.865L1274.84 453.562L1242.93 411.246L1240.47 411.668L1269.5 458.919L1307.56 420.346Z" fill="#A963A1"/>
</g>
<g style="mix-blend-mode:soft-light">
<path d="M996.979 271.145L1097.15 190.082L1005.24 257.359L981.12 258.108L1103.04 175.49L1112.85 161.801L1002.03 239.215L981.12 240.482L1011.36 195.9L1051.83 171.324L981.12 189.353L945.312 233.878L931.085 269.513L996.979 271.145Z" fill="#A963A1"/>
</g>
<path d="M896.832 211.258L824.486 271.815L907.296 271.68L872.601 270.394L867.398 263.098L861.965 254.727L865.882 251.175V241.095L896.832 211.258Z" fill="url(#paint48_linear_869_757)"/>
<path d="M861.964 254.728L839.923 265.653L860.102 252.885L865.881 251.176L861.964 254.728Z" fill="url(#paint49_linear_869_757)"/>
<g style="mix-blend-mode:soft-light">
<path d="M801.754 462.855L718.81 485.185L690.413 488.91L786.451 462.855H801.754Z" fill="#A963A1"/>
</g>
<g style="mix-blend-mode:soft-light">
<path d="M765.504 462.855L628.224 497.051L649.017 479.963L746.073 462.855H765.504Z" fill="#A963A1"/>
</g>
<path d="M1150.56 271.817L1114.73 222.895L1109.95 226.351V237.218L1106.55 229.154L1098.07 207.766L1094.4 213.526L1091 257.57L1087.07 251.196L1063.62 252.732L1020.25 271.394L1150.56 271.817Z" fill="url(#paint50_linear_869_757)"/>
<path style="mix-blend-mode:multiply" opacity="0.5" d="M1061.76 262.102L1086.99 251.178L1090.93 257.552L1099.6 265.654L1106.73 265.827L1109.86 247.837L1098.91 212.451L1096.26 210.531L1097.99 207.805L1109.86 237.258L1130.8 264.138L1124.53 239.562L1114.66 222.896L1150.48 271.818L1027.83 271.395L1061.76 262.102ZM1086.72 255.997L1062.51 263.523L1043.31 270.166L1082.88 267.171L1089.16 257.744L1086.72 255.997ZM1093.88 270.666L1095.07 268.746L1094.21 267.133L1085.32 267.958L1071.88 270.166L1093.88 270.666Z" fill="url(#paint51_linear_869_757)"/>
<g style="mix-blend-mode:soft-light">
<path d="M1087.07 251.176L1061.84 262.101L1027.91 271.393H1020.25L1063.62 252.731L1087.07 251.176Z" fill="#C095AC"/>
</g>
<path style="mix-blend-mode:multiply" opacity="0.5" d="M1061.84 262.102L1062.51 263.561L1043.33 270.204L1082.96 267.19L1085.41 267.996L1071.94 270.204L1093.96 270.665L1095.17 268.803L1099.68 265.654L1115.27 268.918L1106.82 265.827L1109.95 247.855L1125.06 261.295L1130.88 264.156L1150.56 271.817L1027.91 271.395L1061.84 262.102Z" fill="url(#paint52_linear_869_757)"/>
<g style="mix-blend-mode:multiply" opacity="0.3">
<path d="M1083.15 252.887L1084.53 256.707L1081.36 257.706L1079.58 254.423L1083.15 252.887Z" fill="#D3B5C5"/>
</g>
<g style="mix-blend-mode:multiply" opacity="0.3">
<path d="M1078.68 258.529L1075.07 256.379L1070.36 258.414L1074.43 259.854L1078.68 258.529Z" fill="#D3B5C5"/>
</g>
<g style="mix-blend-mode:multiply" opacity="0.3">
<path d="M1123.99 255.284L1106.15 235.604L1098.97 212.449L1100.45 213.678L1109.95 237.217L1123.99 255.284Z" fill="#C39AB0"/>
</g>
<g style="mix-blend-mode:multiply" opacity="0.3">
<path d="M1124.6 239.56L1135.45 251.176L1114.73 222.895L1124.6 239.56Z" fill="#C39AB0"/>
</g>
<g style="mix-blend-mode:multiply" opacity="0.5">
<path d="M1106.82 265.824L1115.27 268.915L1116.67 271.815H1130.96L1106.82 265.824Z" fill="#B888A2"/>
</g>
<g style="mix-blend-mode:multiply" opacity="0.5">
<path d="M1093.34 227.445L1107.92 241.327L1109.95 247.855L1108.74 254.728L1092.69 237.045L1093.34 227.445Z" fill="#D3B5C5"/>
</g>
<g style="mix-blend-mode:multiply" opacity="0.5">
<path d="M1104.71 230.957L1094.21 216.192L1094.4 213.523L1102.77 224.717L1104.71 230.957Z" fill="#D3B5C5"/>
</g>
<path d="M362.631 532.17L368.103 383.619L384.596 361.77L464.487 388.035L576.212 486.262L578.592 532.17H362.631Z" fill="url(#paint53_linear_869_757)"/>
<path style="mix-blend-mode:multiply" opacity="0.8" d="M384.596 361.77L409.056 437.245L426.452 460.016L469.268 473.994L448.378 449.821L502.215 483.363L576.212 486.262L578.592 532.17H362.631V388.323L384.596 361.77Z" fill="url(#paint54_linear_869_757)"/>
<path style="mix-blend-mode:multiply" opacity="0.8" d="M444.192 445.577L409.056 403.433L402.777 385.309L444.192 445.577Z" fill="url(#paint55_linear_869_757)"/>
<path style="mix-blend-mode:multiply" opacity="0.8" d="M510.72 532.169L502.215 483.363L448.378 449.82L469.268 473.993L462.375 532.169H510.72Z" fill="url(#paint56_linear_869_757)"/>
<path style="mix-blend-mode:multiply" opacity="0.8" d="M426.452 460.016L431.655 532.17H362.631V388.323L384.596 361.77L409.056 437.245L426.452 460.016Z" fill="url(#paint57_linear_869_757)"/>
<g style="mix-blend-mode:soft-light" opacity="0.5">
<path d="M464.487 388.035L408.691 393.91L411.61 398.154L470.611 399.229L479.559 403.107L417.581 406.832L419.155 409.136L490.176 410.614L464.487 388.035Z" fill="#92AECA"/>
</g>
<g style="mix-blend-mode:soft-light" opacity="0.5">
<path d="M520.589 437.339L431.654 427.316L435.936 433.537L526.368 442.427L520.589 437.339Z" fill="#92AECA"/>
</g>
<g style="mix-blend-mode:soft-light">
<path d="M554.17 466.869L470.611 464.469L502.215 483.362L576.211 486.261L554.17 466.869Z" fill="#A5A895"/>
</g>
<path d="M413.107 532.573L420.653 484.784L335.866 270.627L315.879 254.922L253.171 218L211.431 315.344L234.125 336.464L215.405 328.63L211.431 534.57L413.107 532.573Z" fill="url(#paint58_linear_869_757)"/>
<path style="mix-blend-mode:multiply" opacity="0.8" d="M230.227 403.876L271.834 426.916L277.248 405.392L234.125 336.484L211.431 315.364L253.171 218.02L239.597 266.922L246.394 320.336L284.794 409.904L294.202 415.069L284.794 360.791L282.24 332.279L346.925 488.164L388.339 531.306L405.927 495.844L375.475 370.659L420.653 484.765L413.107 532.573L211.507 534.493L215.482 328.573L230.227 403.876ZM294.605 488.164L325.901 494.711V482.826L285.735 417.546L294.605 488.164Z" fill="url(#paint59_linear_869_757)"/>
<path style="mix-blend-mode:multiply" opacity="0.5" d="M211.431 315.344L246.375 320.317L265.191 364.169L284.794 409.885L296.928 533.379L280.186 534.569L283.527 429.046L277.248 405.373L234.125 336.464L211.431 315.344Z" fill="url(#paint60_linear_869_757)"/>
<path style="mix-blend-mode:multiply" opacity="0.5" d="M215.405 328.629L220.147 357.122L249.005 534.568H211.431L215.405 328.629Z" fill="url(#paint61_linear_869_757)"/>
<path style="mix-blend-mode:multiply" opacity="0.5" d="M234.125 336.464L265.191 364.169L246.375 320.317L211.431 315.344L234.125 336.464Z" fill="url(#paint62_linear_869_757)"/>
<path style="mix-blend-mode:multiply" opacity="0.5" d="M294.202 415.049L331.238 488.066L331.93 533.378L388.339 531.209L346.925 488.066L282.278 332.277L284.794 360.789L294.202 415.049Z" fill="url(#paint63_linear_869_757)"/>
<path style="mix-blend-mode:multiply" opacity="0.8" d="M282.278 326.364L276.019 275.714L253.171 222.012L282.278 326.364Z" fill="url(#paint64_linear_869_757)"/>
<g style="mix-blend-mode:soft-light" opacity="0.5">
<path d="M276.019 275.715L335.865 270.627L315.878 254.922L253.171 218L239.597 266.902H254.169L253.171 222.013L276.019 275.715Z" fill="#92AECA"/>
</g>
<g style="mix-blend-mode:soft-light" opacity="0.3">
<path d="M271.834 299.425L246.375 320.315L245.165 310.677L270.067 294.875L271.834 299.425Z" fill="#92AECA"/>
</g>
<g style="mix-blend-mode:soft-light" opacity="0.3">
<path d="M282.662 449.359L246.336 493.692L245.241 488.066L282.662 444.828V449.359Z" fill="#92AECA"/>
</g>
<g style="mix-blend-mode:soft-light" opacity="0.3">
<path d="M283.373 432.883L242.131 471.801L241.19 466.848L283.526 429.043L283.373 432.883Z" fill="#92AECA"/>
</g>
<g style="mix-blend-mode:soft-light" opacity="0.5">
<path d="M239.597 266.902L228.48 275.562L253.172 218L239.597 266.902Z" fill="#92AECA"/>
</g>
<g style="mix-blend-mode:soft-light" opacity="0.3">
<path d="M257.568 373.903L228.48 391.72L221.414 359.176L238.31 343.125L257.568 373.903Z" fill="#92AECA"/>
</g>
<g style="mix-blend-mode:soft-light">
<path d="M346.618 297.776L287.731 345.43L282.278 332.278L344.083 291.363L346.618 297.776Z" fill="#A5A895"/>
</g>
<g style="mix-blend-mode:soft-light">
<path d="M275.328 301.461L249.965 328.629L254.17 338.479L277.037 307.605L275.328 301.461Z" fill="#A5A895"/>
</g>
<path style="mix-blend-mode:multiply" opacity="0.5" d="M363.244 339.767L335.539 306.762L329.126 311.946L310.732 347.427V367.415L332.908 411.498L370.137 424.746L382.272 422.442L370.982 371.581L346.502 342.435H338.342L325.9 351.402L331.238 385.002L340.857 388.823H355.084L354.086 386.941L346.617 387.498L335.308 379.338L329.817 364.17L328.569 352.554L339.552 344.087L346.502 345.431L367.008 369.507L372.806 391.722L375.782 416.106L369.83 420.349L341.74 413.283L333.907 409.52L313.19 364.17L313.497 349.271L335.308 323.85L342.681 322.218L360.576 343.127L367.795 351.248L363.244 339.767Z" fill="url(#paint65_linear_869_757)"/>
<path style="mix-blend-mode:screen" opacity="0.78" d="M576.211 486.262L502.214 483.363L448.377 449.821L402.777 385.309L409.056 403.434L469.267 473.994L426.451 460.016L409.056 437.245L384.595 361.77L464.486 388.035L576.211 486.262Z" fill="url(#paint66_radial_869_757)"/>
<path style="mix-blend-mode:screen" opacity="0.5" d="M335.865 270.626L375.475 370.658L405.926 495.785L388.339 531.209L346.924 488.066L282.278 332.277L276.019 275.714L253.171 222.012L335.865 270.626Z" fill="url(#paint67_radial_869_757)"/>
<path d="M1451.33 532.167L1606.96 359.155L1680.88 345.043L1690.48 352.8V366.567L1745.28 323.367L1830.91 286.656L1861.36 405.6V530.4L1451.33 532.167Z" fill="url(#paint68_linear_869_757)"/>
<path style="mix-blend-mode:multiply" opacity="0.8" d="M1680.88 345.043L1665.52 414.566L1578.09 476.39V462.854L1499.77 516.096L1574 489.542L1638.7 479.846L1606.96 530.4H1635.11L1690.48 366.566V352.8L1680.88 345.043Z" fill="url(#paint69_linear_869_757)"/>
<path style="mix-blend-mode:multiply" opacity="0.8" d="M1830.91 286.656V348.519L1772.03 465.101L1680.88 516.096L1662.32 513.735L1653.41 476.275L1635.11 530.4L1746.8 532.167L1756.68 489.543L1837.36 406.042L1843.45 410.88L1817.84 532.167L1861.36 530.4V405.6L1830.91 286.656Z" fill="url(#paint70_linear_869_757)"/>
<path style="mix-blend-mode:multiply" opacity="0.8" d="M1655.92 530.4L1653.41 476.275L1672.57 419.597L1665.52 414.566L1578.09 476.39L1583.71 488.083L1638.7 479.846L1606.96 530.4H1655.92Z" fill="url(#paint71_linear_869_757)"/>
<path style="mix-blend-mode:multiply" opacity="0.8" d="M1837.36 406.043L1843.45 410.881L1861.36 437.665V405.601L1830.91 348.52L1773.77 461.646L1777.42 468.059L1837.36 406.043Z" fill="url(#paint72_linear_869_757)"/>
<g style="mix-blend-mode:soft-light" opacity="0.5">
<path d="M1557.12 414.566L1655.92 421.075L1639.43 433.018L1548.83 423.802L1557.12 414.566Z" fill="#A5A895"/>
</g>
<g style="mix-blend-mode:soft-light" opacity="0.5">
<path d="M1568.1 402.355L1660.19 418.349L1665.52 414.566L1572.81 397.133L1568.1 402.355Z" fill="#A5A895"/>
</g>
<g style="mix-blend-mode:soft-light" opacity="0.5">
<path d="M1828.55 353.203L1759.05 359.155L1690.48 366.566L1688.41 372.71L1809.45 362.957V365.76L1685.41 381.562L1680.59 395.827L1787.69 407.731V414.566L1677.87 403.872L1675.51 410.88L1789.88 429.773L1828.55 353.203Z" fill="#A5A895"/>
</g>
<g style="mix-blend-mode:soft-light">
<path d="M1560.35 474.914L1497.45 480.924L1467.94 513.736H1503.24L1560.35 474.914Z" fill="#A5A895"/>
</g>
<g style="mix-blend-mode:soft-light" opacity="0.5">
<path d="M1672.19 384.365L1656.35 371.213L1606.96 359.155L1680.88 345.043L1672.19 384.365Z" fill="#92AECA"/>
</g>
<g style="mix-blend-mode:soft-light" opacity="0.5">
<path d="M1830.91 348.519L1787.69 336.48H1728.63L1745.28 323.367L1830.91 286.656V348.519Z" fill="#92AECA"/>
</g>
<path style="mix-blend-mode:multiply" opacity="0.8" d="M1741.36 477.101V465.466L1756.69 423.802L1779.78 373.383L1748.24 425.242L1741.36 458.919L1727.92 489.792L1740.21 482.919L1741.36 477.101Z" fill="url(#paint73_linear_869_757)"/>
<path style="mix-blend-mode:multiply" opacity="0.8" d="M1578.09 462.857L1578.64 444.866L1584.4 421.077L1589.82 379.375L1576.32 433.02V464.066L1578.09 462.857Z" fill="url(#paint74_linear_869_757)"/>
<g style="mix-blend-mode:soft-light">
<path d="M1719.8 494.324L1655.39 484.57L1658.36 497.05L1709.63 500.026L1719.8 494.324Z" fill="#A5A895"/>
</g>
<g style="mix-blend-mode:soft-light">
<path d="M1831.14 469.133L1756.69 489.542L1753.84 501.773L1821.73 513.734L1831.14 469.133Z" fill="#A5A895"/>
</g>
<path style="mix-blend-mode:screen" opacity="0.78" d="M1589.82 379.375L1576.32 433.02V464.066L1503.24 513.737H1467.94L1589.82 379.375Z" fill="url(#paint75_radial_869_757)"/>
</g>
</g>
<defs>
<linearGradient id="paint0_linear_869_757" x1="960" y1="476.392" x2="960" y2="2.80469" gradientUnits="userSpaceOnUse">
<stop offset="0.02" stop-color="#6BA1DF"/>
<stop offset="0.18" stop-color="#696FCB"/>
<stop offset="0.4" stop-color="#6527AE"/>
<stop offset="0.69" stop-color="#3C1576"/>
<stop offset="1" stop-color="#0C0033"/>
</linearGradient>
<linearGradient id="paint1_linear_869_757" x1="960" y1="476.391" x2="960" y2="4.32031" gradientUnits="userSpaceOnUse">
<stop stop-color="#BEB8CB"/>
<stop offset="1" stop-color="#925CBF"/>
</linearGradient>
<linearGradient id="paint2_linear_869_757" x1="960" y1="530.4" x2="960" y2="290.016" gradientUnits="userSpaceOnUse">
<stop stop-color="#1B0834"/>
<stop offset="1" stop-color="#261B5B"/>
</linearGradient>
<linearGradient id="paint3_linear_869_757" x1="1920" y1="410.208" x2="1117.06" y2="410.208" gradientUnits="userSpaceOnUse">
<stop stop-color="#4C335C"/>
<stop offset="1" stop-color="#472484"/>
</linearGradient>
<linearGradient id="paint4_linear_869_757" x1="464911" y1="77467.9" x2="789792" y2="77467.9" gradientUnits="userSpaceOnUse">
<stop stop-color="#4C335C"/>
<stop offset="1" stop-color="#472484"/>
</linearGradient>
<linearGradient id="paint5_linear_869_757" x1="1551.65" y1="3997.81" x2="72220" y2="3997.81" gradientUnits="userSpaceOnUse">
<stop stop-color="#4C335C"/>
<stop offset="1" stop-color="#472484"/>
</linearGradient>
<linearGradient id="paint6_linear_869_757" x1="165506" y1="29533.8" x2="205741" y2="29533.8" gradientUnits="userSpaceOnUse">
<stop stop-color="#4C335C"/>
<stop offset="1" stop-color="#472484"/>
</linearGradient>
<linearGradient id="paint7_linear_869_757" x1="18140.1" y1="13547.4" x2="28093.4" y2="13547.4" gradientUnits="userSpaceOnUse">
<stop stop-color="#4C335C"/>
<stop offset="1" stop-color="#472484"/>
</linearGradient>
<linearGradient id="paint8_linear_869_757" x1="13536.1" y1="25645.7" x2="15046.8" y2="25645.7" gradientUnits="userSpaceOnUse">
<stop stop-color="#4C335C"/>
<stop offset="1" stop-color="#472484"/>
</linearGradient>
<linearGradient id="paint9_linear_869_757" x1="8738.88" y1="14344.5" x2="49665.6" y2="14344.5" gradientUnits="userSpaceOnUse">
<stop stop-color="#4C335C"/>
<stop offset="1" stop-color="#472484"/>
</linearGradient>
<linearGradient id="paint10_linear_869_757" x1="11573.4" y1="6290.35" x2="18913.5" y2="6290.35" gradientUnits="userSpaceOnUse">
<stop stop-color="#4C335C"/>
<stop offset="1" stop-color="#472484"/>
</linearGradient>
<linearGradient id="paint11_linear_869_757" x1="1065.79" y1="502.812" x2="1065.79" y2="271.816" gradientUnits="userSpaceOnUse">
<stop stop-color="#220936"/>
<stop offset="1" stop-color="#331469"/>
</linearGradient>
<linearGradient id="paint12_linear_869_757" x1="51287.1" y1="23337.4" x2="51287.1" y2="19371.3" gradientUnits="userSpaceOnUse">
<stop stop-color="#1B0834"/>
<stop offset="1" stop-color="#261B5B"/>
</linearGradient>
<linearGradient id="paint13_linear_869_757" x1="257760" y1="88853.3" x2="257760" y2="61299.7" gradientUnits="userSpaceOnUse">
<stop stop-color="#1B0834"/>
<stop offset="1" stop-color="#261B5B"/>
</linearGradient>
<linearGradient id="paint14_linear_869_757" x1="840.519" y1="502.812" x2="840.519" y2="368.969" gradientUnits="userSpaceOnUse">
<stop stop-color="#170033"/>
<stop offset="1" stop-color="#271339"/>
</linearGradient>
<linearGradient id="paint15_linear_869_757" x1="965.702" y1="502.812" x2="965.702" y2="271.145" gradientUnits="userSpaceOnUse">
<stop stop-color="#2D1351"/>
<stop offset="1" stop-color="#573589"/>
</linearGradient>
<linearGradient id="paint16_linear_869_757" x1="70358.3" y1="18554.7" x2="70358.3" y2="17400.4" gradientUnits="userSpaceOnUse">
<stop stop-color="#170033"/>
<stop offset="1" stop-color="#271339"/>
</linearGradient>
<linearGradient id="paint17_linear_869_757" x1="151417" y1="27549.1" x2="151417" y2="23537.4" gradientUnits="userSpaceOnUse">
<stop stop-color="#170033"/>
<stop offset="1" stop-color="#271339"/>
</linearGradient>
<linearGradient id="paint18_linear_869_757" x1="-143046" y1="79998" x2="-376596" y2="79998" gradientUnits="userSpaceOnUse">
<stop stop-color="#4C335C"/>
<stop offset="1" stop-color="#472484"/>
</linearGradient>
<linearGradient id="paint19_linear_869_757" x1="-118005" y1="59254.2" x2="-197963" y2="59254.2" gradientUnits="userSpaceOnUse">
<stop stop-color="#4C335C"/>
<stop offset="1" stop-color="#472484"/>
</linearGradient>
<linearGradient id="paint20_linear_869_757" x1="55223.8" y1="21538.4" x2="85276.6" y2="21538.4" gradientUnits="userSpaceOnUse">
<stop stop-color="#4C335C"/>
<stop offset="1" stop-color="#472484"/>
</linearGradient>
<linearGradient id="paint21_linear_869_757" x1="10644.9" y1="25852.1" x2="10864.3" y2="25852.1" gradientUnits="userSpaceOnUse">
<stop stop-color="#4C335C"/>
<stop offset="1" stop-color="#472484"/>
</linearGradient>
<linearGradient id="paint22_linear_869_757" x1="52715.3" y1="14381.2" x2="58080.1" y2="14381.2" gradientUnits="userSpaceOnUse">
<stop stop-color="#4C335C"/>
<stop offset="1" stop-color="#472484"/>
</linearGradient>
<linearGradient id="paint23_linear_869_757" x1="883.258" y1="384.942" x2="801.754" y2="384.942" gradientUnits="userSpaceOnUse">
<stop stop-color="#6A5790"/>
<stop offset="1" stop-color="#8055B5"/>
</linearGradient>
<linearGradient id="paint24_linear_869_757" x1="16402.3" y1="2174.28" x2="16781.8" y2="2174.28" gradientUnits="userSpaceOnUse">
<stop stop-color="#6A5790"/>
<stop offset="1" stop-color="#8055B5"/>
</linearGradient>
<linearGradient id="paint25_linear_869_757" x1="-223162" y1="49090.4" x2="-368853" y2="49090.4" gradientUnits="userSpaceOnUse">
<stop stop-color="#4C335C"/>
<stop offset="1" stop-color="#472484"/>
</linearGradient>
<linearGradient id="paint26_linear_869_757" x1="72329.4" y1="17317.2" x2="79819.8" y2="17317.2" gradientUnits="userSpaceOnUse">
<stop stop-color="#4C335C"/>
<stop offset="1" stop-color="#472484"/>
</linearGradient>
<linearGradient id="paint27_linear_869_757" x1="95985.7" y1="25234.7" x2="122130" y2="25234.7" gradientUnits="userSpaceOnUse">
<stop stop-color="#4C335C"/>
<stop offset="1" stop-color="#472484"/>
</linearGradient>
<linearGradient id="paint28_linear_869_757" x1="40426.3" y1="13128.1" x2="43830.2" y2="13128.1" gradientUnits="userSpaceOnUse">
<stop stop-color="#4C335C"/>
<stop offset="1" stop-color="#472484"/>
</linearGradient>
<linearGradient id="paint29_linear_869_757" x1="78664.8" y1="6923.77" x2="89798.6" y2="6923.77" gradientUnits="userSpaceOnUse">
<stop stop-color="#4C335C"/>
<stop offset="1" stop-color="#472484"/>
</linearGradient>
<linearGradient id="paint30_linear_869_757" x1="35800.2" y1="32570.8" x2="42359.7" y2="32570.8" gradientUnits="userSpaceOnUse">
<stop stop-color="#4C335C"/>
<stop offset="1" stop-color="#472484"/>
</linearGradient>
<linearGradient id="paint31_linear_869_757" x1="12921.9" y1="3609.91" x2="13404.9" y2="3609.91" gradientUnits="userSpaceOnUse">
<stop stop-color="#4C335C"/>
<stop offset="1" stop-color="#472484"/>
</linearGradient>
<linearGradient id="paint32_linear_869_757" x1="145752" y1="12820.3" x2="197657" y2="12820.3" gradientUnits="userSpaceOnUse">
<stop stop-color="#4C335C"/>
<stop offset="1" stop-color="#472484"/>
</linearGradient>
<linearGradient id="paint33_linear_869_757" x1="37993.7" y1="6619.67" x2="39996.8" y2="6619.67" gradientUnits="userSpaceOnUse">
<stop stop-color="#6A5790"/>
<stop offset="1" stop-color="#8055B5"/>
</linearGradient>
<linearGradient id="paint34_linear_869_757" x1="9128.19" y1="18074.1" x2="9601.46" y2="18074.1" gradientUnits="userSpaceOnUse">
<stop stop-color="#4C335C"/>
<stop offset="1" stop-color="#472484"/>
</linearGradient>
<linearGradient id="paint35_linear_869_757" x1="31264.6" y1="8994.11" x2="33080.1" y2="8994.11" gradientUnits="userSpaceOnUse">
<stop stop-color="#4C335C"/>
<stop offset="1" stop-color="#472484"/>
</linearGradient>
<linearGradient id="paint36_linear_869_757" x1="28220.7" y1="10773.1" x2="29628.7" y2="10773.1" gradientUnits="userSpaceOnUse">
<stop stop-color="#4C335C"/>
<stop offset="1" stop-color="#472484"/>
</linearGradient>
<linearGradient id="paint37_linear_869_757" x1="42465" y1="2178.76" x2="46327.1" y2="2178.76" gradientUnits="userSpaceOnUse">
<stop stop-color="#4C335C"/>
<stop offset="1" stop-color="#472484"/>
</linearGradient>
<linearGradient id="paint38_linear_869_757" x1="69792.5" y1="9859.99" x2="79085.3" y2="9859.99" gradientUnits="userSpaceOnUse">
<stop stop-color="#4C335C"/>
<stop offset="1" stop-color="#472484"/>
</linearGradient>
<linearGradient id="paint39_linear_869_757" x1="97949.5" y1="30824.1" x2="97949.5" y2="23859" gradientUnits="userSpaceOnUse">
<stop stop-color="#1B0834"/>
<stop offset="1" stop-color="#261B5B"/>
</linearGradient>
<linearGradient id="paint40_linear_869_757" x1="82950.7" y1="17986.5" x2="82950.7" y2="16454.8" gradientUnits="userSpaceOnUse">
<stop stop-color="#170033"/>
<stop offset="1" stop-color="#271339"/>
</linearGradient>
<linearGradient id="paint41_linear_869_757" x1="20315.5" y1="23084.3" x2="21185.7" y2="23084.3" gradientUnits="userSpaceOnUse">
<stop stop-color="#4C335C"/>
<stop offset="1" stop-color="#472484"/>
</linearGradient>
<linearGradient id="paint42_linear_869_757" x1="145121" y1="15820.8" x2="183673" y2="15820.8" gradientUnits="userSpaceOnUse">
<stop stop-color="#170033"/>
<stop offset="1" stop-color="#271339"/>
</linearGradient>
<linearGradient id="paint43_linear_869_757" x1="58988.6" y1="11619.8" x2="64381.9" y2="11619.8" gradientUnits="userSpaceOnUse">
<stop stop-color="#4C335C"/>
<stop offset="1" stop-color="#472484"/>
</linearGradient>
<linearGradient id="paint44_linear_869_757" x1="21760" y1="27515.5" x2="21760" y2="24931.6" gradientUnits="userSpaceOnUse">
<stop stop-color="#2D1351"/>
<stop offset="1" stop-color="#573589"/>
</linearGradient>
<linearGradient id="paint45_linear_869_757" x1="34086.8" y1="25987.4" x2="38892.6" y2="25987.4" gradientUnits="userSpaceOnUse">
<stop stop-color="#4C335C"/>
<stop offset="1" stop-color="#472484"/>
</linearGradient>
<linearGradient id="paint46_linear_869_757" x1="-66978.9" y1="22354.3" x2="-73737.4" y2="22354.3" gradientUnits="userSpaceOnUse">
<stop stop-color="#4C335C"/>
<stop offset="1" stop-color="#472484"/>
</linearGradient>
<linearGradient id="paint47_linear_869_757" x1="28238" y1="12881.8" x2="35033" y2="12881.8" gradientUnits="userSpaceOnUse">
<stop stop-color="#4C335C"/>
<stop offset="1" stop-color="#472484"/>
</linearGradient>
<linearGradient id="paint48_linear_869_757" x1="865.881" y1="271.815" x2="865.881" y2="211.258" gradientUnits="userSpaceOnUse">
<stop stop-color="#411440"/>
<stop offset="1" stop-color="#362C68"/>
</linearGradient>
<linearGradient id="paint49_linear_869_757" x1="15267.1" y1="4045.69" x2="15267.1" y2="3936.53" gradientUnits="userSpaceOnUse">
<stop stop-color="#2D1351"/>
<stop offset="1" stop-color="#573589"/>
</linearGradient>
<linearGradient id="paint50_linear_869_757" x1="1085.41" y1="271.817" x2="1085.41" y2="207.746" gradientUnits="userSpaceOnUse">
<stop stop-color="#2B133E"/>
<stop offset="1" stop-color="#50336D"/>
</linearGradient>
<linearGradient id="paint51_linear_869_757" x1="-48259.7" y1="16124" x2="-56094.5" y2="16124" gradientUnits="userSpaceOnUse">
<stop stop-color="#4C335C"/>
<stop offset="1" stop-color="#472484"/>
</linearGradient>
<linearGradient id="paint52_linear_869_757" x1="50179.8" y1="6455.83" x2="58014.6" y2="6455.83" gradientUnits="userSpaceOnUse">
<stop stop-color="#4C335C"/>
<stop offset="1" stop-color="#472484"/>
</linearGradient>
<linearGradient id="paint53_linear_869_757" x1="470.612" y1="532.17" x2="470.612" y2="361.77" gradientUnits="userSpaceOnUse">
<stop stop-color="#15042C"/>
<stop offset="1" stop-color="#402766"/>
</linearGradient>
<linearGradient id="paint54_linear_869_757" x1="151244" y1="61117.9" x2="175536" y2="61117.9" gradientUnits="userSpaceOnUse">
<stop stop-color="#4C335C"/>
<stop offset="1" stop-color="#472484"/>
</linearGradient>
<linearGradient id="paint55_linear_869_757" x1="32236" y1="20883.9" x2="33129.3" y2="20883.9" gradientUnits="userSpaceOnUse">
<stop stop-color="#4C335C"/>
<stop offset="1" stop-color="#472484"/>
</linearGradient>
<linearGradient id="paint56_linear_869_757" x1="46207.7" y1="31698.7" x2="48232" y2="31698.7" gradientUnits="userSpaceOnUse">
<stop stop-color="#4C335C"/>
<stop offset="1" stop-color="#472484"/>
</linearGradient>
<linearGradient id="paint57_linear_869_757" x1="53868.7" y1="61117.9" x2="56350.1" y2="61117.9" gradientUnits="userSpaceOnUse">
<stop stop-color="#4C335C"/>
<stop offset="1" stop-color="#472484"/>
</linearGradient>
<linearGradient id="paint58_linear_869_757" x1="174996" y1="127533" x2="174996" y2="75333.6" gradientUnits="userSpaceOnUse">
<stop stop-color="#15042C"/>
<stop offset="1" stop-color="#402766"/>
</linearGradient>
<linearGradient id="paint59_linear_869_757" x1="-161675" y1="101404" x2="-184474" y2="101404" gradientUnits="userSpaceOnUse">
<stop stop-color="#4C335C"/>
<stop offset="1" stop-color="#472484"/>
</linearGradient>
<linearGradient id="paint60_linear_869_757" x1="72486.8" y1="75965.7" x2="76294" y2="75965.7" gradientUnits="userSpaceOnUse">
<stop stop-color="#4C335C"/>
<stop offset="1" stop-color="#472484"/>
</linearGradient>
<linearGradient id="paint61_linear_869_757" x1="32912.8" y1="72106.7" x2="33648.1" y2="72106.7" gradientUnits="userSpaceOnUse">
<stop stop-color="#4C335C"/>
<stop offset="1" stop-color="#472484"/>
</linearGradient>
<linearGradient id="paint62_linear_869_757" x1="46546.1" y1="14997.2" x2="48051.4" y2="14997.2" gradientUnits="userSpaceOnUse">
<stop stop-color="#4C335C"/>
<stop offset="1" stop-color="#472484"/>
</linearGradient>
<linearGradient id="paint63_linear_869_757" x1="84891.2" y1="70550.6" x2="90750" y2="70550.6" gradientUnits="userSpaceOnUse">
<stop stop-color="#4C335C"/>
<stop offset="1" stop-color="#472484"/>
</linearGradient>
<linearGradient id="paint64_linear_869_757" x1="25081" y1="28037" x2="25522.3" y2="28037" gradientUnits="userSpaceOnUse">
<stop stop-color="#4C335C"/>
<stop offset="1" stop-color="#472484"/>
</linearGradient>
<linearGradient id="paint65_linear_869_757" x1="57606.5" y1="37382" x2="60272" y2="37382" gradientUnits="userSpaceOnUse">
<stop stop-color="#4C335C"/>
<stop offset="1" stop-color="#472484"/>
</linearGradient>
<radialGradient id="paint66_radial_869_757" cx="0" cy="0" r="1" gradientUnits="userSpaceOnUse" gradientTransform="translate(480.403 424.016) rotate(180) scale(80.7936)">
<stop stop-color="#3B1683"/>
<stop offset="1" stop-color="#1D0024"/>
</radialGradient>
<radialGradient id="paint67_radial_869_757" cx="0" cy="0" r="1" gradientUnits="userSpaceOnUse" gradientTransform="translate(126789 99134.1) scale(9699.95 19634)">
<stop stop-color="#3B1683"/>
<stop offset="1" stop-color="#1D0024"/>
</radialGradient>
<linearGradient id="paint68_linear_869_757" x1="57757.4" y1="98716.7" x2="57757.4" y2="67320.8" gradientUnits="userSpaceOnUse">
<stop stop-color="#15042C"/>
<stop offset="1" stop-color="#402766"/>
</linearGradient>
<linearGradient id="paint69_linear_869_757" x1="24297.7" y1="65540.6" x2="43241.3" y2="65540.6" gradientUnits="userSpaceOnUse">
<stop stop-color="#4C335C"/>
<stop offset="1" stop-color="#472484"/>
</linearGradient>
<linearGradient id="paint70_linear_869_757" x1="8544.87" y1="83018.8" x2="35206.5" y2="83018.8" gradientUnits="userSpaceOnUse">
<stop stop-color="#4C335C"/>
<stop offset="1" stop-color="#472484"/>
</linearGradient>
<linearGradient id="paint71_linear_869_757" x1="13754.1" y1="43253.3" x2="18403.7" y2="43253.3" gradientUnits="userSpaceOnUse">
<stop stop-color="#4C335C"/>
<stop offset="1" stop-color="#472484"/>
</linearGradient>
<linearGradient id="paint72_linear_869_757" x1="4448.78" y1="40561.5" x2="8444.65" y2="40561.5" gradientUnits="userSpaceOnUse">
<stop stop-color="#4C335C"/>
<stop offset="1" stop-color="#472484"/>
</linearGradient>
<linearGradient id="paint73_linear_869_757" x1="5515.19" y1="40945.6" x2="6915.9" y2="40945.6" gradientUnits="userSpaceOnUse">
<stop stop-color="#4C335C"/>
<stop offset="1" stop-color="#472484"/>
</linearGradient>
<linearGradient id="paint74_linear_869_757" x1="3897.54" y1="29461.5" x2="3992.29" y2="29461.5" gradientUnits="userSpaceOnUse">
<stop stop-color="#4C335C"/>
<stop offset="1" stop-color="#472484"/>
</linearGradient>
<radialGradient id="paint75_radial_869_757" cx="0" cy="0" r="1" gradientUnits="userSpaceOnUse" gradientTransform="translate(26296.5 48256.4) scale(4072.07 4489.02)">
<stop stop-color="#3B1683"/>
<stop offset="1" stop-color="#1D0024"/>
</radialGradient>
<clipPath id="clip0_869_757">
<rect width="1920" height="530" fill="white"/>
</clipPath>
<clipPath id="clip1_869_757">
<rect width="1920" height="533.568" fill="white" transform="translate(0 1)"/>
</clipPath>
</defs>
</svg>
