<svg width="18rem" height="8rem" viewBox="0 0 376 137" fill="none" xmlns="http://www.w3.org/2000/svg">
<g filter="url(#filter0_f_217_2)">
<rect x="30" y="30" width="316" height="77" rx="10" fill="url(#paint0_linear_217_2)"/>
</g>
<path d="M128.804 79L122.648 70C124.256 69.4 125.552 68.464 126.536 67.192C127.544 65.896 128.048 64.228 128.048 62.188V62.116C128.048 59.5 127.208 57.46 125.528 55.996C123.872 54.532 121.544 53.8 118.544 53.8H107.024V79H112.568V70.936H116.924L122.324 79H128.804ZM122.432 62.476C122.432 63.556 122.06 64.42 121.316 65.068C120.596 65.716 119.552 66.04 118.184 66.04H112.568V58.804H118.076C119.444 58.804 120.512 59.104 121.28 59.704C122.048 60.304 122.432 61.204 122.432 62.404V62.476ZM152.264 69.892V69.82C152.264 68.452 152.072 67.144 151.688 65.896C151.328 64.624 150.752 63.508 149.96 62.548C149.192 61.564 148.22 60.784 147.044 60.208C145.868 59.632 144.476 59.344 142.868 59.344C141.452 59.344 140.156 59.608 138.98 60.136C137.828 60.664 136.832 61.384 135.992 62.296C135.152 63.208 134.492 64.276 134.012 65.5C133.556 66.724 133.328 68.02 133.328 69.388V69.46C133.328 70.948 133.58 72.304 134.084 73.528C134.588 74.728 135.284 75.772 136.172 76.66C137.084 77.548 138.152 78.232 139.376 78.712C140.624 79.192 141.968 79.432 143.408 79.432C145.16 79.432 146.684 79.12 147.98 78.496C149.276 77.848 150.38 76.96 151.292 75.832L148.16 73.06C147.392 73.756 146.648 74.26 145.928 74.572C145.208 74.884 144.392 75.04 143.48 75.04C142.256 75.04 141.224 74.728 140.384 74.104C139.568 73.456 139.028 72.508 138.764 71.26H152.192C152.216 70.996 152.228 70.768 152.228 70.576C152.252 70.384 152.264 70.156 152.264 69.892ZM146.936 67.84H138.692C138.908 66.592 139.364 65.596 140.06 64.852C140.78 64.108 141.716 63.736 142.868 63.736C144.02 63.736 144.944 64.12 145.64 64.888C146.336 65.632 146.768 66.616 146.936 67.84ZM177.546 74.644V59.704H172.074V62.224C171.33 61.408 170.478 60.724 169.518 60.172C168.558 59.62 167.334 59.344 165.846 59.344C164.742 59.344 163.674 59.548 162.642 59.956C161.61 60.34 160.698 60.916 159.906 61.684C159.114 62.452 158.478 63.4 157.998 64.528C157.518 65.632 157.278 66.904 157.278 68.344V68.416C157.278 69.856 157.506 71.14 157.962 72.268C158.442 73.372 159.078 74.308 159.87 75.076C160.662 75.844 161.574 76.432 162.606 76.84C163.638 77.224 164.718 77.416 165.846 77.416C167.31 77.416 168.522 77.14 169.482 76.588C170.442 76.036 171.33 75.268 172.146 74.284V75.22C172.146 76.948 171.69 78.256 170.778 79.144C169.89 80.032 168.51 80.476 166.638 80.476C165.342 80.476 164.178 80.32 163.146 80.008C162.138 79.696 161.13 79.264 160.122 78.712L158.25 82.816C159.474 83.464 160.806 83.956 162.246 84.292C163.686 84.652 165.198 84.832 166.782 84.832C168.582 84.832 170.154 84.64 171.498 84.256C172.842 83.872 173.958 83.272 174.846 82.456C175.758 81.64 176.43 80.584 176.862 79.288C177.318 78.016 177.546 76.468 177.546 74.644ZM172.146 68.416C172.146 69.064 172.026 69.664 171.786 70.216C171.546 70.768 171.21 71.248 170.778 71.656C170.37 72.04 169.878 72.34 169.302 72.556C168.726 72.772 168.102 72.88 167.43 72.88C166.086 72.88 164.97 72.472 164.082 71.656C163.194 70.84 162.75 69.76 162.75 68.416V68.344C162.75 67.696 162.87 67.096 163.11 66.544C163.35 65.992 163.674 65.524 164.082 65.14C164.514 64.732 165.006 64.42 165.558 64.204C166.134 63.988 166.758 63.88 167.43 63.88C168.102 63.88 168.726 63.988 169.302 64.204C169.878 64.42 170.37 64.732 170.778 65.14C171.21 65.524 171.546 65.992 171.786 66.544C172.026 67.096 172.146 67.696 172.146 68.344V68.416ZM190.103 57.58V52.72H184.343V57.58H190.103ZM189.959 79V59.704H184.487V79H189.959ZM211.046 73.132V73.06C211.046 72.172 210.866 71.416 210.506 70.792C210.146 70.168 209.69 69.64 209.138 69.208C208.586 68.776 207.962 68.416 207.266 68.128C206.57 67.816 205.886 67.552 205.214 67.336C204.686 67.168 204.182 67 203.702 66.832C203.246 66.664 202.838 66.496 202.478 66.328C202.118 66.136 201.83 65.944 201.614 65.752C201.398 65.536 201.29 65.296 201.29 65.032V64.96C201.29 64.576 201.458 64.264 201.794 64.024C202.13 63.76 202.634 63.628 203.306 63.628C204.002 63.628 204.806 63.796 205.718 64.132C206.63 64.444 207.566 64.876 208.526 65.428L210.614 61.648C209.558 60.952 208.394 60.412 207.122 60.028C205.874 59.62 204.638 59.416 203.414 59.416C202.43 59.416 201.506 59.548 200.642 59.812C199.802 60.076 199.058 60.472 198.41 61C197.786 61.528 197.282 62.176 196.898 62.944C196.538 63.688 196.358 64.552 196.358 65.536V65.608C196.358 66.544 196.526 67.336 196.862 67.984C197.222 68.632 197.678 69.184 198.23 69.64C198.782 70.072 199.394 70.432 200.066 70.72C200.762 70.984 201.446 71.212 202.118 71.404C202.646 71.572 203.15 71.728 203.63 71.872C204.11 72.016 204.53 72.172 204.89 72.34C205.274 72.484 205.574 72.664 205.79 72.88C206.006 73.096 206.114 73.348 206.114 73.636V73.708C206.114 74.14 205.922 74.488 205.538 74.752C205.178 75.016 204.602 75.148 203.81 75.148C202.898 75.148 201.914 74.956 200.858 74.572C199.826 74.188 198.782 73.612 197.726 72.844L195.386 76.444C196.682 77.452 198.038 78.196 199.454 78.676C200.894 79.132 202.298 79.36 203.666 79.36C204.698 79.36 205.658 79.24 206.546 79C207.458 78.736 208.25 78.352 208.922 77.848C209.594 77.344 210.11 76.708 210.47 75.94C210.854 75.148 211.046 74.212 211.046 73.132ZM227.604 78.208V73.816C226.764 74.272 225.864 74.5 224.904 74.5C223.728 74.5 223.14 73.876 223.14 72.628V64.384H227.676V59.704H223.14V54.772H217.668V59.704H215.364V64.384H217.668V73.528C217.668 74.656 217.8 75.592 218.064 76.336C218.352 77.056 218.736 77.644 219.216 78.1C219.72 78.556 220.308 78.868 220.98 79.036C221.676 79.228 222.444 79.324 223.284 79.324C224.196 79.324 225 79.216 225.696 79C226.392 78.808 227.028 78.544 227.604 78.208ZM251.51 69.892V69.82C251.51 68.452 251.318 67.144 250.934 65.896C250.574 64.624 249.998 63.508 249.206 62.548C248.438 61.564 247.466 60.784 246.29 60.208C245.114 59.632 243.722 59.344 242.114 59.344C240.698 59.344 239.402 59.608 238.226 60.136C237.074 60.664 236.078 61.384 235.238 62.296C234.398 63.208 233.738 64.276 233.258 65.5C232.802 66.724 232.574 68.02 232.574 69.388V69.46C232.574 70.948 232.826 72.304 233.33 73.528C233.834 74.728 234.53 75.772 235.418 76.66C236.33 77.548 237.398 78.232 238.622 78.712C239.87 79.192 241.214 79.432 242.654 79.432C244.406 79.432 245.93 79.12 247.226 78.496C248.522 77.848 249.626 76.96 250.538 75.832L247.406 73.06C246.638 73.756 245.894 74.26 245.174 74.572C244.454 74.884 243.638 75.04 242.726 75.04C241.502 75.04 240.47 74.728 239.63 74.104C238.814 73.456 238.274 72.508 238.01 71.26H251.438C251.462 70.996 251.474 70.768 251.474 70.576C251.498 70.384 251.51 70.156 251.51 69.892ZM246.182 67.84H237.938C238.154 66.592 238.61 65.596 239.306 64.852C240.026 64.108 240.962 63.736 242.114 63.736C243.266 63.736 244.19 64.12 244.886 64.888C245.582 65.632 246.014 66.616 246.182 67.84ZM269.016 65.068V59.344C267.384 59.272 266.088 59.632 265.128 60.424C264.168 61.216 263.412 62.272 262.86 63.592V59.704H257.388V79H262.86V71.872C262.86 69.544 263.376 67.828 264.408 66.724C265.464 65.62 266.904 65.068 268.728 65.068H269.016Z" fill="white"/>
<defs>
<filter id="filter0_f_217_2" x="0" y="0" width="376" height="137" filterUnits="userSpaceOnUse" color-interpolation-filters="sRGB">
<feFlood flood-opacity="0" result="BackgroundImageFix"/>
<feBlend mode="normal" in="SourceGraphic" in2="BackgroundImageFix" result="shape"/>
<feGaussianBlur stdDeviation="15" result="effect1_foregroundBlur_217_2"/>
</filter>
<linearGradient id="paint0_linear_217_2" x1="30" y1="68.5" x2="346" y2="68.5" gradientUnits="userSpaceOnUse">
<stop stop-color="#333399"/>
<stop offset="1" stop-color="#BC0397"/>
</linearGradient>
</defs>
</svg>
