<svg width="18rem" height="8rem"  viewBox="0 0 346 107" fill="none" xmlns="http://www.w3.org/2000/svg">
<g filter="url(#filter0_d_217_2)">
<rect x="15" y="15" width="316" height="77" fill="url(#paint0_linear_217_2)"/>
</g>
<path d="M113.804 64L107.648 55C109.256 54.4 110.552 53.464 111.536 52.192C112.544 50.896 113.048 49.228 113.048 47.188V47.116C113.048 44.5 112.208 42.46 110.528 40.996C108.872 39.532 106.544 38.8 103.544 38.8H92.024V64H97.568V55.936H101.924L107.324 64H113.804ZM107.432 47.476C107.432 48.556 107.06 49.42 106.316 50.068C105.596 50.716 104.552 51.04 103.184 51.04H97.568V43.804H103.076C104.444 43.804 105.512 44.104 106.28 44.704C107.048 45.304 107.432 46.204 107.432 47.404V47.476ZM137.264 54.892V54.82C137.264 53.452 137.072 52.144 136.688 50.896C136.328 49.624 135.752 48.508 134.96 47.548C134.192 46.564 133.22 45.784 132.044 45.208C130.868 44.632 129.476 44.344 127.868 44.344C126.452 44.344 125.156 44.608 123.98 45.136C122.828 45.664 121.832 46.384 120.992 47.296C120.152 48.208 119.492 49.276 119.012 50.5C118.556 51.724 118.328 53.02 118.328 54.388V54.46C118.328 55.948 118.58 57.304 119.084 58.528C119.588 59.728 120.284 60.772 121.172 61.66C122.084 62.548 123.152 63.232 124.376 63.712C125.624 64.192 126.968 64.432 128.408 64.432C130.16 64.432 131.684 64.12 132.98 63.496C134.276 62.848 135.38 61.96 136.292 60.832L133.16 58.06C132.392 58.756 131.648 59.26 130.928 59.572C130.208 59.884 129.392 60.04 128.48 60.04C127.256 60.04 126.224 59.728 125.384 59.104C124.568 58.456 124.028 57.508 123.764 56.26H137.192C137.216 55.996 137.228 55.768 137.228 55.576C137.252 55.384 137.264 55.156 137.264 54.892ZM131.936 52.84H123.692C123.908 51.592 124.364 50.596 125.06 49.852C125.78 49.108 126.716 48.736 127.868 48.736C129.02 48.736 129.944 49.12 130.64 49.888C131.336 50.632 131.768 51.616 131.936 52.84ZM162.546 59.644V44.704H157.074V47.224C156.33 46.408 155.478 45.724 154.518 45.172C153.558 44.62 152.334 44.344 150.846 44.344C149.742 44.344 148.674 44.548 147.642 44.956C146.61 45.34 145.698 45.916 144.906 46.684C144.114 47.452 143.478 48.4 142.998 49.528C142.518 50.632 142.278 51.904 142.278 53.344V53.416C142.278 54.856 142.506 56.14 142.962 57.268C143.442 58.372 144.078 59.308 144.87 60.076C145.662 60.844 146.574 61.432 147.606 61.84C148.638 62.224 149.718 62.416 150.846 62.416C152.31 62.416 153.522 62.14 154.482 61.588C155.442 61.036 156.33 60.268 157.146 59.284V60.22C157.146 61.948 156.69 63.256 155.778 64.144C154.89 65.032 153.51 65.476 151.638 65.476C150.342 65.476 149.178 65.32 148.146 65.008C147.138 64.696 146.13 64.264 145.122 63.712L143.25 67.816C144.474 68.464 145.806 68.956 147.246 69.292C148.686 69.652 150.198 69.832 151.782 69.832C153.582 69.832 155.154 69.64 156.498 69.256C157.842 68.872 158.958 68.272 159.846 67.456C160.758 66.64 161.43 65.584 161.862 64.288C162.318 63.016 162.546 61.468 162.546 59.644ZM157.146 53.416C157.146 54.064 157.026 54.664 156.786 55.216C156.546 55.768 156.21 56.248 155.778 56.656C155.37 57.04 154.878 57.34 154.302 57.556C153.726 57.772 153.102 57.88 152.43 57.88C151.086 57.88 149.97 57.472 149.082 56.656C148.194 55.84 147.75 54.76 147.75 53.416V53.344C147.75 52.696 147.87 52.096 148.11 51.544C148.35 50.992 148.674 50.524 149.082 50.14C149.514 49.732 150.006 49.42 150.558 49.204C151.134 48.988 151.758 48.88 152.43 48.88C153.102 48.88 153.726 48.988 154.302 49.204C154.878 49.42 155.37 49.732 155.778 50.14C156.21 50.524 156.546 50.992 156.786 51.544C157.026 52.096 157.146 52.696 157.146 53.344V53.416ZM175.103 42.58V37.72H169.343V42.58H175.103ZM174.959 64V44.704H169.487V64H174.959ZM196.046 58.132V58.06C196.046 57.172 195.866 56.416 195.506 55.792C195.146 55.168 194.69 54.64 194.138 54.208C193.586 53.776 192.962 53.416 192.266 53.128C191.57 52.816 190.886 52.552 190.214 52.336C189.686 52.168 189.182 52 188.702 51.832C188.246 51.664 187.838 51.496 187.478 51.328C187.118 51.136 186.83 50.944 186.614 50.752C186.398 50.536 186.29 50.296 186.29 50.032V49.96C186.29 49.576 186.458 49.264 186.794 49.024C187.13 48.76 187.634 48.628 188.306 48.628C189.002 48.628 189.806 48.796 190.718 49.132C191.63 49.444 192.566 49.876 193.526 50.428L195.614 46.648C194.558 45.952 193.394 45.412 192.122 45.028C190.874 44.62 189.638 44.416 188.414 44.416C187.43 44.416 186.506 44.548 185.642 44.812C184.802 45.076 184.058 45.472 183.41 46C182.786 46.528 182.282 47.176 181.898 47.944C181.538 48.688 181.358 49.552 181.358 50.536V50.608C181.358 51.544 181.526 52.336 181.862 52.984C182.222 53.632 182.678 54.184 183.23 54.64C183.782 55.072 184.394 55.432 185.066 55.72C185.762 55.984 186.446 56.212 187.118 56.404C187.646 56.572 188.15 56.728 188.63 56.872C189.11 57.016 189.53 57.172 189.89 57.34C190.274 57.484 190.574 57.664 190.79 57.88C191.006 58.096 191.114 58.348 191.114 58.636V58.708C191.114 59.14 190.922 59.488 190.538 59.752C190.178 60.016 189.602 60.148 188.81 60.148C187.898 60.148 186.914 59.956 185.858 59.572C184.826 59.188 183.782 58.612 182.726 57.844L180.386 61.444C181.682 62.452 183.038 63.196 184.454 63.676C185.894 64.132 187.298 64.36 188.666 64.36C189.698 64.36 190.658 64.24 191.546 64C192.458 63.736 193.25 63.352 193.922 62.848C194.594 62.344 195.11 61.708 195.47 60.94C195.854 60.148 196.046 59.212 196.046 58.132ZM212.604 63.208V58.816C211.764 59.272 210.864 59.5 209.904 59.5C208.728 59.5 208.14 58.876 208.14 57.628V49.384H212.676V44.704H208.14V39.772H202.668V44.704H200.364V49.384H202.668V58.528C202.668 59.656 202.8 60.592 203.064 61.336C203.352 62.056 203.736 62.644 204.216 63.1C204.72 63.556 205.308 63.868 205.98 64.036C206.676 64.228 207.444 64.324 208.284 64.324C209.196 64.324 210 64.216 210.696 64C211.392 63.808 212.028 63.544 212.604 63.208ZM236.51 54.892V54.82C236.51 53.452 236.318 52.144 235.934 50.896C235.574 49.624 234.998 48.508 234.206 47.548C233.438 46.564 232.466 45.784 231.29 45.208C230.114 44.632 228.722 44.344 227.114 44.344C225.698 44.344 224.402 44.608 223.226 45.136C222.074 45.664 221.078 46.384 220.238 47.296C219.398 48.208 218.738 49.276 218.258 50.5C217.802 51.724 217.574 53.02 217.574 54.388V54.46C217.574 55.948 217.826 57.304 218.33 58.528C218.834 59.728 219.53 60.772 220.418 61.66C221.33 62.548 222.398 63.232 223.622 63.712C224.87 64.192 226.214 64.432 227.654 64.432C229.406 64.432 230.93 64.12 232.226 63.496C233.522 62.848 234.626 61.96 235.538 60.832L232.406 58.06C231.638 58.756 230.894 59.26 230.174 59.572C229.454 59.884 228.638 60.04 227.726 60.04C226.502 60.04 225.47 59.728 224.63 59.104C223.814 58.456 223.274 57.508 223.01 56.26H236.438C236.462 55.996 236.474 55.768 236.474 55.576C236.498 55.384 236.51 55.156 236.51 54.892ZM231.182 52.84H222.938C223.154 51.592 223.61 50.596 224.306 49.852C225.026 49.108 225.962 48.736 227.114 48.736C228.266 48.736 229.19 49.12 229.886 49.888C230.582 50.632 231.014 51.616 231.182 52.84ZM254.016 50.068V44.344C252.384 44.272 251.088 44.632 250.128 45.424C249.168 46.216 248.412 47.272 247.86 48.592V44.704H242.388V64H247.86V56.872C247.86 54.544 248.376 52.828 249.408 51.724C250.464 50.62 251.904 50.068 253.728 50.068H254.016Z" fill="white"/>
<defs>
<filter id="filter0_d_217_2" x="0" y="0" width="346" height="107" filterUnits="userSpaceOnUse" color-interpolation-filters="sRGB">
<feFlood flood-opacity="0" result="BackgroundImageFix"/>
<feColorMatrix in="SourceAlpha" type="matrix" values="0 0 0 0 0 0 0 0 0 0 0 0 0 0 0 0 0 0 127 0" result="hardAlpha"/>
<feMorphology radius="5" operator="dilate" in="SourceAlpha" result="effect1_dropShadow_217_2"/>
<feOffset/>
<feGaussianBlur stdDeviation="5"/>
<feComposite in2="hardAlpha" operator="out"/>
<feColorMatrix type="matrix" values="0 0 0 0 1 0 0 0 0 1 0 0 0 0 1 0 0 0 0.25 0"/>
<feBlend mode="normal" in2="BackgroundImageFix" result="effect1_dropShadow_217_2"/>
<feBlend mode="normal" in="SourceGraphic" in2="effect1_dropShadow_217_2" result="shape"/>
</filter>
<linearGradient id="paint0_linear_217_2" x1="15" y1="53.5" x2="331" y2="53.5" gradientUnits="userSpaceOnUse">
<stop stop-color="#4A569D"/>
<stop offset="1" stop-color="#BC0397"/>
</linearGradient>
</defs>
</svg>
