<svg width="211" height="17" viewBox="0 0 211 17" fill="none" xmlns="http://www.w3.org/2000/svg">
<path d="M11.5576 13.9346C11.3291 14.2627 11.042 14.5762 10.6963 14.875C10.3506 15.168 9.9668 15.4258 9.54492 15.6484C9.12891 15.8711 8.68359 16.0498 8.20898 16.1846C7.74023 16.3252 7.26562 16.3984 6.78516 16.4043C6.05859 16.416 5.39648 16.3223 4.79883 16.123C4.20703 15.9297 3.67969 15.6543 3.2168 15.2969C2.75977 14.9336 2.36133 14.5 2.02148 13.9961C1.6875 13.4922 1.41211 12.9355 1.19531 12.3262C0.984375 11.7168 0.826172 11.0664 0.720703 10.375C0.621094 9.67773 0.577148 8.96289 0.588867 8.23047C0.600586 7.42773 0.679688 6.6748 0.826172 5.97168C0.972656 5.26855 1.17773 4.62109 1.44141 4.0293C1.71094 3.4375 2.03613 2.91016 2.41699 2.44727C2.79785 1.98437 3.22266 1.5918 3.69141 1.26953C4.16016 0.947266 4.66992 0.701172 5.2207 0.53125C5.77734 0.361328 6.36621 0.276367 6.9873 0.276367C7.49707 0.276367 7.98633 0.337891 8.45508 0.460938C8.92969 0.578125 9.36328 0.753906 9.75586 0.988281C10.1543 1.2168 10.5 1.50098 10.793 1.84082C11.0859 2.1748 11.3086 2.56152 11.4609 3.00098L8.82422 4.2666C8.63086 3.9209 8.3584 3.65723 8.00684 3.47559C7.65527 3.28809 7.20117 3.21484 6.64453 3.25586C6.24023 3.28516 5.84473 3.41699 5.45801 3.65137C5.07715 3.88574 4.73438 4.21094 4.42969 4.62695C4.125 5.04297 3.87598 5.54688 3.68262 6.13867C3.48926 6.72461 3.375 7.38965 3.33984 8.13379C3.29883 9.04199 3.36035 9.83301 3.52441 10.5068C3.69434 11.1807 3.93164 11.7402 4.23633 12.1855C4.54102 12.6309 4.89258 12.9648 5.29102 13.1875C5.69531 13.4102 6.11426 13.5215 6.54785 13.5215C6.78223 13.5215 7.02832 13.4834 7.28613 13.4072C7.5498 13.3252 7.80176 13.2227 8.04199 13.0996C8.28223 12.9707 8.50195 12.8301 8.70117 12.6777C8.90625 12.5195 9.07031 12.3643 9.19336 12.2119L11.5576 13.9346ZM17.6748 15.9561C16.9248 15.9619 16.251 15.8564 15.6533 15.6396C15.0557 15.4229 14.5312 15.127 14.0801 14.752C13.6348 14.3711 13.2627 13.9287 12.9639 13.4248C12.6709 12.915 12.4512 12.376 12.3047 11.8076C12.1641 11.2393 12.0938 10.6533 12.0938 10.0498C12.0938 9.44629 12.1699 8.86035 12.3223 8.29199C12.4746 7.71777 12.6973 7.17578 12.9902 6.66602C13.2891 6.15625 13.6582 5.71094 14.0977 5.33008C14.543 4.94922 15.0586 4.65039 15.6445 4.43359C16.2305 4.21094 16.8867 4.09961 17.6133 4.09961C18.3105 4.09961 18.9346 4.21094 19.4854 4.43359C20.042 4.65625 20.5283 4.95801 20.9443 5.33887C21.3604 5.71387 21.7061 6.15332 21.9814 6.65723C22.2568 7.16113 22.4619 7.69727 22.5967 8.26562C22.7373 8.82812 22.8076 9.41113 22.8076 10.0146C22.8076 10.6123 22.7373 11.1953 22.5967 11.7637C22.4619 12.332 22.2568 12.8682 21.9814 13.3721C21.7061 13.876 21.3633 14.3184 20.9531 14.6992C20.543 15.0801 20.0625 15.3848 19.5117 15.6133C18.9668 15.8359 18.3545 15.9502 17.6748 15.9561ZM17.2705 7.0791C16.8604 7.10254 16.5029 7.20508 16.1982 7.38672C15.8936 7.56836 15.6387 7.80273 15.4336 8.08984C15.2344 8.37109 15.085 8.6875 14.9854 9.03906C14.8857 9.39062 14.8359 9.75098 14.8359 10.1201C14.8418 10.4834 14.9004 10.8408 15.0117 11.1924C15.123 11.5381 15.2842 11.8486 15.4951 12.124C15.7119 12.3936 15.9814 12.6133 16.3037 12.7832C16.626 12.9473 17.0039 13.0293 17.4375 13.0293C17.8652 13.0293 18.2373 12.9443 18.5537 12.7744C18.876 12.5986 19.1396 12.3672 19.3447 12.0801C19.5557 11.793 19.7109 11.4678 19.8105 11.1045C19.9102 10.7412 19.9541 10.3721 19.9424 9.99707C19.9307 9.61621 19.8662 9.24707 19.749 8.88965C19.6318 8.52637 19.4619 8.20703 19.2393 7.93164C19.0166 7.65625 18.7412 7.43945 18.4131 7.28125C18.085 7.12305 17.7041 7.05566 17.2705 7.0791ZM27.2285 5.51465C27.3223 5.46777 27.416 5.42383 27.5098 5.38281C27.6035 5.3418 27.7002 5.30078 27.7998 5.25977C28.7725 4.86719 29.6279 4.66211 30.3662 4.64453C31.1045 4.62695 31.7314 4.80566 32.2471 5.18066C32.7686 5.55566 33.1758 6.13574 33.4688 6.9209C33.7676 7.70605 33.958 8.70801 34.04 9.92676C34.0693 10.3486 34.0898 10.7998 34.1016 11.2803C34.1191 11.7607 34.1309 12.2617 34.1367 12.7832C34.1426 13.2988 34.1396 13.832 34.1279 14.3828C34.1162 14.9336 34.0986 15.4844 34.0752 16.0352H31.166C31.1895 15.4961 31.21 14.96 31.2275 14.4268C31.251 13.8936 31.2686 13.3838 31.2803 12.8975C31.292 12.4053 31.2949 11.9482 31.2891 11.5264C31.2891 11.0986 31.2803 10.7207 31.2627 10.3926C31.2275 9.82422 31.1572 9.34082 31.0518 8.94238C30.9521 8.54395 30.7939 8.23926 30.5771 8.02832C30.3604 7.81152 30.0762 7.69727 29.7246 7.68555C29.3789 7.66797 28.9424 7.76172 28.415 7.9668C27.9697 8.13672 27.583 8.34766 27.2549 8.59961L27.2988 16.0352H24.1787C24.1846 15.7832 24.1875 15.4434 24.1875 15.0156C24.1875 14.582 24.1875 14.0957 24.1875 13.5566C24.1934 13.0176 24.1963 12.4434 24.1963 11.834C24.1963 11.2246 24.1963 10.6152 24.1963 10.0059C24.2021 9.39062 24.2051 8.79297 24.2051 8.21289C24.2051 7.63281 24.2051 7.10254 24.2051 6.62207C24.2109 6.1416 24.2139 5.72852 24.2139 5.38281C24.2197 5.03125 24.2256 4.78516 24.2314 4.64453H27.2021L27.2285 5.51465ZM37.0723 4.45996C37.0723 4.03809 37.0723 3.625 37.0723 3.2207C37.0781 2.81641 37.0811 2.4502 37.0811 2.12207C37.0869 1.78809 37.0898 1.50391 37.0898 1.26953C37.0957 1.03516 37.0986 0.874023 37.0986 0.786133H40.0693L40.0869 4.45996H42.4775V7.50098H40.1133L40.166 16.1758H37.0459C37.0459 16 37.0459 15.7422 37.0459 15.4023C37.0518 15.0566 37.0547 14.6553 37.0547 14.1982C37.0547 13.7412 37.0547 13.2402 37.0547 12.6953C37.0605 12.1504 37.0635 11.5879 37.0635 11.0078C37.0635 10.4219 37.0635 9.83301 37.0635 9.24121C37.0635 8.64355 37.0635 8.06348 37.0635 7.50098H34.7256V4.45996H37.0723ZM54.6592 16.1318H51.5391V15.4375C50.8125 15.918 50.0244 16.1641 49.1748 16.1758C48.5713 16.1816 48.0205 16.1084 47.5225 15.9561C47.0244 15.8037 46.5762 15.5928 46.1777 15.3232C45.7793 15.0479 45.4307 14.7256 45.1318 14.3564C44.8389 13.9814 44.5928 13.5771 44.3936 13.1436C44.1943 12.71 44.0391 12.2559 43.9277 11.7812C43.8223 11.3066 43.7607 10.8291 43.7432 10.3486C43.7256 9.83887 43.7607 9.3291 43.8486 8.81934C43.9424 8.30957 44.0859 7.82324 44.2793 7.36035C44.4785 6.89746 44.7305 6.4668 45.0352 6.06836C45.3457 5.66992 45.709 5.32422 46.125 5.03125C46.541 4.73828 47.0098 4.50977 47.5312 4.3457C48.0527 4.18164 48.627 4.09961 49.2539 4.09961C49.7109 4.10547 50.1357 4.1582 50.5283 4.25781C50.9209 4.35156 51.2871 4.48926 51.627 4.6709C51.627 4.64746 51.627 4.60059 51.627 4.53027C51.627 4.45996 51.627 4.38672 51.627 4.31055C51.6328 4.23438 51.6357 4.16406 51.6357 4.09961C51.6357 4.03516 51.6357 3.99414 51.6357 3.97656H54.6064L54.6592 16.1318ZM48.9111 7.0791C48.5596 7.09082 48.2402 7.17871 47.9531 7.34277C47.6719 7.50098 47.4316 7.7207 47.2324 8.00195C47.0332 8.2832 46.8809 8.61426 46.7754 8.99512C46.6758 9.37598 46.6348 9.78906 46.6523 10.2344C46.6582 10.4395 46.6816 10.6562 46.7227 10.8848C46.7695 11.1133 46.834 11.3389 46.916 11.5615C47.0039 11.7842 47.1094 11.998 47.2324 12.2031C47.3555 12.4023 47.499 12.5811 47.6631 12.7393C47.833 12.8916 48.0234 13.0146 48.2344 13.1084C48.4453 13.2021 48.6797 13.249 48.9375 13.249C49.3652 13.249 49.7432 13.1523 50.0713 12.959C50.3994 12.7656 50.6748 12.5137 50.8975 12.2031C51.1201 11.8867 51.29 11.5322 51.4072 11.1396C51.5244 10.7471 51.583 10.3545 51.583 9.96191C51.583 9.58691 51.5244 9.22363 51.4072 8.87207C51.29 8.51465 51.1172 8.20117 50.8887 7.93164C50.6602 7.65625 50.3789 7.43945 50.0449 7.28125C49.7168 7.12305 49.3389 7.05566 48.9111 7.0791ZM66.3662 13.249C66.1201 13.6299 65.8213 13.9814 65.4697 14.3037C65.1182 14.626 64.7344 14.9072 64.3184 15.1475C63.9023 15.3818 63.46 15.5664 62.9912 15.7012C62.5283 15.8359 62.0566 15.9062 61.5762 15.9121C60.8262 15.918 60.1523 15.8125 59.5547 15.5957C58.957 15.3789 58.4326 15.083 57.9814 14.708C57.5361 14.3271 57.1641 13.8848 56.8652 13.3809C56.5723 12.8711 56.3525 12.332 56.2061 11.7637C56.0654 11.1953 55.9951 10.6094 55.9951 10.0059C55.9951 9.40234 56.0713 8.81641 56.2236 8.24805C56.376 7.67383 56.5986 7.13184 56.8916 6.62207C57.1904 6.1123 57.5596 5.66699 57.999 5.28613C58.4443 4.90527 58.96 4.60645 59.5459 4.38965C60.1318 4.16699 60.7881 4.05566 61.5146 4.05566C62.0244 4.05566 62.5078 4.11133 62.9648 4.22266C63.4219 4.33398 63.8496 4.50684 64.248 4.74121C64.6523 4.97559 65.0273 5.27734 65.373 5.64648C65.7188 6.01562 66.0352 6.46094 66.3223 6.98242L63.6855 8.24805C63.5977 8.08398 63.4688 7.92578 63.2988 7.77344C63.1289 7.61523 62.9326 7.48047 62.71 7.36914C62.4873 7.25195 62.2441 7.16113 61.9805 7.09668C61.7227 7.03223 61.4531 7.01172 61.1719 7.03516C60.7676 7.06445 60.4102 7.17285 60.0996 7.36035C59.7949 7.54785 59.54 7.78516 59.335 8.07227C59.1357 8.35352 58.9863 8.67285 58.8867 9.03027C58.7871 9.38184 58.7373 9.73926 58.7373 10.1025C58.7432 10.4658 58.8018 10.8203 58.9131 11.166C59.0244 11.5059 59.1855 11.8105 59.3965 12.0801C59.6133 12.3496 59.8828 12.5693 60.2051 12.7393C60.5273 12.9033 60.9053 12.9854 61.3389 12.9854C61.5732 12.9854 61.8164 12.9561 62.0684 12.8975C62.3203 12.833 62.5635 12.7393 62.7979 12.6162C63.0381 12.4932 63.2607 12.3408 63.4658 12.1592C63.6768 11.9775 63.8555 11.7666 64.002 11.5264L66.3662 13.249ZM69.75 4.45996C69.75 4.03809 69.75 3.625 69.75 3.2207C69.7559 2.81641 69.7588 2.4502 69.7588 2.12207C69.7646 1.78809 69.7676 1.50391 69.7676 1.26953C69.7734 1.03516 69.7764 0.874023 69.7764 0.786133H72.7471L72.7646 4.45996H75.1553V7.50098H72.791L72.8438 16.1758H69.7236C69.7236 16 69.7236 15.7422 69.7236 15.4023C69.7295 15.0566 69.7324 14.6553 69.7324 14.1982C69.7324 13.7412 69.7324 13.2402 69.7324 12.6953C69.7383 12.1504 69.7412 11.5879 69.7412 11.0078C69.7412 10.4219 69.7412 9.83301 69.7412 9.24121C69.7412 8.64355 69.7412 8.06348 69.7412 7.50098H67.4033V4.45996H69.75ZM84.9902 4.45996C84.9902 4.03809 84.9902 3.625 84.9902 3.2207C84.9961 2.81641 84.999 2.4502 84.999 2.12207C85.0049 1.78809 85.0078 1.50391 85.0078 1.26953C85.0137 1.03516 85.0166 0.874023 85.0166 0.786133H87.9873L88.0049 4.45996H90.3955V7.50098H88.0312L88.084 16.1758H84.9639C84.9639 16 84.9639 15.7422 84.9639 15.4023C84.9697 15.0566 84.9727 14.6553 84.9727 14.1982C84.9727 13.7412 84.9727 13.2402 84.9727 12.6953C84.9785 12.1504 84.9814 11.5879 84.9814 11.0078C84.9814 10.4219 84.9814 9.83301 84.9814 9.24121C84.9814 8.64355 84.9814 8.06348 84.9814 7.50098H82.6436V4.45996H84.9902ZM97.2334 15.9561C96.4834 15.9619 95.8096 15.8564 95.2119 15.6396C94.6143 15.4229 94.0898 15.127 93.6387 14.752C93.1934 14.3711 92.8213 13.9287 92.5225 13.4248C92.2295 12.915 92.0098 12.376 91.8633 11.8076C91.7227 11.2393 91.6523 10.6533 91.6523 10.0498C91.6523 9.44629 91.7285 8.86035 91.8809 8.29199C92.0332 7.71777 92.2559 7.17578 92.5488 6.66602C92.8477 6.15625 93.2168 5.71094 93.6562 5.33008C94.1016 4.94922 94.6172 4.65039 95.2031 4.43359C95.7891 4.21094 96.4453 4.09961 97.1719 4.09961C97.8691 4.09961 98.4932 4.21094 99.0439 4.43359C99.6006 4.65625 100.087 4.95801 100.503 5.33887C100.919 5.71387 101.265 6.15332 101.54 6.65723C101.815 7.16113 102.021 7.69727 102.155 8.26562C102.296 8.82812 102.366 9.41113 102.366 10.0146C102.366 10.6123 102.296 11.1953 102.155 11.7637C102.021 12.332 101.815 12.8682 101.54 13.3721C101.265 13.876 100.922 14.3184 100.512 14.6992C100.102 15.0801 99.6211 15.3848 99.0703 15.6133C98.5254 15.8359 97.9131 15.9502 97.2334 15.9561ZM96.8291 7.0791C96.4189 7.10254 96.0615 7.20508 95.7568 7.38672C95.4521 7.56836 95.1973 7.80273 94.9922 8.08984C94.793 8.37109 94.6436 8.6875 94.5439 9.03906C94.4443 9.39062 94.3945 9.75098 94.3945 10.1201C94.4004 10.4834 94.459 10.8408 94.5703 11.1924C94.6816 11.5381 94.8428 11.8486 95.0537 12.124C95.2705 12.3936 95.54 12.6133 95.8623 12.7832C96.1846 12.9473 96.5625 13.0293 96.9961 13.0293C97.4238 13.0293 97.7959 12.9443 98.1123 12.7744C98.4346 12.5986 98.6982 12.3672 98.9033 12.0801C99.1143 11.793 99.2695 11.4678 99.3691 11.1045C99.4688 10.7412 99.5127 10.3721 99.501 9.99707C99.4893 9.61621 99.4248 9.24707 99.3076 8.88965C99.1904 8.52637 99.0205 8.20703 98.7979 7.93164C98.5752 7.65625 98.2998 7.43945 97.9717 7.28125C97.6436 7.12305 97.2627 7.05566 96.8291 7.0791ZM115.998 4.21387C116.678 4.21973 117.29 4.33691 117.835 4.56543C118.386 4.78809 118.866 5.08984 119.276 5.4707C119.687 5.85156 120.029 6.29395 120.305 6.79785C120.58 7.30176 120.785 7.83789 120.92 8.40625C121.061 8.97461 121.131 9.56055 121.131 10.1641C121.131 10.7617 121.061 11.3447 120.92 11.9131C120.785 12.4756 120.58 13.0088 120.305 13.5127C120.029 14.0166 119.684 14.459 119.268 14.8398C118.852 15.2148 118.365 15.5137 117.809 15.7363C117.258 15.959 116.634 16.0703 115.937 16.0703C115.386 16.0703 114.879 16.0059 114.416 15.877C113.953 15.748 113.528 15.5723 113.142 15.3496V16.1582H110.188C110.183 16.0469 110.177 15.8242 110.171 15.4902C110.171 15.1562 110.168 14.7461 110.162 14.2598C110.162 13.7676 110.162 13.2139 110.162 12.5986C110.162 11.9775 110.159 11.3242 110.153 10.6387C110.153 9.94727 110.15 9.23828 110.145 8.51172C110.145 7.78516 110.145 7.07031 110.145 6.36719C110.145 5.66406 110.142 4.98438 110.136 4.32812C110.136 3.67187 110.133 3.07422 110.127 2.53516C110.127 1.99023 110.124 1.51562 110.118 1.11133C110.118 0.707031 110.118 0.402344 110.118 0.197266H113.238L113.212 4.87305C113.599 4.66211 114.021 4.49805 114.478 4.38086C114.94 4.26367 115.447 4.20801 115.998 4.21387ZM115.594 13.0908C116.027 13.1143 116.408 13.0469 116.736 12.8887C117.064 12.7305 117.34 12.5137 117.562 12.2383C117.785 11.9629 117.955 11.6465 118.072 11.2891C118.189 10.9258 118.254 10.5566 118.266 10.1816C118.277 9.80078 118.233 9.42871 118.134 9.06543C118.034 8.70215 117.879 8.37695 117.668 8.08984C117.463 7.80273 117.199 7.57422 116.877 7.4043C116.561 7.22852 116.188 7.14062 115.761 7.14062C115.356 7.14062 114.999 7.21387 114.688 7.36035C114.384 7.50684 114.123 7.7002 113.906 7.94043C113.695 8.18066 113.528 8.45898 113.405 8.77539C113.282 9.08594 113.206 9.41113 113.177 9.75098V10.3838C113.2 10.7178 113.268 11.043 113.379 11.3594C113.496 11.6758 113.654 11.96 113.854 12.2119C114.059 12.458 114.305 12.6602 114.592 12.8184C114.879 12.9766 115.213 13.0674 115.594 13.0908ZM133.699 13.8643C133.312 14.2861 132.873 14.6523 132.381 14.9629C131.895 15.2676 131.388 15.5166 130.86 15.71C130.333 15.9033 129.8 16.041 129.261 16.123C128.728 16.2051 128.221 16.2314 127.74 16.2021C127.014 16.167 126.319 16.0088 125.657 15.7275C124.995 15.4463 124.415 15.0537 123.917 14.5498C123.419 14.04 123.023 13.4219 122.73 12.6953C122.443 11.9629 122.309 11.1279 122.326 10.1904C122.332 9.69238 122.394 9.19434 122.511 8.69629C122.628 8.19238 122.798 7.70898 123.021 7.24609C123.249 6.7832 123.527 6.34961 123.855 5.94531C124.189 5.54102 124.576 5.18945 125.016 4.89062C125.455 4.5918 125.947 4.35449 126.492 4.17871C127.043 4.00293 127.646 3.90918 128.303 3.89746C128.971 3.8916 129.571 3.98828 130.104 4.1875C130.638 4.38672 131.104 4.66211 131.502 5.01367C131.906 5.36523 132.246 5.77832 132.521 6.25293C132.797 6.72754 133.011 7.23438 133.163 7.77344C133.321 8.3125 133.421 8.87207 133.462 9.45215C133.503 10.0322 133.488 10.6035 133.418 11.166L125.191 11.1924C125.285 11.5791 125.426 11.9248 125.613 12.2295C125.801 12.5283 126.018 12.7832 126.264 12.9941C126.51 13.1992 126.782 13.3574 127.081 13.4688C127.38 13.5801 127.693 13.6387 128.021 13.6445C128.279 13.6445 128.561 13.6152 128.865 13.5566C129.176 13.498 129.486 13.4072 129.797 13.2842C130.113 13.1553 130.418 12.9971 130.711 12.8096C131.004 12.6221 131.265 12.4023 131.493 12.1504L133.699 13.8643ZM130.693 8.39746C130.646 8.12207 130.559 7.88184 130.43 7.67676C130.301 7.46582 130.14 7.29004 129.946 7.14941C129.753 7.00293 129.536 6.8916 129.296 6.81543C129.062 6.7334 128.818 6.68359 128.566 6.66602C128.262 6.64258 127.954 6.66309 127.644 6.72754C127.333 6.79199 127.043 6.89453 126.773 7.03516C126.504 7.17578 126.267 7.35449 126.062 7.57129C125.856 7.78809 125.707 8.04004 125.613 8.32715L130.693 8.39746ZM144.176 5.51465C144.27 5.46777 144.363 5.42383 144.457 5.38281C144.551 5.3418 144.647 5.30078 144.747 5.25977C145.72 4.86719 146.575 4.66211 147.313 4.64453C148.052 4.62695 148.679 4.80566 149.194 5.18066C149.716 5.55566 150.123 6.13574 150.416 6.9209C150.715 7.70605 150.905 8.70801 150.987 9.92676C151.017 10.3486 151.037 10.8027 151.049 11.2891C151.066 11.7754 151.078 12.2822 151.084 12.8096C151.09 13.3369 151.087 13.8789 151.075 14.4355C151.063 14.9922 151.046 15.5459 151.022 16.0967H148.113C148.137 15.5576 148.157 15.0186 148.175 14.4795C148.198 13.9404 148.216 13.4219 148.228 12.9238C148.239 12.4258 148.242 11.9629 148.236 11.5352C148.236 11.1016 148.228 10.7207 148.21 10.3926C148.175 9.82422 148.104 9.34082 147.999 8.94238C147.899 8.54395 147.741 8.23926 147.524 8.02832C147.308 7.81152 147.023 7.69727 146.672 7.68555C146.326 7.66797 145.89 7.76172 145.362 7.9668C144.917 8.13672 144.53 8.34766 144.202 8.59961L144.246 16.0967H141.126C141.126 15.8916 141.126 15.5898 141.126 15.1914C141.132 14.7871 141.135 14.3154 141.135 13.7764C141.141 13.2314 141.144 12.6338 141.144 11.9834C141.144 11.333 141.144 10.6562 141.144 9.95312C141.144 9.25 141.144 8.53809 141.144 7.81738C141.149 7.09082 141.152 6.3877 141.152 5.70801C141.152 5.02246 141.152 4.37207 141.152 3.75684C141.158 3.1416 141.161 2.59082 141.161 2.10449C141.161 1.6123 141.161 1.20215 141.161 0.874023C141.167 0.545898 141.173 0.323242 141.179 0.206055H144.149L144.176 5.51465ZM163.723 13.8643C163.336 14.2861 162.896 14.6523 162.404 14.9629C161.918 15.2676 161.411 15.5166 160.884 15.71C160.356 15.9033 159.823 16.041 159.284 16.123C158.751 16.2051 158.244 16.2314 157.764 16.2021C157.037 16.167 156.343 16.0088 155.681 15.7275C155.019 15.4463 154.438 15.0537 153.94 14.5498C153.442 14.04 153.047 13.4219 152.754 12.6953C152.467 11.9629 152.332 11.1279 152.35 10.1904C152.355 9.69238 152.417 9.19434 152.534 8.69629C152.651 8.19238 152.821 7.70898 153.044 7.24609C153.272 6.7832 153.551 6.34961 153.879 5.94531C154.213 5.54102 154.6 5.18945 155.039 4.89062C155.479 4.5918 155.971 4.35449 156.516 4.17871C157.066 4.00293 157.67 3.90918 158.326 3.89746C158.994 3.8916 159.595 3.98828 160.128 4.1875C160.661 4.38672 161.127 4.66211 161.525 5.01367C161.93 5.36523 162.27 5.77832 162.545 6.25293C162.82 6.72754 163.034 7.23438 163.187 7.77344C163.345 8.3125 163.444 8.87207 163.485 9.45215C163.526 10.0322 163.512 10.6035 163.441 11.166L155.215 11.1924C155.309 11.5791 155.449 11.9248 155.637 12.2295C155.824 12.5283 156.041 12.7832 156.287 12.9941C156.533 13.1992 156.806 13.3574 157.104 13.4688C157.403 13.5801 157.717 13.6387 158.045 13.6445C158.303 13.6445 158.584 13.6152 158.889 13.5566C159.199 13.498 159.51 13.4072 159.82 13.2842C160.137 13.1553 160.441 12.9971 160.734 12.8096C161.027 12.6221 161.288 12.4023 161.517 12.1504L163.723 13.8643ZM160.717 8.39746C160.67 8.12207 160.582 7.88184 160.453 7.67676C160.324 7.46582 160.163 7.29004 159.97 7.14941C159.776 7.00293 159.56 6.8916 159.319 6.81543C159.085 6.7334 158.842 6.68359 158.59 6.66602C158.285 6.64258 157.978 6.66309 157.667 6.72754C157.356 6.79199 157.066 6.89453 156.797 7.03516C156.527 7.17578 156.29 7.35449 156.085 7.57129C155.88 7.78809 155.73 8.04004 155.637 8.32715L160.717 8.39746ZM167.871 5.22461C168.117 5.07227 168.41 4.94043 168.75 4.8291C169.096 4.71777 169.465 4.63867 169.857 4.5918C170.25 4.54492 170.657 4.53613 171.079 4.56543C171.507 4.58887 171.926 4.65918 172.336 4.77637C172.746 4.8877 173.136 5.04883 173.505 5.25977C173.88 5.46484 174.217 5.72852 174.516 6.05078L173.232 8.30957C172.928 8.05762 172.597 7.86426 172.239 7.72949C171.882 7.59473 171.521 7.50391 171.158 7.45703C170.795 7.41016 170.438 7.4043 170.086 7.43945C169.74 7.47461 169.421 7.54199 169.128 7.6416C168.841 7.73535 168.592 7.8584 168.381 8.01074C168.176 8.15723 168.032 8.32129 167.95 8.50293L168.047 16.1846H164.927C164.933 15.9502 164.936 15.625 164.936 15.209C164.936 14.7871 164.936 14.3096 164.936 13.7764C164.936 13.2373 164.936 12.6602 164.936 12.0449C164.936 11.4238 164.936 10.7998 164.936 10.1729C164.936 9.54004 164.936 8.92188 164.936 8.31836C164.936 7.70898 164.933 7.14941 164.927 6.63965C164.927 6.12988 164.927 5.6875 164.927 5.3125C164.927 4.93164 164.927 4.65332 164.927 4.47754H167.897L167.871 5.22461ZM186.346 13.8643C185.959 14.2861 185.52 14.6523 185.027 14.9629C184.541 15.2676 184.034 15.5166 183.507 15.71C182.979 15.9033 182.446 16.041 181.907 16.123C181.374 16.2051 180.867 16.2314 180.387 16.2021C179.66 16.167 178.966 16.0088 178.304 15.7275C177.642 15.4463 177.062 15.0537 176.563 14.5498C176.065 14.04 175.67 13.4219 175.377 12.6953C175.09 11.9629 174.955 11.1279 174.973 10.1904C174.979 9.69238 175.04 9.19434 175.157 8.69629C175.274 8.19238 175.444 7.70898 175.667 7.24609C175.896 6.7832 176.174 6.34961 176.502 5.94531C176.836 5.54102 177.223 5.18945 177.662 4.89062C178.102 4.5918 178.594 4.35449 179.139 4.17871C179.689 4.00293 180.293 3.90918 180.949 3.89746C181.617 3.8916 182.218 3.98828 182.751 4.1875C183.284 4.38672 183.75 4.66211 184.148 5.01367C184.553 5.36523 184.893 5.77832 185.168 6.25293C185.443 6.72754 185.657 7.23438 185.81 7.77344C185.968 8.3125 186.067 8.87207 186.108 9.45215C186.149 10.0322 186.135 10.6035 186.064 11.166L177.838 11.1924C177.932 11.5791 178.072 11.9248 178.26 12.2295C178.447 12.5283 178.664 12.7832 178.91 12.9941C179.156 13.1992 179.429 13.3574 179.728 13.4688C180.026 13.5801 180.34 13.6387 180.668 13.6445C180.926 13.6445 181.207 13.6152 181.512 13.5566C181.822 13.498 182.133 13.4072 182.443 13.2842C182.76 13.1553 183.064 12.9971 183.357 12.8096C183.65 12.6221 183.911 12.4023 184.14 12.1504L186.346 13.8643ZM183.34 8.39746C183.293 8.12207 183.205 7.88184 183.076 7.67676C182.947 7.46582 182.786 7.29004 182.593 7.14941C182.399 7.00293 182.183 6.8916 181.942 6.81543C181.708 6.7334 181.465 6.68359 181.213 6.66602C180.908 6.64258 180.601 6.66309 180.29 6.72754C179.979 6.79199 179.689 6.89453 179.42 7.03516C179.15 7.17578 178.913 7.35449 178.708 7.57129C178.503 7.78809 178.354 8.04004 178.26 8.32715L183.34 8.39746ZM196.102 8.15137C195.697 8.16309 195.36 8.08984 195.091 7.93164C194.827 7.76758 194.625 7.5625 194.484 7.31641C194.35 7.07031 194.279 6.80078 194.273 6.50781C194.273 6.21484 194.338 5.94238 194.467 5.69043C194.596 5.43848 194.789 5.22754 195.047 5.05762C195.311 4.8877 195.639 4.80273 196.031 4.80273C196.389 4.80273 196.69 4.88477 196.937 5.04883C197.183 5.20703 197.37 5.40918 197.499 5.65527C197.634 5.90137 197.704 6.16797 197.71 6.45508C197.722 6.73633 197.669 7.00293 197.552 7.25488C197.44 7.50098 197.265 7.70898 197.024 7.87891C196.784 8.04883 196.477 8.13965 196.102 8.15137ZM196.119 13.0645C195.715 13.0762 195.378 13.0029 195.108 12.8447C194.845 12.6807 194.643 12.4756 194.502 12.2295C194.367 11.9834 194.297 11.7139 194.291 11.4209C194.291 11.1279 194.355 10.8555 194.484 10.6035C194.613 10.3516 194.807 10.1406 195.064 9.9707C195.328 9.80078 195.656 9.71582 196.049 9.71582C196.406 9.71582 196.708 9.79785 196.954 9.96191C197.2 10.1201 197.388 10.3223 197.517 10.5684C197.651 10.8145 197.722 11.0811 197.728 11.3682C197.739 11.6494 197.687 11.916 197.569 12.168C197.458 12.4141 197.282 12.6221 197.042 12.792C196.802 12.9619 196.494 13.0527 196.119 13.0645ZM210.454 8.11621C210.478 8.99512 210.375 9.81543 210.146 10.5771C209.918 11.3389 209.581 12.0303 209.136 12.6514C208.69 13.2725 208.143 13.8145 207.492 14.2773C206.848 14.7402 206.121 15.1152 205.312 15.4023C204.51 15.6895 203.631 15.8799 202.676 15.9736C201.727 16.0674 200.722 16.0527 199.661 15.9297V0.311523C200.657 0.217773 201.609 0.206055 202.518 0.276367C203.432 0.34082 204.281 0.496094 205.066 0.742188C205.857 0.982422 206.575 1.31348 207.22 1.73535C207.87 2.15137 208.43 2.66699 208.898 3.28223C209.367 3.8916 209.733 4.59766 209.997 5.40039C210.267 6.20312 210.419 7.1084 210.454 8.11621ZM207.729 8.74902C207.741 8.03418 207.653 7.34863 207.466 6.69238C207.284 6.03027 206.982 5.44141 206.561 4.92578C206.145 4.4043 205.597 3.97656 204.917 3.64258C204.243 3.30859 203.42 3.10645 202.447 3.03613L202.509 13.5215C203.288 13.4688 203.997 13.3105 204.636 13.0469C205.274 12.7773 205.819 12.4287 206.271 12.001C206.728 11.5732 207.082 11.084 207.334 10.5332C207.586 9.97656 207.718 9.38184 207.729 8.74902Z" fill="white"/>
</svg>
