<svg viewBox="0 0 74 55" fill="none" xmlns="http://www.w3.org/2000/svg">
<path d="M25 31.5V31H27.5H30.5L32 30L32.5 29.5L33.5 29L35 28.5L36.5 27.5L37 21.5L36.5 17L36 14.5V12.5L35.5 11.5V11L35 10L34 9.5L34.5 8.5C34.416 6.68338 33.5 7.5 33.5 6.5L34 6L33.5 5L32.5 5.5C32.6662 4.50227 32.7033 3.93759 33.5 3C34.8174 1.58666 35.748 0.984909 37.5 0L40.5 0.5L43 2L44 4.5L43.5 7.5L43 9.5H47L50 12.5L53 14.5L55 17.5L58.5 24L60.5 26.5C61.0247 28.2745 61.5539 29.0728 62.4958 30.4937L62.5 30.5L60.5 34H61.5H63C64.6658 34.5776 65.558 34.9741 67 36L70.5 37.5L72.5 39.5L74 41L73 42.5L72 43.5L71 44L70.5 43.5L68 42.5L66.5 42C66.1637 42.6466 65.9518 42.9831 65.5 43.5C65.1595 43.5893 64.9388 43.5971 64.5 43.5C64.1076 43.5944 63.8927 43.6142 63.5 43.5L60.5 41.5C60.2389 41.2795 60.1107 41.1635 60 41C59.5548 40.5234 59.1926 40.4816 58.5 40.5C58.1316 40.777 58.1981 41.0164 58.5 41.5L59 42L56.5 42.5L54.5 42L54 41.5C53.5555 41.4604 53.2415 41.5448 53 42C53.0708 42.4272 53.1628 42.6552 53.5 43C53.8884 43.166 54.1122 43.1508 54.5 43L59.5 42.5H61.5L64 44.5C63.8187 45.0644 64.3756 45.3996 64.5 46L65.5 47L67 50C67.2849 50.8904 67.2455 51.4249 67 52.5C66.7821 53.0423 66.6126 53.4075 66 54.5C65.4146 54.9651 65.0845 55.1101 64.5 54.5L63.5 52.5H61.5C59.8255 49.711 58.8483 48.2626 56.5 47.5L55 46.5L54.5 48.5C53.3238 47.0352 52.5339 46.5332 51 46H48.5L47 47.5L41 47L39.5 44C37.0835 43.4571 35.8105 42.9532 34 41C34.004 39.1445 34.2944 38.2519 35.5 37H37L37.5 36L39 34.5H37.5L34 37C33.4126 37.2231 33.0824 37.0585 32.5 36.5C32.0171 35.7068 31.6572 35.2723 31 34.5C28.6847 34.7555 27.5247 34.6476 26.5 32.5L0 28.5V27.5L25 31.5Z" fill="black"/>
</svg>
