<svg width="56" height="388" viewBox="0 0 56 388" fill="none" xmlns="http://www.w3.org/2000/svg">
<path d="M53 356.5H45V325H51.5L56 327V351.5L53 356.5Z" fill="black"/>
<path d="M54.5 359L53 356.5H45V359H54.5Z" fill="#2A2826"/>
<path d="M2 359L3.42105 356H11V359H2Z" fill="#2A2826"/>
<path d="M3 356.5H11V325H4.5L0 327V351.5L3 356.5Z" fill="black"/>
<path d="M13 364V362.5H11.5V359H1V376.5H14H23.5H29H41H48H54.5V374V368V366V359H51.5H48.5H45V360.5V362.5H43V364H40V368H39V369H18V368H16V364H13Z" fill="#0F0F0F"/>
<rect x="8" y="376" width="6" height="9" fill="#FF454A"/>
<rect x="43" y="376" width="6" height="9" fill="#FF454A"/>
<rect x="10" y="384" width="2" height="3" fill="black"/>
<rect x="45" y="384" width="2" height="3" fill="black"/>
<rect x="7" y="386" width="8" height="2" fill="#2D2626"/>
<rect x="42" y="386" width="8" height="2" fill="#2D2626"/>
<path fill-rule="evenodd" clip-rule="evenodd" d="M15 377.118C15 377.078 15.0004 377.039 15.0012 377H15.9439C15.9433 377.032 15.943 377.065 15.943 377.097C15.943 379.517 17.7371 381.479 19.9504 381.479C22.1636 381.479 23.9578 379.517 23.9578 377.097C23.9578 377.065 23.9574 377.032 23.9568 377H24.8994C24.9002 377.039 24.9006 377.078 24.9006 377.118C24.9006 380.047 22.6843 382.422 19.9503 382.422C17.2163 382.422 15 380.047 15 377.118Z" fill="#3A3139"/>
<rect x="23" y="377" width="2" height="2" fill="#500707"/>
<rect x="16" y="326" width="24" height="39" fill="#131F33"/>
<circle cx="28" cy="342" r="8.5" stroke="#6C625C"/>
<circle cx="28" cy="342" r="4.5" stroke="#6C625C"/>
<rect x="13" y="326" width="3" height="38" fill="#211F12"/>
<rect x="40" y="326" width="3" height="38" fill="#211F12"/>
<rect x="40" y="303" width="3" height="23" fill="#4B240E"/>
<rect x="40" y="278" width="3" height="23" fill="#4B240E"/>
<rect x="41" y="231" width="3" height="45" fill="#4B240E"/>
<rect x="13" y="303" width="3" height="23" fill="#AF230D"/>
<rect x="13" y="278" width="3" height="23" fill="#AF230D"/>
<rect x="11" y="231" width="3" height="45" fill="#AF230D"/>
<rect x="16" y="303" width="24" height="23" fill="url(#paint0_linear_388_72)"/>
<rect x="16" y="278" width="24" height="23" fill="url(#paint1_linear_388_72)"/>
<rect x="14" y="231" width="27" height="45" fill="url(#paint2_linear_388_72)"/>
<rect x="11" y="200" width="33" height="29" fill="url(#paint3_linear_388_72)"/>
<rect x="12" y="177" width="32" height="21" fill="url(#paint4_linear_388_72)"/>
<rect x="13" y="301" width="30" height="2" fill="#D36528" fill-opacity="0.5"/>
<rect x="13" y="276" width="30" height="2" fill="#D36528" fill-opacity="0.5"/>
<rect x="11" y="229" width="33" height="2" fill="#D36528" fill-opacity="0.5"/>
<rect x="11" y="198" width="33" height="2" fill="#D36528" fill-opacity="0.5"/>
<rect x="11" y="223" width="33" height="2" fill="#8D4143" fill-opacity="0.5"/>
<path d="M33.5 251.5C33.5 254.852 31.0006 257.5 28 257.5C24.9994 257.5 22.5 254.852 22.5 251.5C22.5 248.148 24.9994 245.5 28 245.5C31.0006 245.5 33.5 248.148 33.5 251.5Z" fill="url(#paint5_radial_388_72)" stroke="#E5BC89"/>
<rect x="25" y="180" width="5" height="2" fill="black"/>
<rect x="3" width="51" height="177" fill="url(#paint6_linear_388_72)"/>
<rect x="18" y="368" width="21" height="1" fill="#554C3D"/>
<rect x="16" y="365" width="24" height="3" fill="#3C393C"/>
<rect x="37" y="376" width="2" height="2" fill="#302525"/>
<rect x="43" y="276" width="2" height="87" fill="#776462"/>
<rect x="11" y="276" width="2" height="87" fill="#776462"/>
<rect x="12" y="345" width="1" height="18" fill="#514541"/>
<rect x="10" y="276" width="1" height="49" fill="#7F3B39"/>
<rect x="9" y="273" width="1" height="48" fill="#7F3B39"/>
<rect x="45" y="273" width="1" height="53" fill="#7F3B39"/>
<rect x="46" y="273" width="1" height="48" fill="#7F3B39"/>
<rect x="10" y="231" width="1" height="45" fill="black"/>
<rect x="9" y="231" width="1" height="45" fill="#0F2C42"/>
<rect x="8" y="231" width="1" height="42" fill="#0F2C42"/>
<rect x="45" y="231" width="1" height="42" fill="#0F2C42"/>
<rect x="46" y="231" width="1" height="37" fill="#0F2C42"/>
<rect x="44" y="231" width="1" height="45" fill="black"/>
<rect x="6" y="177" width="5" height="54" fill="#374141"/>
<rect x="44" y="177" width="5" height="54" fill="#374141"/>
<rect x="11" y="177" width="1" height="21" fill="#C84254"/>
<path d="M30.9612 19V12H29.4212V14.77H26.5812V12H25.0412V19H26.5812V16.19H29.4212V19H30.9612ZM31.722 25.5V25.48C31.722 24.98 31.6286 24.5133 31.442 24.08C31.262 23.64 31.0053 23.26 30.672 22.94C30.3453 22.6133 29.9553 22.3567 29.502 22.17C29.0486 21.9767 28.552 21.88 28.012 21.88C27.472 21.88 26.972 21.9767 26.512 22.17C26.0586 22.3567 25.6653 22.6167 25.332 22.95C25.0053 23.2767 24.7486 23.66 24.562 24.1C24.3753 24.5333 24.282 25 24.282 25.5V25.52C24.282 26.02 24.372 26.49 24.552 26.93C24.7386 27.3633 24.9953 27.7433 25.322 28.07C25.6553 28.39 26.0486 28.6467 26.502 28.84C26.9553 29.0267 27.452 29.12 27.992 29.12C28.532 29.12 29.0286 29.0267 29.482 28.84C29.942 28.6467 30.3353 28.3867 30.662 28.06C30.9953 27.7267 31.2553 27.3433 31.442 26.91C31.6286 26.47 31.722 26 31.722 25.5ZM30.112 25.52C30.112 25.82 30.0586 26.1033 29.952 26.37C29.852 26.63 29.7086 26.86 29.522 27.06C29.342 27.26 29.122 27.4167 28.862 27.53C28.602 27.6433 28.3186 27.7 28.012 27.7C27.6986 27.7 27.412 27.6433 27.152 27.53C26.8986 27.41 26.6753 27.25 26.482 27.05C26.2953 26.85 26.1486 26.6167 26.042 26.35C25.942 26.0833 25.892 25.8 25.892 25.5V25.48C25.892 25.18 25.942 24.9 26.042 24.64C26.1486 24.3733 26.292 24.14 26.472 23.94C26.6586 23.74 26.8786 23.5833 27.132 23.47C27.392 23.3567 27.6786 23.3 27.992 23.3C28.2986 23.3 28.582 23.36 28.842 23.48C29.102 23.5933 29.3253 23.75 29.512 23.95C29.7053 24.15 29.852 24.3833 29.952 24.65C30.0586 24.9167 30.112 25.2 30.112 25.5V25.52ZM31.2791 38.01V34.97H28.2391V36.3H29.7891V37.3C29.3958 37.58 28.9124 37.72 28.3391 37.72C28.0258 37.72 27.7391 37.6667 27.4791 37.56C27.2258 37.4467 27.0024 37.29 26.8091 37.09C26.6224 36.89 26.4758 36.6567 26.3691 36.39C26.2691 36.1167 26.2191 35.82 26.2191 35.5V35.48C26.2191 35.18 26.2691 34.9 26.3691 34.64C26.4758 34.3733 26.6191 34.1433 26.7991 33.95C26.9858 33.75 27.1991 33.5933 27.4391 33.48C27.6858 33.36 27.9491 33.3 28.2291 33.3C28.4291 33.3 28.6124 33.3167 28.7791 33.35C28.9458 33.3833 29.0991 33.43 29.2391 33.49C29.3858 33.55 29.5258 33.6233 29.6591 33.71C29.7924 33.7967 29.9258 33.8967 30.0591 34.01L31.0291 32.84C30.8491 32.6867 30.6624 32.55 30.4691 32.43C30.2758 32.31 30.0691 32.21 29.8491 32.13C29.6291 32.05 29.3891 31.99 29.1291 31.95C28.8758 31.9033 28.5924 31.88 28.2791 31.88C27.7458 31.88 27.2558 31.9767 26.8091 32.17C26.3624 32.3567 25.9758 32.6167 25.6491 32.95C25.3224 33.2767 25.0658 33.66 24.8791 34.1C24.6991 34.5333 24.6091 35 24.6091 35.5V35.52C24.6091 36.04 24.6991 36.52 24.8791 36.96C25.0591 37.4 25.3091 37.78 25.6291 38.1C25.9558 38.42 26.3424 38.67 26.7891 38.85C27.2424 39.03 27.7424 39.12 28.2891 39.12C28.9291 39.12 29.4958 39.0133 29.9891 38.8C30.4891 38.58 30.9191 38.3167 31.2791 38.01ZM33.3096 42H31.6996L30.2496 46.74L28.6796 41.98H27.3596L25.7896 46.74L24.3396 42H22.6896L25.0796 49.05H26.4196L27.9996 44.47L29.5796 49.05H30.9196L33.3096 42ZM31.7098 59L28.7098 51.95H27.2898L24.2898 59H25.8598L26.4998 57.43H29.4598L30.0998 59H31.7098ZM28.9098 56.07H27.0498L27.9798 53.8L28.9098 56.07ZM31.2767 69L29.5667 66.5C30.0134 66.3333 30.3734 66.0733 30.6467 65.72C30.9267 65.36 31.0667 64.8967 31.0667 64.33V64.31C31.0667 63.5833 30.8334 63.0167 30.3667 62.61C29.9067 62.2033 29.2601 62 28.4267 62H25.2267V69H26.7667V66.76H27.9767L29.4767 69H31.2767ZM29.5067 64.41C29.5067 64.71 29.4034 64.95 29.1967 65.13C28.9967 65.31 28.7067 65.4 28.3267 65.4H26.7667V63.39H28.2967C28.6767 63.39 28.9734 63.4733 29.1867 63.64C29.4001 63.8067 29.5067 64.0567 29.5067 64.39V64.41ZM30.8978 73.42V72H25.0978V73.42H27.2278V79H28.7678V73.42H30.8978ZM29.2027 86.93V86.91C29.2027 86.6033 29.1527 86.34 29.0527 86.12C28.9594 85.9 28.8161 85.71 28.6227 85.55C28.4361 85.3833 28.2027 85.2433 27.9227 85.13C27.6494 85.01 27.3361 84.9033 26.9827 84.81C26.6827 84.73 26.4327 84.66 26.2327 84.6C26.0394 84.54 25.8861 84.4767 25.7727 84.41C25.6594 84.3433 25.5794 84.27 25.5327 84.19C25.4927 84.1033 25.4727 84.0033 25.4727 83.89V83.87C25.4727 83.6967 25.5461 83.5533 25.6927 83.44C25.8461 83.32 26.0727 83.26 26.3727 83.26C26.6727 83.26 26.9727 83.3233 27.2727 83.45C27.5727 83.57 27.8794 83.7367 28.1927 83.95L28.9927 82.79C28.6327 82.5033 28.2361 82.2833 27.8027 82.13C27.3761 81.9767 26.9061 81.9 26.3927 81.9C26.0327 81.9 25.7027 81.95 25.4027 82.05C25.1027 82.15 24.8427 82.2933 24.6227 82.48C24.4094 82.6667 24.2427 82.89 24.1227 83.15C24.0027 83.4033 23.9427 83.69 23.9427 84.01V84.03C23.9427 84.3767 23.9961 84.6667 24.1027 84.9C24.2161 85.1333 24.3727 85.33 24.5727 85.49C24.7727 85.6433 25.0161 85.7733 25.3027 85.88C25.5894 85.9867 25.9094 86.0833 26.2627 86.17C26.5561 86.2433 26.7927 86.3133 26.9727 86.38C27.1594 86.4467 27.3027 86.5133 27.4027 86.58C27.5094 86.6467 27.5794 86.72 27.6127 86.8C27.6527 86.8733 27.6727 86.96 27.6727 87.06V87.08C27.6727 87.2867 27.5827 87.45 27.4027 87.57C27.2294 87.6833 26.9827 87.74 26.6627 87.74C26.2627 87.74 25.8927 87.6633 25.5527 87.51C25.2194 87.3567 24.8927 87.15 24.5727 86.89L23.6627 87.98C24.0827 88.36 24.5494 88.6433 25.0627 88.83C25.5761 89.01 26.0994 89.1 26.6327 89.1C27.0127 89.1 27.3594 89.0533 27.6727 88.96C27.9861 88.86 28.2561 88.72 28.4827 88.54C28.7094 88.3533 28.8861 88.1267 29.0127 87.86C29.1394 87.5867 29.2027 87.2767 29.2027 86.93ZM30.8204 109V107.63H27.0204V106.16H30.3204V104.79H27.0204V103.37H30.7704V102H25.4904V109H30.8204ZM31.3479 119L28.9079 115.42L31.2479 112H29.4979L28.0179 114.27L26.5479 112H24.7479L27.0879 115.44L24.6479 119H26.3979L27.9779 116.6L29.5479 119H31.3479ZM31.0402 124.44V124.42C31.0402 124.06 30.9768 123.733 30.8502 123.44C30.7302 123.14 30.5535 122.883 30.3202 122.67C30.0935 122.457 29.8135 122.293 29.4802 122.18C29.1535 122.06 28.7802 122 28.3602 122H25.5002V129H27.0402V126.9H28.2102C28.6035 126.9 28.9702 126.85 29.3102 126.75C29.6568 126.643 29.9568 126.487 30.2102 126.28C30.4702 126.073 30.6735 125.817 30.8202 125.51C30.9668 125.203 31.0402 124.847 31.0402 124.44ZM29.4802 124.47C29.4802 124.77 29.3735 125.023 29.1602 125.23C28.9468 125.43 28.6468 125.53 28.2602 125.53H27.0402V123.39H28.2302C28.6168 123.39 28.9202 123.48 29.1402 123.66C29.3668 123.84 29.4802 124.103 29.4802 124.45V124.47ZM31.2767 139L29.5667 136.5C30.0134 136.333 30.3734 136.073 30.6467 135.72C30.9267 135.36 31.0667 134.897 31.0667 134.33V134.31C31.0667 133.583 30.8334 133.017 30.3667 132.61C29.9067 132.203 29.2601 132 28.4267 132H25.2267V139H26.7667V136.76H27.9767L29.4767 139H31.2767ZM29.5067 134.41C29.5067 134.71 29.4034 134.95 29.1967 135.13C28.9967 135.31 28.7067 135.4 28.3267 135.4H26.7667V133.39H28.2967C28.6767 133.39 28.9734 133.473 29.1867 133.64C29.4001 133.807 29.5067 134.057 29.5067 134.39V134.41ZM30.8204 149V147.63H27.0204V146.16H30.3204V144.79H27.0204V143.37H30.7704V142H25.4904V149H30.8204ZM30.7018 156.93V156.91C30.7018 156.603 30.6518 156.34 30.5518 156.12C30.4584 155.9 30.3151 155.71 30.1218 155.55C29.9351 155.383 29.7018 155.243 29.4218 155.13C29.1484 155.01 28.8351 154.903 28.4818 154.81C28.1818 154.73 27.9318 154.66 27.7318 154.6C27.5384 154.54 27.3851 154.477 27.2718 154.41C27.1584 154.343 27.0784 154.27 27.0318 154.19C26.9918 154.103 26.9718 154.003 26.9718 153.89V153.87C26.9718 153.697 27.0451 153.553 27.1918 153.44C27.3451 153.32 27.5718 153.26 27.8718 153.26C28.1718 153.26 28.4718 153.323 28.7718 153.45C29.0718 153.57 29.3784 153.737 29.6918 153.95L30.4918 152.79C30.1318 152.503 29.7351 152.283 29.3018 152.13C28.8751 151.977 28.4051 151.9 27.8918 151.9C27.5318 151.9 27.2018 151.95 26.9018 152.05C26.6018 152.15 26.3418 152.293 26.1218 152.48C25.9084 152.667 25.7418 152.89 25.6218 153.15C25.5018 153.403 25.4418 153.69 25.4418 154.01V154.03C25.4418 154.377 25.4951 154.667 25.6018 154.9C25.7151 155.133 25.8718 155.33 26.0718 155.49C26.2718 155.643 26.5151 155.773 26.8018 155.88C27.0884 155.987 27.4084 156.083 27.7618 156.17C28.0551 156.243 28.2918 156.313 28.4718 156.38C28.6584 156.447 28.8018 156.513 28.9018 156.58C29.0084 156.647 29.0784 156.72 29.1118 156.8C29.1518 156.873 29.1718 156.96 29.1718 157.06V157.08C29.1718 157.287 29.0818 157.45 28.9018 157.57C28.7284 157.683 28.4818 157.74 28.1618 157.74C27.7618 157.74 27.3918 157.663 27.0518 157.51C26.7184 157.357 26.3918 157.15 26.0718 156.89L25.1618 157.98C25.5818 158.36 26.0484 158.643 26.5618 158.83C27.0751 159.01 27.5984 159.1 28.1318 159.1C28.5118 159.1 28.8584 159.053 29.1718 158.96C29.4851 158.86 29.7551 158.72 29.9818 158.54C30.2084 158.353 30.3851 158.127 30.5118 157.86C30.6384 157.587 30.7018 157.277 30.7018 156.93ZM30.7018 166.93V166.91C30.7018 166.603 30.6518 166.34 30.5518 166.12C30.4584 165.9 30.3151 165.71 30.1218 165.55C29.9351 165.383 29.7018 165.243 29.4218 165.13C29.1484 165.01 28.8351 164.903 28.4818 164.81C28.1818 164.73 27.9318 164.66 27.7318 164.6C27.5384 164.54 27.3851 164.477 27.2718 164.41C27.1584 164.343 27.0784 164.27 27.0318 164.19C26.9918 164.103 26.9718 164.003 26.9718 163.89V163.87C26.9718 163.697 27.0451 163.553 27.1918 163.44C27.3451 163.32 27.5718 163.26 27.8718 163.26C28.1718 163.26 28.4718 163.323 28.7718 163.45C29.0718 163.57 29.3784 163.737 29.6918 163.95L30.4918 162.79C30.1318 162.503 29.7351 162.283 29.3018 162.13C28.8751 161.977 28.4051 161.9 27.8918 161.9C27.5318 161.9 27.2018 161.95 26.9018 162.05C26.6018 162.15 26.3418 162.293 26.1218 162.48C25.9084 162.667 25.7418 162.89 25.6218 163.15C25.5018 163.403 25.4418 163.69 25.4418 164.01V164.03C25.4418 164.377 25.4951 164.667 25.6018 164.9C25.7151 165.133 25.8718 165.33 26.0718 165.49C26.2718 165.643 26.5151 165.773 26.8018 165.88C27.0884 165.987 27.4084 166.083 27.7618 166.17C28.0551 166.243 28.2918 166.313 28.4718 166.38C28.6584 166.447 28.8018 166.513 28.9018 166.58C29.0084 166.647 29.0784 166.72 29.1118 166.8C29.1518 166.873 29.1718 166.96 29.1718 167.06V167.08C29.1718 167.287 29.0818 167.45 28.9018 167.57C28.7284 167.683 28.4818 167.74 28.1618 167.74C27.7618 167.74 27.3918 167.663 27.0518 167.51C26.7184 167.357 26.3918 167.15 26.0718 166.89L25.1618 167.98C25.5818 168.36 26.0484 168.643 26.5618 168.83C27.0751 169.01 27.5984 169.1 28.1318 169.1C28.5118 169.1 28.8584 169.053 29.1718 168.96C29.4851 168.86 29.7551 168.72 29.9818 168.54C30.2084 168.353 30.3851 168.127 30.5118 167.86C30.6384 167.587 30.7018 167.277 30.7018 166.93Z" fill="#AA6C39"/>
<defs>
<linearGradient id="paint0_linear_388_72" x1="40.5" y1="314" x2="16.5" y2="314" gradientUnits="userSpaceOnUse">
<stop stop-color="#972131"/>
<stop offset="1" stop-color="#CA4356"/>
</linearGradient>
<linearGradient id="paint1_linear_388_72" x1="40.5" y1="289" x2="16.5" y2="289" gradientUnits="userSpaceOnUse">
<stop stop-color="#972131"/>
<stop offset="1" stop-color="#CA4356"/>
</linearGradient>
<linearGradient id="paint2_linear_388_72" x1="41.5625" y1="252.522" x2="14.5625" y2="252.522" gradientUnits="userSpaceOnUse">
<stop stop-color="#972131"/>
<stop offset="1" stop-color="#CA4356"/>
</linearGradient>
<linearGradient id="paint3_linear_388_72" x1="44.6875" y1="213.87" x2="11.6875" y2="213.87" gradientUnits="userSpaceOnUse">
<stop stop-color="#972131"/>
<stop offset="1" stop-color="#CA4356"/>
</linearGradient>
<linearGradient id="paint4_linear_388_72" x1="44.6667" y1="187.043" x2="12.6667" y2="187.043" gradientUnits="userSpaceOnUse">
<stop stop-color="#972131"/>
<stop offset="1" stop-color="#CA4356"/>
</linearGradient>
<radialGradient id="paint5_radial_388_72" cx="0" cy="0" r="1" gradientUnits="userSpaceOnUse" gradientTransform="translate(28 251.5) rotate(90) scale(6.5 6)">
<stop offset="0.432292"/>
<stop offset="1" stop-color="white" stop-opacity="0"/>
</radialGradient>
<linearGradient id="paint6_linear_388_72" x1="3" y1="90.6585" x2="54" y2="90.6585" gradientUnits="userSpaceOnUse">
<stop stop-color="#2D3E57"/>
<stop offset="1" stop-color="#152135"/>
</linearGradient>
</defs>
</svg>
