<svg xmlns="http://www.w3.org/2000/svg" xmlns:xlink="http://www.w3.org/1999/xlink" viewBox="0 0 1000 277.9"><defs><style>.cls-1{fill:none;}.cls-2{isolation:isolate;}.cls-3{clip-path:url(#clip-path);}.cls-4{fill:url(#Áåçûìÿííûé_ãðàäèåíò_33);}.cls-11,.cls-12,.cls-13,.cls-14,.cls-16,.cls-30,.cls-35,.cls-36,.cls-37,.cls-38,.cls-39,.cls-40,.cls-41,.cls-42,.cls-43,.cls-44,.cls-45,.cls-47,.cls-5,.cls-54,.cls-56,.cls-58,.cls-59,.cls-60,.cls-61,.cls-66,.cls-68,.cls-71,.cls-72,.cls-78,.cls-82,.cls-83,.cls-84,.cls-85,.cls-88,.cls-90,.cls-96{opacity:0.5;}.cls-10,.cls-11,.cls-12,.cls-13,.cls-14,.cls-16,.cls-17,.cls-18,.cls-28,.cls-29,.cls-30,.cls-31,.cls-32,.cls-35,.cls-36,.cls-37,.cls-38,.cls-39,.cls-40,.cls-41,.cls-42,.cls-47,.cls-48,.cls-49,.cls-5,.cls-50,.cls-51,.cls-54,.cls-56,.cls-58,.cls-59,.cls-60,.cls-66,.cls-68,.cls-69,.cls-70,.cls-71,.cls-72,.cls-74,.cls-75,.cls-76,.cls-77,.cls-81,.cls-82,.cls-83,.cls-84,.cls-85,.cls-86,.cls-88,.cls-92,.cls-93,.cls-94,.cls-95,.cls-97,.cls-98{mix-blend-mode:multiply;}.cls-5{fill:url(#Áåçûìÿííûé_ãðàäèåíò_255);}.cls-6{fill:#dbd1ff;}.cls-15,.cls-19,.cls-43,.cls-44,.cls-45,.cls-6,.cls-61,.cls-62,.cls-67,.cls-7,.cls-78,.cls-79,.cls-87,.cls-96{mix-blend-mode:soft-light;}.cls-7{fill:#a490c9;}.cls-8{fill:#9ca9ff;}.cls-9{fill:url(#Áåçûìÿííûé_ãðàäèåíò_225);}.cls-10,.cls-17,.cls-18{opacity:0.71;}.cls-10{fill:url(#Áåçûìÿííûé_ãðàäèåíò_217);}.cls-11{fill:url(#Áåçûìÿííûé_ãðàäèåíò_217-2);}.cls-12{fill:url(#Áåçûìÿííûé_ãðàäèåíò_217-3);}.cls-13{fill:url(#Áåçûìÿííûé_ãðàäèåíò_217-4);}.cls-14{fill:url(#Áåçûìÿííûé_ãðàäèåíò_217-5);}.cls-15,.cls-61,.cls-62{fill:#a963a1;}.cls-16{fill:url(#Áåçûìÿííûé_ãðàäèåíò_217-6);}.cls-17{fill:url(#Áåçûìÿííûé_ãðàäèåíò_217-7);}.cls-18{fill:url(#Áåçûìÿííûé_ãðàäèåíò_217-8);}.cls-19{fill:#bda5d6;}.cls-20{fill:url(#Áåçûìÿííûé_ãðàäèåíò_104);}.cls-21{fill:#00000b;}.cls-22{fill:url(#Áåçûìÿííûé_ãðàäèåíò_225-2);}.cls-23{fill:url(#Áåçûìÿííûé_ãðàäèåíò_225-3);}.cls-24{fill:url(#Áåçûìÿííûé_ãðàäèåíò_98);}.cls-25{fill:url(#Áåçûìÿííûé_ãðàäèåíò_112);}.cls-26{fill:url(#Áåçûìÿííûé_ãðàäèåíò_98-2);}.cls-27{fill:url(#Áåçûìÿííûé_ãðàäèåíò_98-3);}.cls-28,.cls-29,.cls-62,.cls-74,.cls-75,.cls-76,.cls-77,.cls-81,.cls-86,.cls-92,.cls-93,.cls-94,.cls-95,.cls-97,.cls-98{opacity:0.8;}.cls-28{fill:url(#Áåçûìÿííûé_ãðàäèåíò_217-9);}.cls-29{fill:url(#Áåçûìÿííûé_ãðàäèåíò_217-10);}.cls-30{fill:url(#Áåçûìÿííûé_ãðàäèåíò_217-11);}.cls-31,.cls-32,.cls-48,.cls-49,.cls-50,.cls-51{opacity:0.2;}.cls-31{fill:url(#Áåçûìÿííûé_ãðàäèåíò_217-12);}.cls-32{fill:url(#Áåçûìÿííûé_ãðàäèåíò_217-13);}.cls-33{fill:url(#Áåçûìÿííûé_ãðàäèåíò_242);}.cls-34{fill:url(#Áåçûìÿííûé_ãðàäèåíò_242-2);}.cls-35{fill:url(#Áåçûìÿííûé_ãðàäèåíò_217-14);}.cls-36{fill:url(#Áåçûìÿííûé_ãðàäèåíò_217-15);}.cls-37{fill:url(#Áåçûìÿííûé_ãðàäèåíò_217-16);}.cls-38{fill:url(#Áåçûìÿííûé_ãðàäèåíò_217-17);}.cls-39{fill:url(#Áåçûìÿííûé_ãðàäèåíò_217-18);}.cls-40{fill:url(#Áåçûìÿííûé_ãðàäèåíò_217-19);}.cls-41{fill:url(#Áåçûìÿííûé_ãðàäèåíò_217-20);}.cls-42{fill:url(#Áåçûìÿííûé_ãðàäèåíò_217-21);}.cls-43{fill:#d6dbff;}.cls-44{fill:#d6a7c2;}.cls-45{fill:#edeff3;}.cls-46{fill:url(#Áåçûìÿííûé_ãðàäèåíò_242-3);}.cls-47{fill:url(#Áåçûìÿííûé_ãðàäèåíò_217-22);}.cls-48{fill:url(#Áåçûìÿííûé_ãðàäèåíò_217-23);}.cls-49{fill:url(#Áåçûìÿííûé_ãðàäèåíò_217-24);}.cls-50{fill:url(#Áåçûìÿííûé_ãðàäèåíò_217-25);}.cls-51{fill:url(#Áåçûìÿííûé_ãðàäèåíò_217-26);}.cls-52{fill:url(#Áåçûìÿííûé_ãðàäèåíò_225-4);}.cls-53{fill:url(#Áåçûìÿííûé_ãðàäèåíò_98-4);}.cls-54{fill:url(#Áåçûìÿííûé_ãðàäèåíò_217-27);}.cls-55{fill:url(#Áåçûìÿííûé_ãðàäèåíò_98-5);}.cls-56{fill:url(#Áåçûìÿííûé_ãðàäèåíò_217-28);}.cls-57{fill:url(#Áåçûìÿííûé_ãðàäèåíò_112-2);}.cls-58{fill:url(#Áåçûìÿííûé_ãðàäèåíò_217-29);}.cls-59{fill:url(#Áåçûìÿííûé_ãðàäèåíò_217-30);}.cls-60{fill:url(#Áåçûìÿííûé_ãðàäèåíò_217-31);}.cls-63{fill:url(#Áåçûìÿííûé_ãðàäèåíò_173);}.cls-64{fill:url(#Áåçûìÿííûé_ãðàäèåíò_112-3);}.cls-65{fill:url(#Áåçûìÿííûé_ãðàäèåíò_323);}.cls-66{fill:url(#Áåçûìÿííûé_ãðàäèåíò_217-32);}.cls-67{fill:#c095ac;}.cls-68{fill:url(#Áåçûìÿííûé_ãðàäèåíò_217-33);}.cls-69,.cls-72{fill:#d3b5c5;}.cls-69,.cls-70,.cls-87{opacity:0.3;}.cls-70{fill:#c39ab0;}.cls-71{fill:#b888a2;}.cls-73{fill:url(#Áåçûìÿííûé_ãðàäèåíò_192);}.cls-74{fill:url(#Áåçûìÿííûé_ãðàäèåíò_217-34);}.cls-75{fill:url(#Áåçûìÿííûé_ãðàäèåíò_217-35);}.cls-76{fill:url(#Áåçûìÿííûé_ãðàäèåíò_217-36);}.cls-77{fill:url(#Áåçûìÿííûé_ãðàäèåíò_217-37);}.cls-78,.cls-87{fill:#92aeca;}.cls-79,.cls-96{fill:#a5a895;}.cls-80{fill:url(#Áåçûìÿííûé_ãðàäèåíò_192-2);}.cls-81{fill:url(#Áåçûìÿííûé_ãðàäèåíò_217-38);}.cls-82{fill:url(#Áåçûìÿííûé_ãðàäèåíò_217-39);}.cls-83{fill:url(#Áåçûìÿííûé_ãðàäèåíò_217-40);}.cls-84{fill:url(#Áåçûìÿííûé_ãðàäèåíò_217-41);}.cls-85{fill:url(#Áåçûìÿííûé_ãðàäèåíò_217-42);}.cls-86{fill:url(#Áåçûìÿííûé_ãðàäèåíò_217-43);}.cls-88{fill:url(#Áåçûìÿííûé_ãðàäèåíò_217-44);}.cls-89,.cls-99{opacity:0.78;}.cls-89,.cls-90,.cls-99{mix-blend-mode:screen;}.cls-89{fill:url(#Áåçûìÿííûé_ãðàäèåíò_201);}.cls-90{fill:url(#Áåçûìÿííûé_ãðàäèåíò_201-2);}.cls-91{fill:url(#Áåçûìÿííûé_ãðàäèåíò_192-3);}.cls-92{fill:url(#Áåçûìÿííûé_ãðàäèåíò_217-45);}.cls-93{fill:url(#Áåçûìÿííûé_ãðàäèåíò_217-46);}.cls-94{fill:url(#Áåçûìÿííûé_ãðàäèåíò_217-47);}.cls-95{fill:url(#Áåçûìÿííûé_ãðàäèåíò_217-48);}.cls-97{fill:url(#Áåçûìÿííûé_ãðàäèåíò_217-49);}.cls-98{fill:url(#Áåçûìÿííûé_ãðàäèåíò_217-50);}.cls-99{fill:url(#Áåçûìÿííûé_ãðàäèåíò_201-3);}</style><clipPath id="clip-path" transform="translate(0 -124.27)"><rect class="cls-1" width="1000" height="400" transform="translate(1000 400) rotate(180)"/></clipPath><linearGradient id="Áåçûìÿííûé_ãðàäèåíò_33" x1="500" y1="371.87" x2="500" y2="125.21" gradientTransform="matrix(-1, 0, 0, 1, 1000, -124.27)" gradientUnits="userSpaceOnUse"><stop offset="0.02" stop-color="#6ba1df"/><stop offset="0.18" stop-color="#696fcb"/><stop offset="0.4" stop-color="#6527ae"/><stop offset="0.69" stop-color="#3c1576"/><stop offset="1" stop-color="#0c0033"/></linearGradient><linearGradient id="Áåçûìÿííûé_ãðàäèåíò_255" x1="500" y1="371.87" x2="500" y2="126" gradientTransform="matrix(-1, 0, 0, 1, 1000, -124.27)" gradientUnits="userSpaceOnUse"><stop offset="0" stop-color="#beb8cb"/><stop offset="1" stop-color="#925cbf"/></linearGradient><linearGradient id="Áåçûìÿííûé_ãðàäèåíò_225" x1="500" y1="400" x2="500" y2="274.8" gradientTransform="matrix(-1, 0, 0, 1, 1000, -124.27)" gradientUnits="userSpaceOnUse"><stop offset="0" stop-color="#1b0834"/><stop offset="1" stop-color="#261b5b"/></linearGradient><linearGradient id="Áåçûìÿííûé_ãðàäèåíò_217" y1="337.4" x2="418.2" y2="337.4" gradientTransform="matrix(-1, 0, 0, 1, 1000, -124.27)" gradientUnits="userSpaceOnUse"><stop offset="0" stop-color="#4c335c"/><stop offset="1" stop-color="#472484"/></linearGradient><linearGradient id="Áåçûìÿííûé_ãðàäèåíò_217-2" x1="588.65" y1="341.08" x2="1000" y2="341.08" xlink:href="#Áåçûìÿííûé_ãðàäèåíò_217"/><linearGradient id="Áåçûìÿííûé_ãðàäèåíò_217-3" y1="373.67" x2="191.85" y2="373.67" xlink:href="#Áåçûìÿííûé_ãðàäèåíò_217"/><linearGradient id="Áåçûìÿííûé_ãðàäèåíò_217-4" x1="593.67" y1="309.62" x2="738.43" y2="309.62" xlink:href="#Áåçûìÿííûé_ãðàäèåíò_217"/><linearGradient id="Áåçûìÿííûé_ãðàäèåíò_217-5" x1="120" y1="391.31" x2="192" y2="391.31" xlink:href="#Áåçûìÿííûé_ãðàäèåíò_217"/><linearGradient id="Áåçûìÿííûé_ãðàäèåíò_217-6" x1="224.7" y1="347.04" x2="252.75" y2="347.04" xlink:href="#Áåçûìÿííûé_ãðàäèåíò_217"/><linearGradient id="Áåçûìÿííûé_ãðàäèåíò_217-7" x1="25.5" y1="347.59" x2="171.5" y2="347.59" xlink:href="#Áåçûìÿííûé_ãðàäèåíò_217"/><linearGradient id="Áåçûìÿííûé_ãðàäèåíò_217-8" x1="83.67" y1="337.75" x2="145.5" y2="337.75" xlink:href="#Áåçûìÿííûé_ãðàäèåíò_217"/><linearGradient id="Áåçûìÿííûé_ãðàäèåíò_104" x1="444.9" y1="385.63" x2="444.9" y2="265.32" gradientTransform="matrix(-1, 0, 0, 1, 1000, -124.27)" gradientUnits="userSpaceOnUse"><stop offset="0" stop-color="#220936"/><stop offset="1" stop-color="#331469"/></linearGradient><linearGradient id="Áåçûìÿííûé_ãðàäèåíò_225-2" x1="394.2" y1="265.32" x2="394.2" y2="219.87" xlink:href="#Áåçûìÿííûé_ãðàäèåíò_225"/><linearGradient id="Áåçûìÿííûé_ãðàäèåíò_225-3" x1="394.36" y1="385.11" x2="394.36" y2="265.32" xlink:href="#Áåçûìÿííûé_ãðàäèåíò_225"/><linearGradient id="Áåçûìÿííûé_ãðàäèåíò_98" x1="562.23" y1="385.63" x2="562.23" y2="315.92" gradientTransform="matrix(-1, 0, 0, 1, 1000, -124.27)" gradientUnits="userSpaceOnUse"><stop offset="0" stop-color="#170033"/><stop offset="1" stop-color="#271339"/></linearGradient><linearGradient id="Áåçûìÿííûé_ãðàäèåíò_112" x1="497.03" y1="385.63" x2="497.03" y2="264.97" gradientTransform="matrix(-1, 0, 0, 1, 1000, -124.27)" gradientUnits="userSpaceOnUse"><stop offset="0" stop-color="#2d1351"/><stop offset="1" stop-color="#573589"/></linearGradient><linearGradient id="Áåçûìÿííûé_ãðàäèåíò_98-2" x1="366.62" y1="384.49" x2="366.62" y2="359.97" xlink:href="#Áåçûìÿííûé_ãðàäèåíò_98"/><linearGradient id="Áåçûìÿííûé_ãðàäèåíò_98-3" x1="552.84" y1="310.81" x2="552.84" y2="265.1" xlink:href="#Áåçûìÿííûé_ãðàäèåíò_98"/><linearGradient id="Áåçûìÿííûé_ãðàäèåíò_217-9" x1="215.24" y1="320.28" x2="564.02" y2="320.28" gradientTransform="matrix(-1, 0, 0, 1, 1000, 0)" xlink:href="#Áåçûìÿííûé_ãðàäèåíò_217"/><linearGradient id="Áåçûìÿííûé_ãðàäèåíò_217-10" x1="303.62" y1="317.87" x2="507.66" y2="317.87" gradientTransform="matrix(-1, 0, 0, 1, 1000, 0)" xlink:href="#Áåçûìÿííûé_ãðàäèåíò_217"/><linearGradient id="Áåçûìÿííûé_ãðàäèåíò_217-11" x1="224.7" y1="370.28" x2="349.81" y2="370.28" xlink:href="#Áåçûìÿííûé_ãðàäèåíò_217"/><linearGradient id="Áåçûìÿííûé_ãðàäèåíò_217-12" x1="470.06" y1="317.16" x2="480.75" y2="317.16" xlink:href="#Áåçûìÿííûé_ãðàäèåíò_217"/><linearGradient id="Áåçûìÿííûé_ãðàäèåíò_217-13" x1="511.16" y1="313.94" x2="564.02" y2="313.94" xlink:href="#Áåçûìÿííûé_ãðàäèåíò_217"/><linearGradient id="Áåçûìÿííûé_ãðàäèåíò_242" x1="539.97" y1="324.24" x2="582.42" y2="324.24" gradientTransform="matrix(-1, 0, 0, 1, 1000, -124.27)" gradientUnits="userSpaceOnUse"><stop offset="0" stop-color="#6a5790"/><stop offset="1" stop-color="#8055b5"/></linearGradient><linearGradient id="Áåçûìÿííûé_ãðàäèåíò_242-2" x1="578.63" y1="314.42" x2="592.69" y2="314.42" xlink:href="#Áåçûìÿííûé_ãðàäèåíò_242"/><linearGradient id="Áåçûìÿííûé_ãðàäèåíò_217-14" x1="424.49" y1="349.28" x2="699.96" y2="349.28" gradientTransform="matrix(-1, 0, 0, 1, 1000, 0)" xlink:href="#Áåçûìÿííûé_ãðàäèåíò_217"/><linearGradient id="Áåçûìÿííûé_ãðàäèåíò_217-15" x1="597.69" y1="360.02" x2="660.15" y2="360.02" xlink:href="#Áåçûìÿííûé_ãðàäèåíò_217"/><linearGradient id="Áåçûìÿííûé_ãðàäèåíò_217-16" x1="424.49" y1="368.09" x2="541.18" y2="368.09" xlink:href="#Áåçûìÿííûé_ãðàäèåíò_217"/><linearGradient id="Áåçûìÿííûé_ãðàäèåíò_217-17" x1="488.99" y1="351.7" x2="531.1" y2="351.7" xlink:href="#Áåçûìÿííûé_ãðàäèåíò_217"/><linearGradient id="Áåçûìÿííûé_ãðàäèåíò_217-18" x1="532.9" y1="360.13" x2="609.05" y2="360.13" xlink:href="#Áåçûìÿííûé_ãðàäèåíò_217"/><linearGradient id="Áåçûìÿííûé_ãðàäèåíò_217-19" x1="308.17" y1="341.63" x2="366.62" y2="341.63" xlink:href="#Áåçûìÿííûé_ãðàäèåíò_217"/><linearGradient id="Áåçûìÿííûé_ãðàäèåíò_217-20" x1="386.68" y1="311.59" x2="402.54" y2="311.59" xlink:href="#Áåçûìÿííûé_ãðàäèåíò_217"/><linearGradient id="Áåçûìÿííûé_ãðàäèåíò_217-21" x1="459.41" y1="299.95" x2="623.83" y2="299.95" xlink:href="#Áåçûìÿííûé_ãðàäèåíò_217"/><linearGradient id="Áåçûìÿííûé_ãðàäèåíò_242-3" x1="601.3" y1="312.65" x2="633.6" y2="312.65" xlink:href="#Áåçûìÿííûé_ãðàäèåíò_242"/><linearGradient id="Áåçûìÿííûé_ãðàäèåíò_217-22" x1="256.46" y1="332.1" x2="272.16" y2="332.1" xlink:href="#Áåçûìÿííûé_ãðàäèåíò_217"/><linearGradient id="Áåçûìÿííûé_ãðàäèåíò_217-23" x1="514.77" y1="292.76" x2="545.52" y2="292.76" xlink:href="#Áåçûìÿííûé_ãðàäèåíò_217"/><linearGradient id="Áåçûìÿííûé_ãðàäèåíò_217-24" x1="526.28" y1="292.17" x2="553.36" y2="292.17" xlink:href="#Áåçûìÿííûé_ãðàäèåíò_217"/><linearGradient id="Áåçûìÿííûé_ãðàäèåíò_217-25" x1="482.6" y1="334.19" x2="527.45" y2="334.19" xlink:href="#Áåçûìÿííûé_ãðàäèåíò_217"/><linearGradient id="Áåçûìÿííûé_ãðàäèåíò_217-26" x1="516.55" y1="320.37" x2="586.12" y2="320.37" xlink:href="#Áåçûìÿííûé_ãðàäèåíò_217"/><linearGradient id="Áåçûìÿííûé_ãðàäèåíò_225-4" x1="471.77" y1="265.2" x2="471.77" y2="204.97" xlink:href="#Áåçûìÿííûé_ãðàäèåíò_225"/><linearGradient id="Áåçûìÿííûé_ãðàäèåíò_98-4" x1="523.15" y1="325.58" x2="523.15" y2="297.33" xlink:href="#Áåçûìÿííûé_ãðàäèåíò_98"/><linearGradient id="Áåçûìÿííûé_ãðàäèåíò_217-27" x1="473.25" y1="318.55" x2="494.54" y2="318.55" xlink:href="#Áåçûìÿííûé_ãðàäèåíò_217"/><linearGradient id="Áåçûìÿííûé_ãðàäèåíò_98-5" x1="531.1" y1="371.87" x2="672.8" y2="371.87" xlink:href="#Áåçûìÿííûé_ãðàäèåíò_98"/><linearGradient id="Áåçûìÿííûé_ãðàäèåíò_217-28" x1="572.62" y1="377.96" x2="625.62" y2="377.96" xlink:href="#Áåçûìÿííûé_ãðàäèåíò_217"/><linearGradient id="Áåçûìÿííûé_ãðàäèåíò_112-2" x1="402.44" y1="384.49" x2="402.44" y2="347.81" xlink:href="#Áåçûìÿííûé_ãðàäèåíò_112"/><linearGradient id="Áåçûìÿííûé_ãðàäèåíò_217-29" x1="342.72" y1="365.99" x2="392.75" y2="365.99" xlink:href="#Áåçûìÿííûé_ãðàäèåíò_217"/><linearGradient id="Áåçûìÿííûé_ãðàäèåíò_217-30" x1="599.18" y1="336.29" x2="658.52" y2="336.29" gradientTransform="matrix(-1, 0, 0, 1, 1000, 0)" xlink:href="#Áåçûìÿííûé_ãðàäèåíò_217"/><linearGradient id="Áåçûìÿííûé_ãðàäèåíò_217-31" x1="235.37" y1="376.12" x2="294.86" y2="376.12" xlink:href="#Áåçûìÿííûé_ãðàäèåíò_217"/><linearGradient id="Áåçûìÿííûé_ãðàäèåíò_173" x1="549.02" y1="265.32" x2="549.02" y2="233.78" gradientTransform="matrix(-1, 0, 0, 1, 1000, -124.27)" gradientUnits="userSpaceOnUse"><stop offset="0" stop-color="#411440"/><stop offset="1" stop-color="#362c68"/></linearGradient><linearGradient id="Áåçûìÿííûé_ãðàäèåíò_112-3" x1="555.78" y1="262.11" x2="555.78" y2="254.57" xlink:href="#Áåçûìÿííûé_ãðàäèåíò_112"/><linearGradient id="Áåçûìÿííûé_ãðàäèåíò_323" x1="434.68" y1="265.32" x2="434.68" y2="231.95" gradientTransform="matrix(-1, 0, 0, 1, 1000, -124.27)" gradientUnits="userSpaceOnUse"><stop offset="0" stop-color="#2b133e"/><stop offset="1" stop-color="#50336d"/></linearGradient><linearGradient id="Áåçûìÿííûé_ãðàäèåíò_217-32" x1="400.75" y1="248.64" x2="464.63" y2="248.64" gradientTransform="matrix(-1, 0, 0, 1, 1000, 0)" xlink:href="#Áåçûìÿííûé_ãðàäèåíò_217"/><linearGradient id="Áåçûìÿííûé_ãðàäèåíò_217-33" x1="400.75" y1="259.08" x2="464.63" y2="259.08" xlink:href="#Áåçûìÿííûé_ãðàäèåíò_217"/><linearGradient id="Áåçûìÿííûé_ãðàäèåíò_192" x1="754.89" y1="400.92" x2="754.89" y2="312.17" gradientTransform="matrix(-1, 0, 0, 1, 1000, -124.27)" gradientUnits="userSpaceOnUse"><stop offset="0" stop-color="#15042c"/><stop offset="1" stop-color="#402766"/></linearGradient><linearGradient id="Áåçûìÿííûé_ãðàäèåíò_217-34" x1="698.65" y1="356.55" x2="811.13" y2="356.55" xlink:href="#Áåçûìÿííûé_ãðàäèåíò_217"/><linearGradient id="Áåçûìÿííûé_ãðàäèåíò_217-35" x1="768.65" y1="340.12" x2="790.22" y2="340.12" xlink:href="#Áåçûìÿííûé_ãðàäèåíò_217"/><linearGradient id="Áåçûìÿííûé_ãðàäèåíò_217-36" x1="734" y1="379.47" x2="766.47" y2="379.47" xlink:href="#Áåçûìÿííûé_ãðàäèåíò_217"/><linearGradient id="Áåçûìÿííûé_ãðàäèåíò_217-37" x1="775.18" y1="356.55" x2="811.13" y2="356.55" xlink:href="#Áåçûìÿííûé_ãðàäèåíò_217"/><linearGradient id="Áåçûìÿííûé_ãðàäèåíò_192-2" x1="835.4" y1="402.17" x2="835.4" y2="237.28" xlink:href="#Áåçûìÿííûé_ãðàäèåíò_192"/><linearGradient id="Áåçûìÿííûé_ãðàäèåíò_217-38" x1="780.91" y1="319.73" x2="889.88" y2="319.73" gradientTransform="matrix(-1, 0, 0, 1, 1000, 0)" xlink:href="#Áåçûìÿííûé_ãðàäèåíò_217"/><linearGradient id="Áåçûìÿííûé_ãðàäèåíò_217-39" x1="845.35" y1="345.08" x2="889.88" y2="345.08" xlink:href="#Áåçûìÿííûé_ãðàäèåíò_217"/><linearGradient id="Áåçûìÿííûé_ãðàäèåíò_217-40" x1="870.31" y1="348.54" x2="889.88" y2="348.54" xlink:href="#Áåçûìÿííûé_ãðàäèåíò_217"/><linearGradient id="Áåçûìÿííûé_ãðàäèåíò_217-41" x1="861.88" y1="300.7" x2="889.88" y2="300.7" xlink:href="#Áåçûìÿííûé_ãðàäèåíò_217"/><linearGradient id="Áåçûìÿííûé_ãðàäèåíò_217-42" x1="797.74" y1="349.17" x2="852.98" y2="349.17" xlink:href="#Áåçûìÿííûé_ãðàäèåíò_217"/><linearGradient id="Áåçûìÿííûé_ãðàäèåíò_217-43" x1="852.98" y1="266.55" x2="868.14" y2="266.55" xlink:href="#Áåçûìÿííûé_ãðàäèåíò_217"/><linearGradient id="Áåçûìÿííûé_ãðàäèåíò_217-44" x1="800.9" y1="314.24" x2="838.16" y2="314.24" xlink:href="#Áåçûìÿííûé_ãðàäèåíò_217"/><radialGradient id="Áåçûìÿííûé_ãðàäèåíò_201" cx="749.79" cy="344.59" r="42.08" gradientTransform="matrix(-1, 0, 0, 1, 1000, -124.27)" gradientUnits="userSpaceOnUse"><stop offset="0" stop-color="#3b1683"/><stop offset="1" stop-color="#1d0024"/></radialGradient><radialGradient id="Áåçûìÿííûé_ãðàäèåíò_201-2" cx="828.36" cy="319.9" r="63.5" xlink:href="#Áåçûìÿííûé_ãðàäèåíò_201"/><linearGradient id="Áåçûìÿííûé_ãðàäèåíò_192-3" x1="137.32" y1="400.92" x2="137.32" y2="273.04" xlink:href="#Áåçûìÿííûé_ãðàäèåíò_192"/><linearGradient id="Áåçûìÿííûé_ãðàäèåíò_217-45" x1="119.54" y1="351.73" x2="218.87" y2="351.73" xlink:href="#Áåçûìÿííûé_ãðàäèåíò_217"/><linearGradient id="Áåçûìÿííûé_ãðàäèåíò_217-46" x1="30.54" y1="336.98" x2="148.38" y2="336.98" xlink:href="#Áåçûìÿííûé_ãðàäèåíò_217"/><linearGradient id="Áåçûìÿííûé_ãðàäèåíò_217-47" x1="128.87" y1="369.83" x2="178.08" y2="369.83" xlink:href="#Áåçûìÿííûé_ãðàäèåíò_217"/><linearGradient id="Áåçûìÿííûé_ãðàäèåíò_217-48" x1="30.54" y1="336.4" x2="76.16" y2="336.4" xlink:href="#Áåçûìÿííûé_ãðàäèåíò_217"/><linearGradient id="Áåçûìÿííûé_ãðàäèåíò_217-49" x1="73.03" y1="348.53" x2="100.04" y2="348.53" xlink:href="#Áåçûìÿííûé_ãðàäèåíò_217"/><linearGradient id="Áåçûìÿííûé_ãðàäèåíò_217-50" x1="171.97" y1="343.39" x2="178.99" y2="343.39" xlink:href="#Áåçûìÿííûé_ãðàäèåíò_217"/><radialGradient id="Áåçûìÿííûé_ãðàäèåíò_201-3" cx="203.71" cy="356.33" r="33.41" xlink:href="#Áåçûìÿííûé_ãðàäèåíò_201"/></defs><g class="cls-2"><g id="castle"><g class="cls-3"><polygon class="cls-4" points="80 39.05 154.15 93.07 159.44 90.06 181.84 105.41 200.53 128.93 208.87 131.19 232.86 110.13 251.35 105.41 311 10.24 321.35 20.07 341.48 93.07 344 93.07 356.67 144.96 362.95 146.22 390.95 134.07 398.05 135.57 429.42 121.99 569.9 112.08 581.57 110.13 629.82 88.55 651 86.2 652 91.39 642 125.28 647.36 124.73 657.28 78.13 663.9 75.73 688.53 84.46 723 110.13 728.08 108.64 822 175.01 834.5 176.22 844.5 167.9 848.5 167.9 871 130.3 883 121.33 889 135.95 895 141.05 903.67 158.24 908.33 158.57 911.92 97.71 916.33 94.64 937.67 53.43 946 47.73 963.07 105.44 966.5 105.41 978 131.7 989 152.97 1000 165.31 1000 211.31 0 247.6 0 76.09 8.36 84.06 19 121.33 22.5 124.32 38.75 171.94 40.75 171.94 40 148.98 46.25 37.55 57 1.73 60 0.94 72.5 23.98 78 36.97 80 39.05"/><polygon class="cls-5" points="42.03 198.21 0 247.6 0 159.69 5.75 191.66 11.25 191.66 22.5 182.86 7 126.64 2.25 124.32 0 145 0 79.48 8.36 84.06 19 121.33 9.5 122.48 25.5 178.19 40.75 171.94 40 148.98 46.25 37.55 57 1.73 59 12.94 61 90.76 67.5 112.83 139.91 153.06 120.5 133.7 80 110.69 80 63.71 88.92 101.41 147.69 110.13 145.62 101.51 154.15 93.07 159.44 90.06 152.38 100.21 174.65 116.8 192.33 125.28 181.84 105.41 200.53 128.93 208.87 131.19 236 162.92 265.11 144.96 257 113.02 232.86 110.13 251.35 105.41 265.11 110.13 294.5 48.65 292.61 44.25 310.33 20.86 298 44.25 269.77 108.64 279.33 124.73 300.04 140.45 311 127.55 315.33 98.1 316.67 20.86 311 10.24 321.35 20.07 341.48 93.07 341.48 162.92 348.33 160.77 352.33 148.78 344 93.07 356.67 144.96 362.95 146.22 390.95 134.07 374.75 146.22 389.63 142.73 398.7 137.84 398.05 135.57 429.42 121.99 390.95 143.23 398.05 144.96 435.98 131.7 454.29 120.23 581.57 110.13 603.68 100.24 596 107.68 609.5 107.69 619.5 99.8 629.82 92.07 634.67 91.57 620 100.25 609.5 115.57 637.83 111.57 646.08 96.73 651 86.2 651.73 89.98 642 125.28 647.36 124.73 647.36 124.73 652.33 111.57 655.17 125.73 665.33 123.57 670.83 109.23 665.77 95.6 669.42 94.19 663.9 75.73 689.46 85.15 756.99 160.77 725.33 117.4 723 110.13 725.83 109.3 725.83 113.57 775.3 173.07 826.75 187.61 829.5 187.61 827.25 177.23 822 175.01 834.5 176.22 838.25 187.61 841.75 185.48 847.5 172.23 848.5 167.9 849.63 172.23 861.33 186.54 864 170.73 864.25 156.08 865 178.4 872.17 173.73 876.75 169.73 883.5 124.67 885.83 138.64 885.83 171.94 887 184.73 889.67 138.64 895 141.05 900 174.57 898 183.23 889.83 211.57 893.52 215.17 905.18 214.75 911.17 156.9 911.92 97.71 916.33 94.64 917.83 105.07 917.83 145.23 947.33 106.54 948.63 98.23 942.31 50.26 937.67 53.43 926.12 75.73 937.67 53.43 946 47.73 962.73 104.26 930 197.07 928.17 210.07 933.83 210.73 962.73 104.26 963.07 105.44 946.67 181 949 203.82 968.33 202.27 966.5 105.41 989 152.97 1000 165.31 1000 211.31 42.03 198.21"/><polygon class="cls-6" points="316.67 20.86 315.33 98.1 309 62.34 309 49.03 307 39.07 303.83 36.97 298 52.84 286.56 71.86 289.19 95.48 301.6 106.54 314.58 103.23 301.6 108.64 298.17 105.41 286.53 98.1 286.53 76.49 284.6 74.82 310.33 20.86 292.61 44.25 294.5 48.65 279.18 80.7 282.5 60.77 280.68 58.62 311 10.24 316.67 20.86"/><polygon class="cls-6" points="344 93.07 347.79 118.37 341.48 127.55 348.64 124.07 341.48 136.91 341.48 93.07 344 93.07"/><polygon class="cls-7" points="80 39.05 139 82.04 116.67 72.9 118.33 68.73 112.33 63.57 91.33 53.77 106.67 72.44 109.5 78.13 90 73.09 84.33 66.7 84.33 59.87 83.17 59.44 86.95 93.07 80 63.71 80 39.05"/><polygon class="cls-6" points="663.9 75.73 669.42 94.19 665.77 95.6 670.83 109.23 665.33 123.57 655.17 125.73 652.33 111.57 657.28 78.13 663.9 75.73"/><polygon class="cls-6" points="651 86.2 637.83 111.57 641.75 96.84 638.96 95.6 612.76 110.82 619.5 99.8 634.67 91.57 629.82 92.07 617.46 101.41 601.24 101.41 603.68 100.24 629.82 88.55 651 86.2"/><polygon class="cls-6" points="671.7 115.41 667.11 140.93 669.42 138.64 679 168.5 703.75 186.54 687.75 168.5 703.75 174.36 671.7 115.41"/><polygon class="cls-6" points="728.08 108.64 735.69 117.27 747.25 135.57 737.67 125.05 747.25 138.64 725.83 113.57 725.83 109.3 728.08 108.64"/><polygon class="cls-6" points="871 130.3 848.5 167.9 864.83 145.28 867.33 138.64 869.5 138.64 858.5 158.57 856 176.9 864.31 157.91 865 178.4 876.75 169.73 880 127.55 871 130.3"/><polygon class="cls-6" points="454.29 120.23 433.86 132.44 398.05 144.96 390.95 143.23 418.75 127.88 410 134.82 429.42 124.26 424.44 124.73 429.42 121.99 454.29 120.23"/><path class="cls-6" d="M942.31,174.52l6.32,48-1.3,8.3-13,17.1s-4.3-2.75-4.55-2.15,8-51,8-51L932.24,205l-7.49,12,2.5-12L916.33,218.9l21.34-41.2Z" transform="translate(0 -124.27)"/><polygon class="cls-6" points="966.5 105.41 967.72 169.72 965.58 138.48 963.17 145.07 952.2 155.51 963.07 105.44 966.5 105.41"/><polygon class="cls-8" points="200.53 128.93 181.84 105.41 159.44 90.06 154.15 93.07 80 39.05 78 36.97 72.5 23.98 60 0.94 57 1.73 61.04 0 78 36.97 80.83 37.55 153.13 91.67 154.69 91.92 159.44 89.17 182.88 105.55 200.53 128.93"/><polygon class="cls-8" points="208.87 131.19 232.86 110.13 251.35 105.41 311 10.24 321.35 20.07 341.48 93.07 344 93.07 356.67 144.96 362.95 146.22 357.83 143.08 345.06 91.9 341.73 90.06 322.65 18.73 311.85 8.11 250.17 104.23 232.91 108.64 208.87 131.19"/><polygon class="cls-8" points="368.48 143.82 390.95 134.07 398.05 135.57 429.42 121.99 569.9 112.08 581.57 110.13 629.82 88.55 651 86.2 628.88 87.73 581.57 108.64 569.94 111.57 428.48 121.01 398.7 134.36 390.95 133 368.48 143.82"/><polygon class="cls-8" points="946 47.73 937.67 53.43 916.33 94.64 911.92 97.71 908.33 158.57 910.46 96.98 916.33 93.07 937.88 51.98 946 47.73"/><polygon class="cls-8" points="883 121.33 871 130.3 848.5 167.9 844.5 167.9 848.5 166.48 871 128.9 883 121.33"/><polygon class="cls-9" points="650.19 150.54 717 179.39 858.33 198.94 1000 198.21 1000 275.73 0 275.73 0 198.21 300.04 176.44 449.88 151.48 650.19 150.54"/><polygon class="cls-10" points="650.19 150.54 696.38 189.53 696.38 202.83 650.19 241.91 581.8 251.86 617.61 275.73 880 275.73 808 258.36 792.5 246.01 1000 251.86 1000 247.36 839.46 247.6 764.63 208.94 775.3 209.03 766.17 206.32 728.66 181 717 179.39 650.19 150.54"/><polygon class="cls-11" points="304.54 175.69 390.95 163.72 382.55 168.5 325.44 195.05 261.57 209.93 339.85 196.31 351.56 196.57 286 232.83 121.5 249.46 90.5 240.55 244.82 213.85 119.5 232.28 0 229.01 0 275.73 316.67 275.73 411.35 157.9 304.54 175.69"/><polygon class="cls-12" points="839.46 247.6 808.15 246.95 1000 251.86 1000 247.36 839.46 247.6"/><polygon class="cls-13" points="351.56 196.57 356.94 202.27 371.08 193.6 406.33 160.77 390.95 163.72 325.44 195.05 261.57 209.93 339.85 196.31 351.56 196.57"/><polygon class="cls-14" points="808 258.36 844.08 275.73 880 275.73 808 258.36"/><polygon class="cls-15" points="390.95 163.72 325.44 195.05 260 209.93 173.36 224.27 320.11 193.6 331.5 187.19 286 191.66 239.09 196.01 265.11 179.39 300.04 176.44 390.95 163.72"/><polygon class="cls-15" points="351.56 196.57 286 232.83 142.51 247.33 192.55 234.07 251.35 227.43 259.71 223.72 184.61 232.83 144.74 232.28 297.92 213.85 311 207.04 247.04 216.03 239.79 214.72 339.85 196.31 351.56 196.57"/><polygon class="cls-15" points="181.84 215.85 116.5 222.94 0 224.91 0 218.16 232.86 198.21 224.75 201.58 166.5 214.23 181.84 215.85"/><polygon class="cls-16" points="764.63 208.94 763.62 241.72 747.25 229.48 747.25 203.82 766.17 206.32 775.3 209.03 764.63 208.94"/><polygon class="cls-15" points="858.33 198.94 880 207.04 775.3 190.04 766.25 190.04 861.5 206.32 864.25 208.94 818.75 207.83 820.75 208.94 813.25 213.13 772.75 213.13 764.63 208.94 775.3 209.03 766.17 206.32 728.66 181 858.33 198.94"/><polygon class="cls-17" points="974.5 233.35 967.72 220.67 956.7 212.88 911.92 223.72 828.5 233.76 974.5 233.35"/><polygon class="cls-18" points="916.33 212.87 916.33 208.94 901.5 210.91 854.5 218.02 916.33 212.87"/><polygon class="cls-19" points="956.7 212.88 916.33 212.87 861.5 222.77 820.25 231.65 828.5 233.76 911.92 223.72 956.7 212.88"/><polygon class="cls-15" points="916.33 208.94 901.5 207.83 839.75 216.94 854.5 218.02 916.33 208.94"/><polygon class="cls-20" points="638.96 141.05 696.38 189.53 696.38 202.83 727.84 193.95 736.27 203.65 740.76 203.65 784.76 259.35 325.44 261.37 344.67 216.03 366.4 191.66 376.17 186.54 403.31 163.36 429.42 141.05 638.96 141.05"/><polygon class="cls-21" points="598.29 141.05 607.25 131.19 598.29 119.77 600.94 119.77 572.65 95.6 581.8 80.7 500.5 99.86 472.55 107.79 452.5 144.96 514.35 143.87 598.29 141.05"/><polygon class="cls-21" points="467.1 109.51 462.52 128.93 453.29 138.64 443.48 137.84 447.97 130.3 450.98 125.05 467.1 109.51"/><polygon class="cls-22" points="598.29 141.05 607.25 131.19 598.29 119.77 600.94 119.77 572.65 95.6 598.9 115.23 638.96 141.05 598.29 141.05"/><polygon class="cls-21" points="607.25 131.19 619.09 133.7 631.05 136.66 611.22 130.3 598.29 119.77 607.25 131.19"/><polygon class="cls-21" points="600.94 119.77 605.02 119.77 603.7 118.33 597.47 116.8 600.94 119.77"/><polygon class="cls-23" points="638.96 141.05 696.38 189.53 696.38 202.83 685.87 215.57 696.38 202.83 698.85 213.85 690.77 229.82 706.83 228.79 719.61 222.72 728.66 218.79 721.46 231.18 761.07 243.39 758.57 233.47 775.3 260.85 682.56 259.8 607.25 218.18 529.94 213.85 435.98 185.18 481.22 178.02 491.9 176.44 523.56 171.49 561.55 171.49 523.56 162.92 467.29 155.53 449.88 151.48 525 147.36 588.08 145.29 581.52 141.05 638.96 141.05"/><polygon class="cls-24" points="500.5 261.37 575.51 229.48 500.5 256.91 489.68 254.03 460.04 249.69 511 221.76 468.9 236.84 434.03 240.55 355.97 240.55 341.48 223.54 344.67 216.03 366.4 191.66 300.04 261.37 500.5 261.37"/><polygon class="cls-25" points="530.43 140.83 514.35 143.87 482.57 147.36 449.88 151.48 467.29 155.53 523.56 162.92 561.55 171.49 523.56 171.49 449.88 182.86 435.98 185.18 529.94 213.85 607.25 218.18 584.2 260.23 500.5 261.37 575.51 229.48 570.92 226.28 511 221.76 398.7 183.16 428.11 179.55 504.19 171.74 529.39 168.5 540.59 168.5 483.45 160.52 455.29 155.92 437.46 149.3 485.23 144.56 519.26 140.7 530.43 140.83"/><polygon class="cls-26" points="638.96 235.71 655.99 247.58 652.75 249.81 645.05 251.01 646.74 253.48 620.5 256.51 584.2 260.23 682.56 259.8 638.96 235.71"/><polygon class="cls-27" points="429.42 141.05 518.14 140.83 498.24 143.09 437.46 149.3 408.99 164.44 412.23 170.39 428.11 170.39 457.42 156.27 420.25 177.59 426.04 179.88 398.7 183.16 376.17 186.54 429.42 141.05"/><path class="cls-28" d="M481.25,302.37l42.32-6.62h38l-38-8.56-56.28-7.39-17.41-4.05,43.48,4.32,94.73-10.52-6.57-4.23h16.77l63.52,24.28-21.49-20.38-33.07-13.77,22.57,4.81,9.13,5.06,57.43,48.48v13.3L683.24,340l-23.66,24.47,9.72,5.85,24.35,2,27.81-16.78,7.2-12.39-.83-24.84,8.45,9.7L743.54,346l13.59,10.55-16.37-28.61,44,55.69H774.38l.92,1.5-92.74-1-75.31-41.62-77.31-4.33-41.1-12.54L436,309.45Zm135,8.44,50,12.39,25.62-5.33-32.2-26.4-56.74-2.37Zm-117.61-6.74,19.11-6.74-36.21,5.85-5.45.89-32.57,5.51,38.84-3.88Z" transform="translate(0 -124.27)"/><path class="cls-29" d="M493.36,280.07l59.5-6.61,1.54,6.87,2.56-4.58,4.61-3.25,26.52-2.95,28.13,41.26,75.61,18.74,4.55-15.75v13.3l-36.8,37.33-9.39,1.75-42.94-23.73L585,341.21l-3.23-7.6-20.26-37.86-38-8.56-31.23-4.1ZM605.8,325.58l27.58,14.72,42-7.1-22.1-10.54L639,317.87l-50.86-7.06Zm-8.34-16.71h14.13l-4.34-4.6-9-5L585,300.35ZM520.15,282l37.2,7.11L543.7,275.75l-36.18,3.86Z" transform="translate(0 -124.27)"/><polygon class="cls-30" points="669.3 246.01 693.65 247.97 721.46 231.18 761.07 243.39 775.3 260.85 682.56 259.8 650.19 241.91 669.3 246.01"/><polygon class="cls-31" points="520.67 171.94 529.94 213.85 526.75 212.88 519.25 172.16 520.67 171.94"/><polygon class="cls-32" points="435.98 185.18 488.84 201.31 482.33 181.43 443.49 185.32 476.06 179.8 481.51 178.92 481.25 178.1 481.22 178.02 435.98 185.18"/><polygon class="cls-33" points="460.04 207.04 425.96 193.6 417.58 192.9 427.45 201.31 437.46 207.04 460.04 207.04"/><polygon class="cls-34" points="415.56 191.66 421.37 191.66 416.43 189.67 407.31 188.66 412.31 190.75 414.95 191.66 415.56 191.66"/><path class="cls-35" d="M570.92,350.55l-32.61,16.8-63.26,2.93-3.54-2.61L511,346l-10-3.44-1.22,5.54-30,10.23-12.35-10.54,2.61-16.5,5.64-.86L426,317.87l32.7,12.9-21.21.54-7.76,24.13L421.37,360,391,364.82H434l18.48-2,9.9,3.33s-11.2,9.48-12.53,9.21-32-7.61-32-7.61l-78.06,4.45L356,364.82,402.31,360l15.27-42.81,6.86-.88-3.07-.36h-5.81l-9.67,29.25-7.19,7.71-3.54.2,12.15-40.15-12.15,34.88-25.37,9.12-42.59,5.19,25.24-31.53-52.4,55H500.5l75-31.88Z" transform="translate(0 -124.27)"/><polygon class="cls-36" points="402.31 235.71 398.7 228.61 395.16 228.81 396.62 223.98 395.16 223.54 369.79 232.66 356.03 234.34 344.85 235.71 339.85 247.97 355.97 240.55 402.31 235.71"/><polygon class="cls-37" points="500.5 261.37 575.51 229.48 570.92 226.28 538.31 243.09 475.06 246.01 469.97 252.54 458.82 261.37 500.5 261.37"/><polygon class="cls-38" points="500.14 218.02 499.76 223.85 469.77 234.08 468.9 236.84 511 221.76 500.14 218.02"/><polygon class="cls-39" points="429.7 231.18 440.77 236.84 450.98 236.84 467.1 237.03 434.03 240.55 390.95 240.55 421.37 235.71 429.7 231.18"/><polygon class="cls-40" points="633.38 216.03 638.96 235.71 650.19 241.91 659.58 240.17 691.72 207.55 691.83 205.29 641.54 192.82 639.98 193.6 653.3 198.39 675.4 208.94 633.38 216.03"/><polygon class="cls-41" points="611.59 184.6 613.32 190.04 597.55 187.85 597.46 184.6 611.59 184.6"/><polygon class="cls-42" points="514.35 164.83 507.52 169.39 426.04 179.88 420.25 177.59 428.11 170.39 418.46 175.01 396.76 181.97 380.72 182.65 376.17 186.54 398.7 183.16 527.24 168.77 540.59 168.5 514.35 164.83"/><polygon class="cls-43" points="607.25 218.19 585.03 225.01 575.51 229.48 570.92 226.28 511 221.76 398.7 183.16 435.98 185.18 529.94 213.85 607.25 218.19"/><polygon class="cls-44" points="596.11 238.5 552.78 239.14 546.88 241.65 590.89 248.03 596.11 238.5"/><polygon class="cls-44" points="588.09 253.14 531.71 248.1 529.13 249.2 587.37 254.45 588.09 253.14"/><polygon class="cls-43" points="495.47 175.69 488.84 173.07 437.46 178.82 449.88 182.86 495.47 175.69"/><polygon class="cls-43" points="538.51 171.49 532.37 168.5 540.59 168.5 509.18 164.11 523.57 162.92 561.54 171.49 538.51 171.49"/><polygon class="cls-45" points="502 160.09 487.88 161.14 455.29 155.92 466.46 155.34 502 160.09"/><polygon class="cls-45" points="449.88 151.48 437.46 149.3 470.11 146.07 485.23 147.06 449.88 151.48"/><polygon class="cls-46" points="366.4 191.66 371.08 193.6 390.95 187.32 398.7 183.16 376.17 186.54 366.4 191.66"/><polygon class="cls-44" points="554.04 234.98 506.11 224.44 500.66 227.43 531.96 233.41 529.94 234.22 496.5 229.71 494.64 230.57 546.88 238.5 554.04 234.98"/><polygon class="cls-44" points="532.23 243.26 490.72 232.88 488.84 233.91 529.13 243.51 532.23 243.26"/><polygon class="cls-44" points="728.08 201.31 712.74 198.21 696.38 202.83 728.08 206.32 728.08 201.31"/><polygon class="cls-44" points="728.53 214.93 697.16 206.32 697.49 207.8 728.66 218.79 728.53 214.93"/><polygon class="cls-47" points="728.66 218.79 743.54 221.71 736.27 203.65 727.84 193.95 728.66 218.79"/><polygon class="cls-48" points="485.23 161.14 457.42 175.84 454.48 176.22 484.47 160.77 485.23 161.14"/><polygon class="cls-49" points="473.72 158.87 449.17 176.9 446.64 177.23 471.51 158.57 473.72 158.87"/><polygon class="cls-50" points="517.4 210.03 480.61 211.31 472.55 208.54 512.53 208.54 517.4 210.03"/><polygon class="cls-51" points="458.82 203.82 483.45 203.82 483.45 201.31 435.98 188.38 413.88 188.38 458.82 203.82"/><polygon class="cls-21" points="581.8 80.7 588.81 107.69 572.65 95.6 581.8 80.7"/><polygon class="cls-52" points="581.8 80.7 569.44 97.92 540.59 120.75 571.43 98.48 565.22 116.8 529.88 140.93 506.87 140.68 474.67 140.83 487.51 103.23 500.5 99.86 581.8 80.7"/><polygon class="cls-53" points="517.73 173.07 498.61 179.8 517.16 175.69 505.46 191.66 488.84 201.31 435.98 185.18 517.73 173.07"/><polygon class="cls-54" points="517.16 175.69 526.75 212.88 517.4 210.03 505.46 191.66 517.16 175.69"/><polygon class="cls-55" points="468.9 236.84 462.41 241.91 464.9 241.91 449.62 254.45 421.37 246.01 327.2 258.36 339.85 247.97 355.97 240.55 435.98 240.55 468.9 236.84"/><polygon class="cls-56" points="421.37 246.01 427.38 261.37 376.17 261.37 374.38 252.18 421.37 246.01"/><polygon class="cls-57" points="607.25 223.54 597.46 240.55 584.2 260.23 598.31 259.91 610.91 233.88 607.25 223.54"/><polygon class="cls-58" points="610.91 233.88 657.28 259.91 607.25 223.54 610.91 233.88"/><path class="cls-59" d="M341.48,347.81l23.78-25.56,3-1.88,22.54-1.06,10,1-8,20-13.79,10.32-20.39,2.72,2.41-5.46.27-9.69,6-3.93,8.18-5.24,12.39-.86-9.09,3.22h-3.5l-8.87,4.23-2.74,2.63-1.73,7.3.81,5.78,4.72.05,11.15-1.67,13.79-10.14,3.39-14.27-6.58-3.88-20.28.25c-.15,0-3.45,2.13-3.45,2.13l-12.37,13.59-5.88,4.32Z" transform="translate(0 -124.27)"/><polygon class="cls-60" points="764.63 260.23 753.54 248.1 737.86 243.26 710.01 247.97 705.14 252.19 715.86 258.29 738.88 258.29 746.28 255.07 743.54 250.81 739.18 247.16 728.66 247.97 720.12 250.51 721.43 252.19 725.29 250.31 737.05 248.62 739.21 248.75 742.73 251.12 744.15 254.43 737.32 257.47 716.43 257.2 713.66 255.92 707.58 251.75 708.46 250.38 717.51 247.47 737.59 243.95 752.39 248.62 756.65 253.42 758.75 260.45 764.63 260.23"/><polygon class="cls-15" points="585.03 216.94 569.44 186.69 577.14 208.54 571.43 209.93 565.69 207.02 563.9 212.88 546.88 196.45 524.6 186.21 530.43 203.82 528.23 207.83 517.16 175.69 526.75 212.88 529.94 213.85 585.03 216.94"/><polygon class="cls-61" points="638.96 235.71 633.38 216.03 627.47 212.88 627.47 226.51 625.51 226.51 623.49 226.28 621.05 209.45 619.34 208.54 621.05 223.54 619.34 223.54 615.51 222.12 607.25 216.94 594.36 191.77 592.28 190.04 602.89 211.31 602.89 218.02 607.25 218.19 638.96 235.71"/><polygon class="cls-62" points="602.89 218.02 588.09 186.54 590.42 186.54 585.03 176.09 588.81 175.33 579.63 146.22 577.94 146.41 585.03 169.73 582.93 171.49 577.94 179.19 580.49 196.31 577.14 196.31 563.39 148.03 561.57 148.23 571.49 179.8 571.43 182.86 568.16 181.88 561.54 171.49 585.03 216.94 602.89 218.02"/><polygon class="cls-62" points="681.02 218.41 675.4 208.94 673.89 209.19 677.46 219.62 677.46 220.56 668.61 210.09 664.88 210.71 669.05 220.56 667.97 221.71 668.44 231.18 663.98 235.71 647.36 213.67 646.08 213.89 661.2 238.5 681.02 218.41"/><polygon class="cls-15" points="519.26 140.7 571.43 98.48 523.56 133.52 511 133.91 574.5 90.88 579.61 83.75 521.89 124.07 511 124.73 526.75 101.51 547.83 88.71 511 98.1 492.35 121.29 484.94 139.85 519.26 140.7"/><polygon class="cls-63" points="467.1 109.51 429.42 141.05 472.55 140.98 454.48 140.31 451.77 136.51 448.94 132.15 450.98 130.3 450.98 125.05 467.1 109.51"/><polygon class="cls-64" points="448.94 132.15 437.46 137.84 447.97 131.19 450.98 130.3 448.94 132.15"/><polygon class="cls-15" points="417.58 240.55 374.38 252.18 359.59 254.12 409.61 240.55 417.58 240.55"/><polygon class="cls-15" points="398.7 240.55 327.2 258.36 338.03 249.46 388.58 240.55 398.7 240.55"/><polygon class="cls-65" points="599.25 141.05 580.59 115.57 578.1 117.37 578.1 123.03 576.33 118.83 571.91 107.69 570 110.69 568.23 133.63 566.18 130.31 553.97 131.11 531.38 140.83 599.25 141.05"/><path class="cls-66" d="M553,260.26l13.14-5.69,2.05,3.32,4.52,4.22,3.71.09,1.63-9.37-5.7-18.43-1.38-1,.9-1.42,6.18,15.34,10.91,14-3.27-12.8-5.14-8.68,18.66,25.48-63.88-.22Zm13-3.18L553.39,261l-10,3.46L564,262.9l3.27-4.91Zm3.73,7.64.62-1-.45-.84-4.63.43-7,1.15Z" transform="translate(0 -124.27)"/><polygon class="cls-67" points="566.18 130.3 553.04 135.99 535.37 140.83 531.38 140.83 553.97 131.11 566.18 130.3"/><polygon class="cls-68" points="553.04 135.99 553.39 136.75 543.4 140.21 564.04 138.64 565.32 139.06 558.3 140.21 569.77 140.45 570.4 139.48 572.75 137.84 580.87 139.54 576.47 137.93 578.1 128.57 585.97 135.57 589 137.06 599.25 141.05 535.37 140.83 553.04 135.99"/><polygon class="cls-69" points="564.14 131.19 564.86 133.18 563.21 133.7 562.28 131.99 564.14 131.19"/><polygon class="cls-69" points="561.81 134.13 559.93 133.01 557.48 134.07 559.6 134.82 561.81 134.13"/><polygon class="cls-70" points="585.41 132.44 576.12 122.19 572.38 110.13 573.15 110.77 578.1 123.03 585.41 132.44"/><polygon class="cls-70" points="585.73 124.25 591.38 130.3 580.59 115.57 585.73 124.25"/><polygon class="cls-71" points="576.47 137.93 580.87 139.54 581.6 141.05 589.04 141.05 576.47 137.93"/><polygon class="cls-72" points="569.45 117.94 577.04 125.17 578.1 128.57 577.47 132.15 569.11 122.94 569.45 117.94"/><polygon class="cls-72" points="575.37 119.77 569.9 112.08 570 110.69 574.36 116.52 575.37 119.77"/><polygon class="cls-73" points="188.87 276.65 191.72 199.28 200.31 187.9 241.92 201.58 300.11 252.74 301.35 276.65 188.87 276.65"/><polygon class="cls-74" points="200.31 187.9 213.05 227.21 222.11 239.07 244.41 246.35 233.53 233.76 261.57 251.23 300.11 252.74 301.35 276.65 188.87 276.65 188.87 201.73 200.31 187.9"/><polygon class="cls-75" points="231.35 231.55 213.05 209.6 209.78 200.16 231.35 231.55"/><polygon class="cls-76" points="266 276.65 261.57 251.23 233.53 233.76 244.41 246.35 240.82 276.65 266 276.65"/><polygon class="cls-77" points="222.11 239.07 224.82 276.65 188.87 276.65 188.87 201.73 200.31 187.9 213.05 227.21 222.11 239.07"/><polygon class="cls-78" points="241.92 201.58 212.86 204.64 214.38 206.85 245.11 207.41 249.77 209.43 217.49 211.37 218.31 212.57 255.3 213.34 241.92 201.58"/><polygon class="cls-78" points="271.14 227.26 224.82 222.04 227.05 225.28 274.15 229.91 271.14 227.26"/><polygon class="cls-79" points="288.63 242.64 245.11 241.39 261.57 251.23 300.11 252.74 288.63 242.64"/><polygon class="cls-80" points="215.16 276.86 219.09 251.97 174.93 140.43 164.52 132.25 131.86 113.02 110.12 163.72 121.94 174.72 112.19 170.64 110.12 277.9 215.16 276.86"/><path class="cls-81" d="M119.91,334.1l21.67,12,2.82-11.21L121.94,299l-11.82-11,21.74-50.7-7.07,25.47,3.54,27.82,20,46.65,4.9,2.69-4.9-28.27L147,296.81,180.69,378l21.57,22.47L211.42,382,195.56,316.8l23.53,59.43-3.93,24.9-105,1,2.07-107.25ZM153.44,378l16.3,3.41v-6.19l-20.92-34Z" transform="translate(0 -124.27)"/><polygon class="cls-82" points="110.12 163.72 128.32 166.31 138.12 189.15 148.33 212.96 154.65 277.28 145.93 277.9 147.67 222.94 144.4 210.61 121.94 174.72 110.12 163.72"/><polygon class="cls-83" points="112.19 170.64 114.66 185.48 129.69 277.9 110.12 277.9 112.19 170.64"/><polygon class="cls-84" points="121.94 174.72 138.12 189.15 128.32 166.31 110.12 163.72 121.94 174.72"/><polygon class="cls-85" points="153.23 215.65 172.52 253.68 172.88 277.28 202.26 276.15 180.69 253.68 147.02 172.54 148.33 187.39 153.23 215.65"/><polygon class="cls-86" points="147.02 169.46 143.76 143.08 131.86 115.11 147.02 169.46"/><polygon class="cls-78" points="143.76 143.08 174.93 140.43 164.52 132.25 131.86 113.02 124.79 138.49 132.38 138.49 131.86 115.11 143.76 143.08"/><polygon class="cls-87" points="141.58 155.43 128.32 166.31 127.69 161.29 140.66 153.06 141.58 155.43"/><polygon class="cls-87" points="147.22 233.52 128.3 256.61 127.73 253.68 147.22 231.16 147.22 233.52"/><polygon class="cls-87" points="147.59 224.94 126.11 245.21 125.62 242.63 147.67 222.94 147.59 224.94"/><polygon class="cls-78" points="124.79 138.49 119 143 131.86 113.02 124.79 138.49"/><polygon class="cls-87" points="134.15 194.22 119 203.5 115.32 186.55 124.12 178.19 134.15 194.22"/><polygon class="cls-79" points="180.53 154.57 149.86 179.39 147.02 172.54 179.21 151.23 180.53 154.57"/><polygon class="cls-79" points="143.4 156.49 130.19 170.64 132.38 175.77 144.29 159.69 143.4 156.49"/><polygon class="cls-88" points="189.19 176.44 174.76 159.25 171.42 161.95 161.84 180.43 161.84 190.84 173.39 213.8 192.78 220.7 199.1 219.5 193.22 193.01 180.47 177.83 176.22 177.83 169.74 182.5 172.52 200 177.53 201.99 184.94 201.99 184.42 201.01 180.53 201.3 174.64 197.05 171.78 189.15 171.13 183.1 176.85 178.69 180.47 179.39 191.15 191.93 194.17 203.5 195.72 216.2 192.62 218.41 177.99 214.73 173.91 212.77 163.12 189.15 163.28 181.39 174.64 168.15 178.48 167.3 187.8 178.19 191.56 182.42 189.19 176.44"/><polygon class="cls-89" points="300.11 252.74 261.57 251.23 233.53 233.76 209.78 200.16 213.05 209.6 244.41 246.35 222.11 239.07 213.05 227.21 200.31 187.9 241.92 201.58 300.11 252.74"/><polygon class="cls-90" points="174.93 140.43 195.56 192.53 211.42 257.7 202.26 276.15 180.69 253.68 147.02 172.54 143.76 143.08 131.86 115.11 174.93 140.43"/><polygon class="cls-91" points="755.9 276.65 836.96 186.54 875.46 179.19 880.46 183.23 880.46 190.4 909 167.9 953.6 148.78 969.46 210.73 969.46 275.73 755.9 276.65"/><polygon class="cls-92" points="875.46 179.19 867.46 215.4 821.92 247.6 821.92 240.55 781.13 268.28 819.79 254.45 853.49 249.4 836.96 275.73 851.62 275.73 880.46 190.4 880.46 183.23 875.46 179.19"/><polygon class="cls-93" points="953.6 148.78 953.6 181 922.93 241.72 875.46 268.28 865.79 267.05 861.15 247.54 851.62 275.73 909.79 276.65 914.94 254.45 956.96 210.96 960.13 213.48 946.79 276.65 969.46 275.73 969.46 210.73 953.6 148.78"/><polygon class="cls-94" points="862.46 275.73 861.15 247.54 871.13 218.02 867.46 215.4 821.92 247.6 824.85 253.69 853.49 249.4 836.96 275.73 862.46 275.73"/><polygon class="cls-95" points="956.96 210.96 960.13 213.48 969.46 227.43 969.46 210.73 953.6 181 923.84 239.92 925.74 243.26 956.96 210.96"/><polygon class="cls-96" points="811 215.4 862.46 218.79 853.87 225.01 806.68 220.21 811 215.4"/><polygon class="cls-96" points="816.72 209.04 864.68 217.37 867.46 215.4 819.17 206.32 816.72 209.04"/><polygon class="cls-96" points="952.37 183.44 916.17 186.54 880.46 190.4 879.38 193.6 942.42 188.52 942.42 189.98 877.82 198.21 875.31 205.64 931.09 211.84 931.09 215.4 873.89 209.83 872.66 213.48 932.23 223.32 952.37 183.44"/><polygon class="cls-79" points="812.68 246.83 779.92 249.96 764.55 267.05 782.94 267.05 812.68 246.83"/><polygon class="cls-78" points="870.93 199.67 862.68 192.82 836.96 186.54 875.46 179.19 870.93 199.67"/><polygon class="cls-78" points="953.6 181 931.09 174.73 900.33 174.73 909 167.9 953.6 148.78 953.6 181"/><polygon class="cls-97" points="906.96 247.97 906.96 241.91 914.94 220.21 926.97 193.95 910.54 220.96 906.96 238.5 899.96 254.58 906.36 251 906.96 247.97"/><polygon class="cls-98" points="821.92 240.55 822.21 231.18 825.21 218.79 828.03 197.07 821 225.01 821 241.18 821.92 240.55"/><polygon class="cls-79" points="895.73 256.94 862.18 251.86 863.73 258.36 890.43 259.91 895.73 256.94"/><polygon class="cls-79" points="953.72 243.82 914.94 254.45 913.46 260.82 948.82 267.05 953.72 243.82"/><polygon class="cls-99" points="828.03 197.07 821 225.01 821 241.18 782.94 267.05 764.55 267.05 828.03 197.07"/></g></g></g></svg>