<svg  viewBox="0 0 381 127" fill="none" xmlns="http://www.w3.org/2000/svg">
<path d="M11.5781 54.0205V94.6256L38.7493 115" fill="white"/>
<path d="M40.9363 74.2156L29.3223 88.0615L40.9363 115" fill="white"/>
<path d="M58.464 54.0205L43.4805 72.0274V111.736" fill="white"/>
<path d="M54.0915 76.8333L44.6641 114.999L60.4362 94.625" fill="white"/>
<path d="M73.8065 78.3768L47.3164 114.139L73.8065 97.675" fill="white"/>
<path d="M81.9418 61.9485L75.7764 75.7585V95.9176" fill="white"/>
<path d="M85.4558 70.9193L83.2334 84.5141L87.4274 78.9542" fill="white"/>
<path d="M78.8591 46.7389L75.7764 72.4938L81.9418 57.1413" fill="white"/>
<path d="M69.6477 39.1357L65.5254 56.6404L71.4758 61.9492" fill="white"/>
<path d="M63.2764 59.6271V86.0612L73.85 70.0838" fill="white"/>
<path d="M60.4367 56.1815L55.4541 74.2243L61.2611 90.8322" fill="white"/>
<path d="M48.7148 36.0204L41.7607 69.3797L58.3573 49.9022" fill="white"/>
<path d="M5.62779 62.7008L0 80.3131L5.62779 86.0164" fill="white"/>
<path d="M12.2939 51.2579L22.044 71.7757V40.4251" fill="white"/>
<path d="M32.6224 42.8844L25.9775 77.8361L36.5512 57.0713" fill="white"/>
<path d="M37.5181 64.6168L27.1523 84.5892L38.0197 71.5563" fill="white"/>
<path d="M33.2305 20.3741L43.4824 52.0834L47.3179 33.7896" fill="white"/>
<path d="M44.6653 0L33.2305 18.4373L40.9373 25.6831" fill="white"/>
<path d="M48.9668 28.3756L65.5276 46.7411L68.9688 37.5583" fill="white"/>
<g filter="url(#filter0_dddddddd_155_47)">
<path d="M112.578 107H96.9531L116.836 32.7812L129.336 44.5L112.578 107ZM159.641 107H124.484L141.242 44.5H192.023L187.844 60.125H152.688L144.289 91.375H163.82L165.93 83.5625H158.117L166.203 67.9375H185.734L175.266 107L156.516 118.719L159.641 107ZM222.328 107L234.906 60.125H215.375L202.797 107H187.172L203.93 44.5H254.711L237.953 107H222.328ZM265.484 107H249.859L269.742 32.7812L282.242 44.5L265.484 107ZM315.359 60.125L302.781 107L284.031 118.719L299.734 60.125H288.016L296.102 44.5H331.258L323.172 60.125H315.359ZM341.211 44.5H376.367L372.188 60.125H352.656L350.547 67.9375H370.078L361.992 83.5625H346.367L344.258 91.375H363.789L359.609 107H324.453L341.211 44.5Z" fill="white"/>
</g>
<defs>
<filter id="filter0_dddddddd_155_47" x="92.9531" y="32.7812" width="287.414" height="93.9375" filterUnits="userSpaceOnUse" color-interpolation-filters="sRGB">
<feFlood flood-opacity="0" result="BackgroundImageFix"/>
<feColorMatrix in="SourceAlpha" type="matrix" values="0 0 0 0 0 0 0 0 0 0 0 0 0 0 0 0 0 0 127 0" result="hardAlpha"/>
<feOffset dy="4"/>
<feGaussianBlur stdDeviation="2"/>
<feComposite in2="hardAlpha" operator="out"/>
<feColorMatrix type="matrix" values="0 0 0 0 0 0 0 0 0 0 0 0 0 0 0 0 0 0 0.25 0"/>
<feBlend mode="normal" in2="BackgroundImageFix" result="effect1_dropShadow_155_47"/>
<feColorMatrix in="SourceAlpha" type="matrix" values="0 0 0 0 0 0 0 0 0 0 0 0 0 0 0 0 0 0 127 0" result="hardAlpha"/>
<feOffset dy="4"/>
<feGaussianBlur stdDeviation="2"/>
<feComposite in2="hardAlpha" operator="out"/>
<feColorMatrix type="matrix" values="0 0 0 0 0 0 0 0 0 0 0 0 0 0 0 0 0 0 0.25 0"/>
<feBlend mode="normal" in2="effect1_dropShadow_155_47" result="effect2_dropShadow_155_47"/>
<feColorMatrix in="SourceAlpha" type="matrix" values="0 0 0 0 0 0 0 0 0 0 0 0 0 0 0 0 0 0 127 0" result="hardAlpha"/>
<feOffset dy="4"/>
<feGaussianBlur stdDeviation="2"/>
<feComposite in2="hardAlpha" operator="out"/>
<feColorMatrix type="matrix" values="0 0 0 0 0 0 0 0 0 0 0 0 0 0 0 0 0 0 0.25 0"/>
<feBlend mode="normal" in2="effect2_dropShadow_155_47" result="effect3_dropShadow_155_47"/>
<feColorMatrix in="SourceAlpha" type="matrix" values="0 0 0 0 0 0 0 0 0 0 0 0 0 0 0 0 0 0 127 0" result="hardAlpha"/>
<feOffset dy="4"/>
<feGaussianBlur stdDeviation="2"/>
<feComposite in2="hardAlpha" operator="out"/>
<feColorMatrix type="matrix" values="0 0 0 0 0 0 0 0 0 0 0 0 0 0 0 0 0 0 0.25 0"/>
<feBlend mode="normal" in2="effect3_dropShadow_155_47" result="effect4_dropShadow_155_47"/>
<feColorMatrix in="SourceAlpha" type="matrix" values="0 0 0 0 0 0 0 0 0 0 0 0 0 0 0 0 0 0 127 0" result="hardAlpha"/>
<feOffset dy="4"/>
<feGaussianBlur stdDeviation="2"/>
<feComposite in2="hardAlpha" operator="out"/>
<feColorMatrix type="matrix" values="0 0 0 0 0 0 0 0 0 0 0 0 0 0 0 0 0 0 0.25 0"/>
<feBlend mode="normal" in2="effect4_dropShadow_155_47" result="effect5_dropShadow_155_47"/>
<feColorMatrix in="SourceAlpha" type="matrix" values="0 0 0 0 0 0 0 0 0 0 0 0 0 0 0 0 0 0 127 0" result="hardAlpha"/>
<feOffset dy="4"/>
<feGaussianBlur stdDeviation="2"/>
<feComposite in2="hardAlpha" operator="out"/>
<feColorMatrix type="matrix" values="0 0 0 0 0 0 0 0 0 0 0 0 0 0 0 0 0 0 0.25 0"/>
<feBlend mode="normal" in2="effect5_dropShadow_155_47" result="effect6_dropShadow_155_47"/>
<feColorMatrix in="SourceAlpha" type="matrix" values="0 0 0 0 0 0 0 0 0 0 0 0 0 0 0 0 0 0 127 0" result="hardAlpha"/>
<feOffset dy="4"/>
<feGaussianBlur stdDeviation="2"/>
<feComposite in2="hardAlpha" operator="out"/>
<feColorMatrix type="matrix" values="0 0 0 0 0 0 0 0 0 0 0 0 0 0 0 0 0 0 0.25 0"/>
<feBlend mode="normal" in2="effect6_dropShadow_155_47" result="effect7_dropShadow_155_47"/>
<feColorMatrix in="SourceAlpha" type="matrix" values="0 0 0 0 0 0 0 0 0 0 0 0 0 0 0 0 0 0 127 0" result="hardAlpha"/>
<feOffset dy="4"/>
<feGaussianBlur stdDeviation="2"/>
<feComposite in2="hardAlpha" operator="out"/>
<feColorMatrix type="matrix" values="0 0 0 0 0 0 0 0 0 0 0 0 0 0 0 0 0 0 0.25 0"/>
<feBlend mode="normal" in2="effect7_dropShadow_155_47" result="effect8_dropShadow_155_47"/>
<feBlend mode="normal" in="SourceGraphic" in2="effect8_dropShadow_155_47" result="shape"/>
</filter>
</defs>
</svg>
