<svg width="170" height="223" viewBox="0 0 170 223" fill="none" xmlns="http://www.w3.org/2000/svg">
<path fill-rule="evenodd" clip-rule="evenodd" d="M9.024 67.4024L5.83475 172.562C8.72411 158.999 13.9816 149.231 24.0077 137.094C40.721 117.298 51.5037 109.177 75.514 104.737H97.6773C107.394 105.723 113.178 107.338 124.523 113.449C136.625 121.271 140.468 126.906 146.998 137.094C155.239 148.998 158.436 156.103 162.919 169.139C164.773 175.228 165.851 180.601 166.428 185.94L163.231 68.958C149.795 37.3921 137.922 19.9845 117.343 10.7726C108.575 6.84752 98.2262 4.41039 85.503 3C40.0997 11.5343 26.4466 28.944 9.024 67.4024ZM135.136 218.919L135.244 218.642C139.141 208.611 142.187 200.771 142.94 189.674C143.894 175.057 142.805 167.495 140.981 154.839C140.977 154.812 140.973 154.786 140.969 154.76C140.899 154.272 140.828 153.776 140.755 153.272C138.796 176.363 137.076 187.924 131.703 203.363C131.88 205.891 131.867 208.316 131.855 210.471C131.825 216.059 131.805 219.838 135.136 218.919ZM55.4503 121.743C55.0711 121.981 54.6844 122.224 54.2871 122.471C45.2535 127.439 43.2842 131.355 39.3285 139.222L39.3035 139.272L33.0603 156.072C29.8568 166.697 29.6747 173.803 29.3853 185.094C29.3628 185.972 29.3397 186.875 29.3144 187.807C30.3956 197.421 31.1308 202.683 33.0603 211.452L37.4306 217.052" fill="#BACCDB"/>
<path d="M3.09304 194.652C2.80317 204.41 2.92747 209.736 7.46327 217.052C28.1899 218.949 38.1855 219.67 37.4306 217.052L33.0603 211.452C31.1308 202.683 30.3956 197.421 29.3144 187.807C29.3397 186.875 29.3628 185.972 29.3853 185.094C29.6747 173.803 29.8568 166.697 33.0603 156.072L39.3035 139.272L39.3285 139.222C43.2842 131.355 45.2535 127.439 54.2871 122.471C54.6844 122.224 55.0711 121.981 55.4503 121.743L55.4559 121.74C59.8404 118.992 63.2251 116.87 70.5194 114.693C82.5857 113.022 89.2305 112.942 100.799 114.693C110.267 116.681 115.735 118.617 126.396 126.827C133.886 135.971 137.03 141.764 140.755 153.272C140.828 153.776 140.899 154.272 140.969 154.76L140.981 154.839C142.805 167.495 143.894 175.057 142.94 189.674C142.187 200.771 139.141 208.611 135.244 218.642L135.136 218.919C142.406 220.924 149.281 219.777 157.533 218.402C160.296 217.941 163.214 217.455 166.352 217.052C166.386 216.299 166.42 215.557 166.453 214.827C166.978 203.304 167.372 194.667 166.428 185.94C165.851 180.601 164.773 175.228 162.919 169.139C158.436 156.103 155.239 148.998 146.998 137.094C140.468 126.906 136.625 121.271 124.523 113.449C113.178 107.338 107.394 105.723 97.6773 104.737H75.514C51.5037 109.177 40.721 117.298 24.0077 137.094C13.9816 149.231 8.72411 158.999 5.83475 172.562C4.48653 178.89 3.65392 186.045 3.09304 194.652Z" fill="#94A9BF"/>
<path d="M7.46327 217.052L5.33844 218.37L5.99482 219.428L7.23541 219.542L7.46327 217.052ZM3.09304 194.652L0.598336 194.489L0.59546 194.533L0.594146 194.577L3.09304 194.652ZM24.0077 137.094L22.0975 135.481L22.0888 135.491L22.0803 135.502L24.0077 137.094ZM75.514 104.737V102.237H75.2848L75.0594 102.279L75.514 104.737ZM97.6773 104.737L97.9297 102.25L97.8038 102.237H97.6773V104.737ZM124.523 113.449L125.88 111.349L125.796 111.295L125.708 111.247L124.523 113.449ZM146.998 137.094L144.894 138.443L144.918 138.48L144.943 138.517L146.998 137.094ZM162.919 169.139L165.31 168.411L165.297 168.368L165.283 168.326L162.919 169.139ZM166.352 217.052L166.67 219.532L168.755 219.265L168.85 217.165L166.352 217.052ZM142.94 189.674L145.435 189.843L145.435 189.836L142.94 189.674ZM140.755 153.272L143.23 152.917L143.199 152.705L143.134 152.502L140.755 153.272ZM126.396 126.827L128.33 125.243L128.148 125.021L127.921 124.846L126.396 126.827ZM100.799 114.693L101.313 112.246L101.243 112.232L101.173 112.221L100.799 114.693ZM70.5194 114.693L70.1765 112.217L69.9874 112.243L69.8045 112.297L70.5194 114.693ZM54.2871 122.471L55.4917 124.662L55.5512 124.629L55.6089 124.593L54.2871 122.471ZM39.3035 139.272L37.07 138.149L37.0081 138.272L36.9601 138.401L39.3035 139.272ZM33.0603 156.072L30.7169 155.201L30.6895 155.275L30.6668 155.351L33.0603 156.072ZM29.3144 187.807L26.8153 187.739L26.8106 187.913L26.8301 188.086L29.3144 187.807ZM33.0603 211.452L30.6187 211.989L30.7406 212.543L31.0894 212.99L33.0603 211.452ZM40.5521 203.363L42.9895 203.919L43.1839 203.066L42.8044 202.278L40.5521 203.363ZM131.703 203.363L129.341 202.541L129.173 203.026L129.209 203.538L131.703 203.363ZM163.231 68.958L165.73 68.8897L165.717 68.4154L165.531 67.9789L163.231 68.958ZM85.503 3L85.7784 0.51522L85.4077 0.474126L85.0412 0.543027L85.503 3ZM9.024 67.4024L6.74678 66.3707L6.54032 66.8265L6.52515 67.3266L9.024 67.4024ZM5.83475 172.562L8.27988 173.083L5.83475 172.562ZM117.343 10.7726L118.365 8.49083L117.343 10.7726ZM131.855 210.471L134.355 210.485L134.355 210.485L131.855 210.471ZM157.533 218.402L157.944 220.868L157.944 220.868L157.533 218.402ZM166.453 214.827L163.956 214.714L163.956 214.714L166.453 214.827ZM135.244 218.642L132.914 217.737L132.914 217.737L135.244 218.642ZM140.981 154.839L138.506 155.195L138.506 155.195L140.981 154.839ZM29.3853 185.094L26.8861 185.03L26.8861 185.03L29.3853 185.094ZM9.58811 215.735C5.46582 209.085 5.30434 204.407 5.59194 194.726L0.594146 194.577C0.302005 204.412 0.389112 210.386 5.33844 218.37L9.58811 215.735ZM25.9179 138.707C34.2318 128.86 40.9154 122.109 48.3867 117.253C55.8183 112.424 64.1795 109.375 75.9686 107.195L75.0594 102.279C62.8382 104.539 53.803 107.771 45.6623 113.061C37.5613 118.325 30.497 125.533 22.0975 135.481L25.9179 138.707ZM75.514 107.237H97.6773V102.237H75.514V107.237ZM97.4249 107.224C106.785 108.174 112.255 109.68 123.337 115.65L125.708 111.247C114.102 104.996 108.003 103.272 97.9297 102.25L97.4249 107.224ZM123.166 115.548C129.079 119.37 132.882 122.597 135.991 126.055C139.126 129.543 141.619 133.334 144.894 138.443L149.103 135.745C145.848 130.666 143.154 126.545 139.71 122.713C136.238 118.851 132.069 115.349 125.88 111.349L123.166 115.548ZM144.943 138.517C153.027 150.196 156.13 157.085 160.554 169.952L165.283 168.326C160.741 155.121 157.45 147.801 149.054 135.671L144.943 138.517ZM143.134 152.502C139.315 140.705 136.022 134.634 128.33 125.243L124.462 128.411C131.749 137.308 134.745 142.824 138.377 154.042L143.134 152.502ZM127.921 124.846C122.507 120.676 118.305 118.017 114.181 116.149C110.051 114.279 106.109 113.253 101.313 112.246L100.285 117.14C104.957 118.121 108.483 119.057 112.119 120.704C115.761 122.354 119.624 124.767 124.871 128.808L127.921 124.846ZM101.173 112.221C89.3397 110.43 82.4517 110.517 70.1765 112.217L70.8624 117.169C82.7197 115.527 89.1213 115.454 100.425 117.165L101.173 112.221ZM36.9601 138.401L30.7169 155.201L35.4038 156.943L41.6469 140.143L36.9601 138.401ZM26.8301 188.086C27.9167 197.749 28.6637 203.105 30.6187 211.989L35.5019 210.915C33.5979 202.262 32.8745 197.094 31.7988 187.527L26.8301 188.086ZM31.0894 212.99L35.4597 218.59L39.4015 215.514L35.0312 209.914L31.0894 212.99ZM35.0285 217.745C34.9742 217.557 34.9297 217.239 35.0305 216.861C35.1323 216.479 35.3352 216.213 35.4972 216.06C35.743 215.829 35.8594 215.884 35.4103 215.99C34.5863 216.183 33.035 216.291 30.5476 216.246C25.6641 216.158 18.0866 215.514 7.69114 214.563L7.23541 219.542C17.5665 220.487 25.3502 221.153 30.4574 221.245C32.9654 221.29 35.0669 221.206 36.5524 220.857C37.258 220.692 38.1934 220.388 38.9223 219.703C39.3259 219.324 39.6864 218.807 39.8618 218.148C40.0362 217.494 39.9813 216.875 39.8327 216.36L35.0285 217.745ZM39.868 217.608L42.9895 203.919L38.1146 202.807L34.9931 216.497L39.868 217.608ZM42.8044 202.278C37.1968 190.635 36.0909 179.616 35.5597 156.016L30.561 156.129C31.0914 179.694 32.1706 191.722 38.2997 204.448L42.8044 202.278ZM134.064 204.185C139.54 188.449 141.281 176.642 143.246 153.484L138.264 153.061C136.31 176.085 134.611 187.399 129.341 202.541L134.064 204.185ZM160.527 169.868C162.338 175.814 163.383 181.033 163.943 186.209L168.914 185.671C168.319 180.169 167.208 174.642 165.31 168.411L160.527 169.868ZM168.927 185.872L165.73 68.8897L160.732 69.0263L163.929 186.008L168.927 185.872ZM85.0412 0.543027C62.0831 4.85836 46.8228 11.4792 35.0905 22.1285C23.4158 32.7255 15.4739 47.1066 6.74678 66.3707L11.3012 68.434C19.9967 49.2398 27.5926 35.6868 38.451 25.8308C49.2517 16.0271 63.5196 9.67591 85.9648 5.45697L85.0412 0.543027ZM5.58775 194.814C6.14461 186.269 6.96666 179.247 8.27988 173.083L3.38962 172.041C2.0064 178.534 1.16324 185.82 0.598336 194.489L5.58775 194.814ZM8.27988 173.083C11.0667 160.002 16.1012 150.591 25.9352 138.686L22.0803 135.502C11.862 147.872 6.38154 157.997 3.38962 172.041L8.27988 173.083ZM6.52515 67.3266L3.3359 172.486L8.3336 172.638L11.5229 67.4782L6.52515 67.3266ZM165.531 67.9789C152.049 36.3037 139.858 18.1122 118.365 8.49083L116.322 13.0544C135.985 21.8568 147.542 38.4805 160.93 69.937L165.531 67.9789ZM118.365 8.49083C109.281 4.4244 98.6562 1.94274 85.7784 0.51522L85.2276 5.48478C97.7962 6.87804 107.869 9.27064 116.322 13.0544L118.365 8.49083ZM53.0825 120.28C48.3786 122.867 45.3453 125.274 42.9695 128.175C40.6452 131.013 39.0428 134.225 37.095 138.099L41.5621 140.345C43.5699 136.352 44.9301 133.672 46.8377 131.343C48.6938 129.077 51.162 127.043 55.4917 124.662L53.0825 120.28ZM37.095 138.099L37.07 138.149L41.537 140.395L41.5621 140.345L37.095 138.099ZM56.7838 123.858C61.0945 121.156 64.2572 119.171 71.2343 117.089L69.8045 112.297C62.1931 114.569 58.5862 116.827 54.1281 119.622L56.7838 123.858ZM129.209 203.538C129.379 205.958 129.367 208.292 129.355 210.458L134.355 210.485C134.367 208.339 134.381 205.824 134.196 203.188L129.209 203.538ZM129.355 210.458C129.341 213.087 129.304 215.846 129.82 217.779C130.087 218.78 130.617 220.041 131.822 220.849C133.11 221.712 134.566 221.67 135.801 221.329L134.472 216.509C134.041 216.628 134.25 216.457 134.606 216.696C134.879 216.879 134.792 217.018 134.651 216.491C134.351 215.367 134.34 213.443 134.355 210.485L129.355 210.458ZM134.472 221.329C142.36 223.504 149.789 222.227 157.944 220.868L157.122 215.936C148.773 217.328 142.451 218.343 135.801 216.509L134.472 221.329ZM157.944 220.868C160.712 220.406 163.585 219.928 166.67 219.532L166.034 214.573C162.842 214.982 159.88 215.476 157.122 215.936L157.944 220.868ZM168.85 217.165C168.884 216.412 168.917 215.671 168.951 214.941L163.956 214.714C163.923 215.443 163.889 216.185 163.855 216.94L168.85 217.165ZM168.951 214.941C169.474 203.464 169.882 194.625 168.914 185.671L163.943 186.209C164.862 194.709 164.483 203.145 163.956 214.714L168.951 214.941ZM37.095 138.099C37.0866 138.115 37.0784 138.132 37.07 138.149L41.537 140.395C41.5453 140.378 41.5538 140.361 41.5621 140.345L37.095 138.099ZM137.467 219.824L137.574 219.547L132.914 217.737L132.806 218.014L137.467 219.824ZM137.574 219.547C141.467 209.527 144.653 201.364 145.435 189.843L140.446 189.504C139.722 200.178 136.815 207.694 132.914 217.737L137.574 219.547ZM145.435 189.836C146.406 174.954 145.286 167.184 143.455 154.482L138.506 155.195C140.324 167.805 141.382 175.16 140.446 189.511L145.435 189.836ZM54.1225 119.625C53.7429 119.863 53.3591 120.104 52.9653 120.349L55.6089 124.593C56.0097 124.343 56.3993 124.099 56.7781 123.862L54.1225 119.625ZM30.6668 155.351C27.3576 166.325 27.1758 173.728 26.8861 185.03L31.8845 185.158C32.1736 173.877 32.3559 167.068 35.4539 156.794L30.6668 155.351ZM26.8861 185.03C26.8636 185.908 26.8405 186.809 26.8153 187.739L31.8135 187.875C31.8388 186.94 31.862 186.035 31.8845 185.158L26.8861 185.03ZM54.1281 119.622C54.1246 119.624 54.1214 119.626 54.1208 119.626C54.1195 119.627 54.1208 119.626 54.1225 119.625L56.7781 123.862C56.7816 123.859 56.7848 123.858 56.7854 123.857C56.7867 123.856 56.7854 123.857 56.7837 123.858L54.1281 119.622ZM137.467 219.824C137.503 219.732 137.538 219.639 137.574 219.547L132.914 217.737C132.878 217.829 132.842 217.921 132.806 218.014L137.467 219.824ZM56.7811 123.86L56.7867 123.856L54.1251 119.624L54.1195 119.627L56.7811 123.86ZM138.281 153.628C138.353 154.132 138.425 154.629 138.495 155.117L143.444 154.404C143.374 153.915 143.302 153.42 143.23 152.917L138.281 153.628ZM138.495 155.117L138.506 155.195L143.455 154.482L143.444 154.404L138.495 155.117ZM143.455 154.482C143.452 154.458 143.447 154.427 143.444 154.403L138.495 155.117C138.499 155.145 138.502 155.166 138.506 155.195L143.455 154.482Z" fill="black"/>
<path d="M145.5 131C139.771 122.09 137.618 119.341 127 112.5L120.935 32.6143L93 6.5C104.163 7.73353 114 10.702 120.935 15C138.99 23.0567 149.407 39.0795 161.195 66.6871L164 169C163.493 164.33 162.127 162.825 160.5 157.5C156.567 146.098 152.73 141.412 145.5 131Z" fill="#94A9BF"/>
<path d="M125.54 128.275C132.966 137.322 136.083 143.054 139.776 154.44C137.833 177.286 134.827 187.725 129.5 203C128.316 186.546 129.543 178.233 119.694 163.075C110.867 155.836 104.613 153.085 90.9413 150.708C74.582 150.708 76.0692 149.718 55.2046 160.107C43.3507 176.927 44.6596 184.336 43 202.5C37.1816 190.445 36.0263 180.333 35.5 157L39.1899 140.588L39.2148 140.539C43.1367 132.755 45.0892 128.88 54.0457 123.965C54.4397 123.72 54.823 123.481 55.199 123.246L55.2046 123.242L55.2046 123.242C59.5516 120.523 62.9076 118.423 70.1396 116.27C82.103 114.616 88.6911 114.537 100.161 116.27C109.548 118.237 114.969 120.152 125.54 128.275Z" fill="#3D4669" fill-opacity="0.75"/>
</svg>
